<svg width="32" height="32" viewBox="0 0 32 32" fill="none" xmlns="http://www.w3.org/2000/svg">
<path d="M13.512 23.9818L11.5027 21.9725L9.87628 23.5989L11.1524 24.875C11.3166 25.0392 11.5697 25.0748 11.7728 24.962C12.2334 24.7062 12.829 24.3722 13.512 23.9818Z" fill="#FE9168"/>
<path d="M8.03697 24.2928C7.53066 23.6942 6.81928 23.3949 6.10785 23.3949C5.25491 23.3762 4.34578 23.927 3.87853 24.7366C2.16872 27.6994 1.78703 28.3106 1.65191 28.55L0.0860965 31.2535C-0.140591 31.6654 0.309221 32.119 0.723909 31.8967C1.60122 31.4011 3.77603 30.1104 4.50966 29.7244L7.39747 28.0811C8.71441 27.3241 9.05216 25.4427 8.03697 24.2928Z" fill="#FE9168"/>
<path d="M7.16492 20.8876L8.42336 22.1461L10.0498 20.5197L8.00454 18.4745C7.62248 19.1937 7.30492 19.8152 7.06785 20.2884C6.96767 20.4882 7.00673 20.7294 7.16492 20.8876Z" fill="#FE9168"/>
<path d="M21.1487 8.63348C20.5747 8.63348 20.0008 8.85185 19.5638 9.28885C18.6944 10.1232 18.6943 11.6242 19.5638 12.4585C20.3981 13.328 21.8993 13.328 22.7335 12.4585C24.1446 11.0534 23.117 8.62035 21.1487 8.63348Z" fill="#FE9168"/>
<path d="M10.8183 9.89064L5.19938 9.64377C5.06682 9.63795 4.93788 9.68802 4.84413 9.78177L0.138445 14.4874C-0.128243 14.7541 0.0102575 15.2099 0.380383 15.2838L6.70626 16.5451C7.78801 14.5661 9.22913 12.112 10.8183 9.89064Z" fill="#FE9168"/>
<path d="M15.4435 25.2441L16.7909 31.6249C16.8684 31.9918 17.3226 32.1264 17.5879 31.8611L22.2967 27.1523C22.3927 27.0564 22.4427 26.9238 22.434 26.7884L22.0682 21.115C19.9356 22.5805 17.4464 24.0829 15.4435 25.2441Z" fill="#FE9168"/>
<path d="M31.1292 4.90214C31.627 3.13232 31.8736 1.60382 31.9957 0.525948C32.0296 0.226511 31.7781 -0.0288642 31.4779 0.00263577C29.0615 0.256261 26.7244 0.822448 24.4966 1.69245L30.2725 7.46826C30.6298 6.5457 30.9103 5.68001 31.1292 4.90214Z" fill="#FE9168"/>
<path d="M29.3952 9.49629L22.4776 2.57886C19.8001 3.88911 17.3633 5.63254 15.2281 7.76761C13.4786 9.51711 11.4315 12.4019 9.30814 16.1101C9.21426 16.274 9.12226 16.4362 9.03201 16.5963L11.5026 19.0669L14.8787 15.6909C15.2799 15.2896 15.9304 15.2896 16.3316 15.6909C16.7328 16.092 16.7328 16.7425 16.3316 17.1437L12.9555 20.5197L15.3508 22.915C22.2966 18.8699 26.2616 16.0533 29.3952 9.49629ZM21.1488 15.1697C18.8396 15.2173 16.805 13.183 16.8528 10.8737C16.8368 7.07698 21.507 5.14361 24.1866 7.83598C26.8795 10.5171 24.9452 15.1852 21.1488 15.1697Z" fill="#FE9168"/>
</svg>
