<svg width="7" height="11" viewBox="0 0 7 11" fill="none" xmlns="http://www.w3.org/2000/svg">
<path d="M3.087 10.05H3.8745V9.1155C4.3225 9.0735 4.718 8.958 5.061 8.769C5.404 8.573 5.67 8.321 5.859 8.013C6.055 7.698 6.153 7.341 6.153 6.942C6.153 5.92 5.53 5.2165 4.284 4.8315L3.8745 4.7055V2.049C4.1825 2.133 4.452 2.2835 4.683 2.5005C4.914 2.7105 5.0925 2.9835 5.2185 3.3195L6.1005 2.952C5.9465 2.497 5.6735 2.1015 5.2815 1.7655C4.8965 1.4225 4.4275 1.202 3.8745 1.104V0.1275H3.087V1.0515C2.646 1.0795 2.2575 1.188 1.9215 1.377C1.5855 1.566 1.3195 1.8215 1.1235 2.1435C0.9345 2.4585 0.84 2.819 0.84 3.225C0.84 3.715 0.9905 4.149 1.2915 4.527C1.5925 4.905 2.0265 5.1815 2.5935 5.3565L3.087 5.5035V8.1495C2.702 8.0725 2.366 7.908 2.079 7.656C1.792 7.397 1.5715 7.0575 1.4175 6.6375L0.525 7.005C0.693 7.537 1.001 7.999 1.449 8.391C1.904 8.776 2.45 9.0105 3.087 9.0945V10.05ZM2.9715 4.443C2.6005 4.324 2.324 4.1525 2.142 3.9285C1.96 3.6975 1.869 3.442 1.869 3.162C1.869 2.826 1.981 2.553 2.205 2.343C2.429 2.133 2.723 2.014 3.087 1.986V4.4745L2.9715 4.443ZM4.032 5.7975C4.382 5.9025 4.6515 6.0495 4.8405 6.2385C5.0295 6.4275 5.124 6.6865 5.124 7.0155C5.124 7.3375 5.0085 7.6035 4.7775 7.8135C4.5535 8.0165 4.2525 8.139 3.8745 8.181V5.745L4.032 5.7975Z" fill="#9AA5B6"/>
</svg>
