<?xml version="1.0" standalone="no"?>
<!DOCTYPE svg PUBLIC "-//W3C//DTD SVG 1.1//EN" "http://www.w3.org/Graphics/SVG/1.1/DTD/svg11.dtd" >
<svg>
<metadata>
Created by FontForge 20090914 at Tue Aug 31 22:32:23 2021
 By www-data
Copyright 2020 The Plus Jakarta Sans Project Authors (https://github.com/tokotype/PlusJakartaSans)
</metadata>
<defs>
<font id="PlusJakartaSans-Bold" horiz-adv-x="593" >
  <font-face 
    font-family="Plus Jakarta Sans"
    font-weight="700"
    font-stretch="normal"
    units-per-em="1000"
    panose-1="0 0 0 0 0 0 0 0 0 0"
    ascent="800"
    descent="-200"
    x-height="543.998"
    cap-height="745"
    bbox="-176 -376.002 1407 1207"
    underline-thickness="40"
    underline-position="-135"
    unicode-range="U+000D-U+FB02"
  />
<missing-glyph horiz-adv-x="640" 
d="M60 675h520v70h-520v-70zM60 450h520v70h-520v-70zM60 225h520v70h-520v-70zM60 0h520v70h-520v-70z" />
    <glyph glyph-name="fi" unicode="fi" horiz-adv-x="624" 
d="M124 0h131v427h190v-427h131v544h-321v18c0 27.333 8.16699 47.5 24.5 60.5s38.833 19.5 67.5 19.5c10.667 0 22 -1 34 -3v113c-15.333 3.33301 -32.333 5 -51 5c-62.667 0 -112.667 -17 -150 -51s-56 -82 -56 -144v-18h-96v-117h96v-427z" />
    <glyph glyph-name="fl" unicode="fl" horiz-adv-x="658" 
d="M124 0h131v427h212v-427h131v757h-131v-213h-212v18c0 27.333 8.16699 47.5 24.5 60.5s38.833 19.5 67.5 19.5c10.667 0 22 -1 34 -3v113c-15.333 3.33301 -32.333 5 -51 5c-62.667 0 -112.667 -17 -150 -51s-56 -82 -56 -144v-18h-96v-117h96v-427z" />
    <glyph glyph-name="f_f" unicode="ff" horiz-adv-x="802" 
d="M124 0h131v427h265v-427h131v427h121v117h-121v18c0 27.333 8.16699 47.5 24.5 60.5s38.833 19.5 67.5 19.5c10.667 0 22 -1 34 -3v113c-15.333 3.33301 -32.333 5 -51 5c-62.667 0 -112.667 -17 -150 -51s-56 -82 -56 -144v-18h-265v18c0 27.333 8.16699 47.5 24.5 60.5
s38.833 19.5 67.5 19.5c10.667 0 22 -1 34 -3v113c-15.333 3.33301 -32.333 5 -51 5c-62.667 0 -112.667 -17 -150 -51s-56 -82 -56 -144v-18h-96v-117h96v-427z" />
    <glyph glyph-name="f_f_i" unicode="ffi" horiz-adv-x="1030" 
d="M124 0h131v427h275v-427h131v427h190v-427h131v544h-321v18c0 27.333 8.16699 47.5 24.5 60.5s38.833 19.5 67.5 19.5c10.667 0 22 -1 34 -3v113c-15.333 3.33301 -32.333 5 -51 5c-62.667 0 -112.667 -17 -150 -51s-56 -82 -56 -144v-18h-275v18
c0 27.333 8.16699 47.5 24.5 60.5s38.833 19.5 67.5 19.5c10.667 0 22 -1 34 -3v113c-15.333 3.33301 -32.333 5 -51 5c-62.667 0 -112.667 -17 -150 -51s-56 -82 -56 -144v-18h-96v-117h96v-427z" />
    <glyph glyph-name="f_f_l" unicode="ffl" horiz-adv-x="1064" 
d="M124 0h131v427h275v-427h131v427h212v-427h131v757h-131v-213h-212v18c0 27.333 8.16699 47.5 24.5 60.5s38.833 19.5 67.5 19.5c10.667 0 22 -1 34 -3v113c-15.333 3.33301 -32.333 5 -51 5c-62.667 0 -112.667 -17 -150 -51s-56 -82 -56 -144v-18h-275v18
c0 27.333 8.16699 47.5 24.5 60.5s38.833 19.5 67.5 19.5c10.667 0 22 -1 34 -3v113c-15.333 3.33301 -32.333 5 -51 5c-62.667 0 -112.667 -17 -150 -51s-56 -82 -56 -144v-18h-96v-117h96v-427z" />
    <glyph glyph-name=".notdef" horiz-adv-x="640" 
d="M60 675h520v70h-520v-70zM60 450h520v70h-520v-70zM60 225h520v70h-520v-70zM60 0h520v70h-520v-70z" />
    <glyph glyph-name="NULL" horiz-adv-x="0" 
 />
    <glyph glyph-name="NULL" horiz-adv-x="0" 
 />
    <glyph glyph-name="CR" unicode="&#xd;" horiz-adv-x="178" 
 />
    <glyph glyph-name="space" unicode=" " horiz-adv-x="178" 
 />
    <glyph glyph-name="exclam" unicode="!" horiz-adv-x="371" 
d="M128 226h115l9 519h-133zM119 0h133v140h-133v-140z" />
    <glyph glyph-name="quotedbl" unicode="&#x22;" horiz-adv-x="498" 
d="M113 462h85l16 283h-118zM300 462h85l16 283h-118z" />
    <glyph glyph-name="numbersign" unicode="#" horiz-adv-x="915" 
d="M135 0h133l47 164h164l-46 -164h132l47 164h153v115h-120l54 188h153v115h-120l47 163h-133l-46 -163h-165l47 163h-133l-47 -163h-152v-115h120l-55 -188h-153v-115h120zM348 279l54 188h164l-53 -188h-165z" />
    <glyph glyph-name="dollar" unicode="$" horiz-adv-x="647" 
d="M290 -100l85.002 0.00195312v90c44 4 82.667 15.833 116 35.5s59.333 44.834 78 75.501s28 65.667 28 105c0 99.333 -59.333 168 -178 206l-44 14v203c51.333 -17.333 87.666 -53.333 108.999 -108l112 50c-16.667 47.333 -44.5 87 -83.5 119s-84.833 52.667 -137.5 62
v93h-85v-89c-44 -3.33301 -82.833 -14.5 -116.5 -33.5s-59.834 -44.167 -78.501 -75.5s-28 -67 -28 -107c0 -48.667 14.667 -90.834 44 -126.501s73 -62.834 131 -81.501l48 -15v-202c-30 8 -57 23.167 -81 45.5s-43 50.166 -57 83.499l-113 -49
c18 -54.667 49.333 -100.167 94 -136.5s97 -58.833 157 -67.5v-91zM282.002 455.002c-26.667 8.66699 -46.833 20.832 -60.5 36.499s-20.5 33.834 -20.5 54.501c0 24 8 44 24 60s37.667 26 65 30v-184zM385.003 286c26 -8.66699 45.5 -19.999 58.5 -33.999
s19.5 -32 19.5 -54c0 -23.333 -8 -42.833 -24 -58.5s-37.333 -25.834 -64 -30.501v180z" />
    <glyph glyph-name="percent" unicode="%" horiz-adv-x="1046" 
d="M270 367c36.667 0 69.667 8.83301 99 26.5s52.666 41.167 69.999 70.5s26 62 26 98s-8.66699 68.833 -26 98.5s-40.666 53.167 -69.999 70.5s-62.333 26 -99 26s-70 -8.66699 -100 -26s-53.667 -40.833 -71 -70.5s-26 -62.5 -26 -98.5s8.66699 -68.667 26 -98
s41 -52.833 71 -70.5s63.333 -26.5 100 -26.5zM153 0h140l604 745h-140zM270 468c-28.667 0 -51.167 9.66699 -67.5 29s-24.5 41 -24.5 65s8.16699 45.833 24.5 65.5s38.833 29.5 67.5 29.5s50.834 -9.83301 66.501 -29.5s23.5 -41.5 23.5 -65.5s-7.83301 -45.667 -23.5 -65
s-37.834 -29 -66.501 -29zM777 -12c36.667 0 69.834 8.83301 99.501 26.5s53.167 41.167 70.5 70.5s26 62 26 98s-8.66699 68.833 -26 98.5s-40.833 53.167 -70.5 70.5s-62.834 26 -99.501 26s-69.834 -8.66699 -99.501 -26s-53.167 -40.833 -70.5 -70.5
s-26 -62.5 -26 -98.5s8.66699 -68.667 26 -98s40.833 -52.833 70.5 -70.5s62.834 -26.5 99.501 -26.5zM777 89c-28.667 0 -51 9.66699 -67 29s-24 41 -24 65s8 45.833 24 65.5s38.333 29.5 67 29.5s51 -9.83301 67 -29.5s24 -41.5 24 -65.5s-8 -45.667 -24 -65
s-38.333 -29 -67 -29z" />
    <glyph glyph-name="ampersand" unicode="&#x26;" horiz-adv-x="793" 
d="M308 -12c47.333 0 87.168 8.33301 119.501 25s59.5 36.334 81.5 59.001l66 -72h157l-151 169l126 196h-137l-72 -104l-101 113c20 12 41 26.667 63 44s40.833 38.5 56.5 63.5s23.5 54.833 23.5 89.5c0 36 -8.83301 68 -26.5 96s-41.334 50 -71.001 66
s-62.834 24 -99.501 24c-35.333 0 -68.333 -7.83301 -99 -23.5s-55.167 -37.834 -73.5 -66.501s-27.5 -62.667 -27.5 -102c0 -34.667 7 -65.5 21 -92.5s30 -51.5 48 -73.5c-16.667 -10 -35.667 -24 -57 -42s-39.833 -40.667 -55.5 -68s-23.5 -60.333 -23.5 -99
c0 -40.667 9.83301 -76.167 29.5 -106.5s46.834 -53.833 81.501 -70.5s75 -25 121 -25zM267.002 571c0 23.333 7.5 42.3359 22.5 57.0029s33.167 22 54.5 22c22 0 40.167 -7.5 54.5 -22.5s21.5 -33.5 21.5 -55.5c0 -26 -9.66699 -47.833 -29 -65.5
s-42.333 -33.834 -69 -48.501c-13.333 15.333 -25.833 32.666 -37.5 51.999s-17.5 39.666 -17.5 60.999zM214.002 192.003c0 29.333 8.16797 53.5 24.501 72.5s33.833 34.5 52.5 46.5l137 -150c-12 -16 -27.333 -30.167 -46 -42.5s-41.667 -18.5 -69 -18.5
c-30.667 0 -54.834 8.16699 -72.501 24.5s-26.5 38.833 -26.5 67.5z" />
    <glyph glyph-name="quotesingle" unicode="'" horiz-adv-x="311" 
d="M113 462h85l16 283h-118z" />
    <glyph glyph-name="parenleft" unicode="(" horiz-adv-x="379" 
d="M233 -170l110 -0.000976562c-95.333 143.333 -143 296 -143 458c0 162.667 47.667 315 143 457h-110c-112.667 -129.333 -169 -281.666 -169 -456.999c0 -173.333 56.333 -326 169 -458z" />
    <glyph glyph-name="parenright" unicode=")" horiz-adv-x="379" 
d="M37 -170h110c112 131.333 168 284 168 458c0 174.667 -56 327 -168 457h-110c94.667 -142.667 142 -295 142 -457c0 -161.333 -47.333 -314 -142 -458z" />
    <glyph glyph-name="asterisk" unicode="*" horiz-adv-x="540" 
d="M196 364l74 99l73 -99l81 59l-73 99l115 39l-31 94l-115 -38v128h-100v-128l-115 38l-31 -94l115 -39l-73 -99z" />
    <glyph glyph-name="plus" unicode="+" horiz-adv-x="660" 
d="M274 0h113v194h193v113h-193v193h-113v-193h-194v-113h194v-194z" />
    <glyph glyph-name="comma" unicode="," horiz-adv-x="357" 
d="M103 -156c101.333 21.333 152 91.333 152 210v86h-132v-140h61c-8 -50 -35 -80.667 -81 -92v-64z" />
    <glyph glyph-name="hyphen" unicode="-" horiz-adv-x="600" 
d="M88 214h425v115h-425v-115z" />
    <glyph glyph-name="period" unicode="." horiz-adv-x="378" 
d="M123 0h132v140h-132v-140z" />
    <glyph glyph-name="slash" unicode="/" horiz-adv-x="506" 
d="M15 -40h144l332 825h-143z" />
    <glyph glyph-name="zero" unicode="0" horiz-adv-x="708" 
d="M354 -12c60 0 112.334 16.1641 157.001 48.4971s79.5 77.333 104.5 135s37.5 124.834 37.5 201.501s-12.5 143.834 -37.5 201.501s-60 102.5 -105 134.5s-97.5 48 -157.5 48c-58.667 0 -110.334 -16 -155.001 -48s-79.5 -76.667 -104.5 -134
s-37.5 -124.666 -37.5 -201.999c0 -76.667 12.5 -144 37.5 -202s60 -103 105 -135s96.833 -48 155.5 -48zM354.001 111.997c-50.667 0 -90.333 23.333 -119 70s-43 110.334 -43 191.001c0 81.333 14.167 145 42.5 191s67.833 69 118.5 69c51.333 0 91.5 -23.167 120.5 -69.5
s43.5 -109.833 43.5 -190.5s-14.333 -144.334 -43 -191.001s-68.667 -70 -120 -70z" />
    <glyph glyph-name="one" unicode="1" horiz-adv-x="403" 
d="M173 0h136v745h-280v-116h144v-629z" />
    <glyph glyph-name="two" unicode="2" horiz-adv-x="597" 
d="M46 0l500 0.000976562v115h-323l175 184c47.333 49.333 82.166 93 104.499 131s33.5 77.333 33.5 118c0 41.333 -10.167 77.666 -30.5 108.999s-48.666 55.833 -84.999 73.5s-78.5 26.5 -126.5 26.5c-40 0 -77.833 -7.83301 -113.5 -23.5s-65.834 -38 -90.501 -67
s-41 -63.167 -49 -102.5l119 -37c10.667 35.333 27.667 62.166 51 80.499s51 27.5 83 27.5c30.667 0 55.834 -9 75.501 -27s29.5 -42.667 29.5 -74c0 -18.667 -4.33301 -37 -13 -55s-24 -39.667 -46 -65s-52.667 -58.666 -92 -99.999l-202 -212v-102z" />
    <glyph glyph-name="three" unicode="3" horiz-adv-x="611" 
d="M293 -12c52 0 98.168 11.167 138.501 33.5s72.166 52.5 95.499 90.5s35 81 35 129c0 58.667 -16.833 107.5 -50.5 146.5s-78.167 62.833 -133.5 71.5l153 179v107h-457v-115h304l-193 -220l31 -65c22.667 10.667 48 16 76 16c40.667 0 73.167 -11 97.5 -33
s36.5 -52.333 36.5 -91s-12.333 -69.5 -37 -92.5s-56.667 -34.5 -96 -34.5c-32.667 0 -61.5 9 -86.5 27s-43.5 44 -55.5 78l-119 -42c9.33301 -37.333 26.833 -70 52.5 -98s56.667 -49.5 93 -64.5s74.833 -22.5 115.5 -22.5z" />
    <glyph glyph-name="four" unicode="4" horiz-adv-x="654" 
d="M378 0h134v164h109v114h-109v467h-142l-334 -467v-114h342v-164zM378 278h-208l208 299v-299z" />
    <glyph glyph-name="five" unicode="5" horiz-adv-x="615" 
d="M297 -12c51.333 0 96.9971 11.168 136.997 33.501s71.5 52.666 94.5 90.999s34.5 81.5 34.5 129.5c0 47.333 -10 89.5 -30 126.5s-48.167 66.167 -84.5 87.5s-79.166 32 -128.499 32c-47.333 0 -86.333 -9.66699 -117 -29l23 171h309v115h-406l-59 -414l111 -25
c9.33301 21.333 24.5 37.666 45.5 48.999s44.5 17 70.5 17c38 0 69 -12 93 -36s36 -55.333 36 -94s-12 -70.334 -36 -95.001s-55 -37 -93 -37c-30.667 0 -58.667 8.5 -84 25.5s-43.666 42.167 -54.999 75.5l-118 -42c9.33301 -37.333 26.833 -69.666 52.5 -96.999
s56.334 -48.166 92.001 -62.499s73.167 -21.5 112.5 -21.5z" />
    <glyph glyph-name="six" unicode="6" horiz-adv-x="602" 
d="M302 -12c50 0 94.498 10.8301 133.498 32.4971s69.5 51.334 91.5 89.001s33 80.5 33 128.5c0 45.333 -10.167 85.666 -30.5 120.999s-48.166 63.333 -83.499 84s-75.666 31 -120.999 31c-10.667 0 -20.667 -0.666992 -30 -2l213 273h-162l-208 -270
c-25.333 -33.333 -45 -63.666 -59 -90.999s-23.5 -53 -28.5 -77s-7.5 -48 -7.5 -72c0 -47.333 11 -89.666 33 -126.999s52.5 -66.666 91.5 -87.999s83.833 -32 134.5 -32zM301.998 109.997c-34.667 0 -63.834 11.833 -87.501 35.5s-35.5 53.834 -35.5 90.501
c0 37.333 11.833 67.5 35.5 90.5s52.834 34.5 87.501 34.5s63.667 -11.5 87 -34.5s35 -53.167 35 -90.5c0 -36.667 -11.833 -66.834 -35.5 -90.501s-52.5 -35.5 -86.5 -35.5z" />
    <glyph glyph-name="seven" unicode="7" horiz-adv-x="559" 
d="M72 0h150l303 631v115h-494v-115h351z" />
    <glyph glyph-name="eight" unicode="8" horiz-adv-x="632" 
d="M316 -12c54 0 100.83 10.1699 140.497 30.5029s70.334 47.666 92.001 81.999s32.5 72.166 32.5 113.499s-9.5 77.166 -28.5 107.499s-46.5 55.166 -82.5 74.499c25.333 16.667 45 38.834 59 66.501s21 58.167 21 91.5c0 39.333 -10 74.333 -30 105s-47.667 54.667 -83 72
s-75.666 26 -120.999 26c-46 0 -86.667 -8.83301 -122 -26.5s-63 -41.667 -83 -72s-30 -65.166 -30 -104.499c0 -32.667 7 -63.334 21 -92.001s34 -50.667 60 -66c-74 -38.667 -111 -99 -111 -181c0 -41.333 10.833 -79.333 32.5 -114s52.334 -62.167 92.001 -82.5
s86.5 -30.5 140.5 -30.5zM315.997 449.003c-29.333 0 -53.166 9.16699 -71.499 27.5s-27.5 41.5 -27.5 69.5c0 27.333 9.16699 50.166 27.5 68.499s42.166 27.5 71.499 27.5s53 -9.16699 71 -27.5s27 -41.166 27 -68.499c0 -28 -9 -51.167 -27 -69.5
s-41.667 -27.5 -71 -27.5zM315.997 103.003c-38.667 0 -69.667 10.667 -93 32s-35 49.333 -35 84s11.667 62.5 35 83.5s54.333 31.5 93 31.5s69.834 -10.5 93.501 -31.5s35.5 -48.833 35.5 -83.5s-11.833 -62.667 -35.5 -84s-54.834 -32 -93.501 -32z" />
    <glyph glyph-name="nine" unicode="9" horiz-adv-x="602" 
d="M94 0l163.002 0.00292969l208 270c26 34 45.833 64.5 59.5 91.5s23 52.5 28 76.5s7.5 48 7.5 72c0 47.333 -11.167 89.666 -33.5 126.999s-52.833 66.666 -91.5 87.999s-83.334 32 -134.001 32c-50 0 -94.5 -10.667 -133.5 -32s-69.667 -50.833 -92 -88.5
s-33.5 -80.5 -33.5 -128.5c0 -45.333 10.167 -85.833 30.5 -121.5s48.166 -63.834 83.499 -84.501s75.666 -31 120.999 -31c10.667 0 20.334 0.666992 29.001 2zM301.002 385.003c-34.667 0 -63.834 11.5 -87.501 34.5s-35.5 52.833 -35.5 89.5
c0 37.333 11.833 67.666 35.5 90.999s52.834 35 87.501 35s63.667 -11.667 87 -35s35 -53.666 35 -90.999c0 -36.667 -11.667 -66.5 -35 -89.5s-52.333 -34.5 -87 -34.5z" />
    <glyph glyph-name="colon" unicode=":" horiz-adv-x="378" 
d="M123 404h132v140h-132v-140zM123 0h132v140h-132v-140z" />
    <glyph glyph-name="semicolon" unicode=";" horiz-adv-x="398" 
d="M143 404h132v140h-132v-140zM123 -156c101.333 21.333 152 91.333 152 210v86h-132v-140h61c-8 -50 -35 -80.667 -81 -92v-64z" />
    <glyph glyph-name="less" unicode="&#x3c;" horiz-adv-x="666" 
d="M562 13v133l-297 126l297 126v134l-458 -196v-128z" />
    <glyph glyph-name="equal" unicode="=" horiz-adv-x="712" 
d="M131 301h450v113h-450v-113zM131 59h450v112h-450v-112z" />
    <glyph glyph-name="greater" unicode="&#x3e;" horiz-adv-x="644" 
d="M104 13l458 195v128l-458 196v-134l297 -126l-297 -126v-133z" />
    <glyph glyph-name="question" unicode="?" horiz-adv-x="583" 
d="M211 226l125 -0.00195312v12c0 29.333 8.16699 55 24.5 77s34.833 43 55.5 63l48.5 50.5c15.667 17 28.834 35.833 39.501 56.5s16 44.334 16 71.001c0 34 -9 66.333 -27 97s-44 55.667 -78 75s-75.667 29 -125 29c-41.333 0 -78.833 -7.83301 -112.5 -23.5
s-61 -37.5 -82 -65.5s-34.5 -60.667 -40.5 -98l122 -30c4.66699 29.333 17.167 52.5 37.5 69.5s44.5 25.5 72.5 25.5c31.333 0 55.166 -8 71.499 -24s24.5 -35.333 24.5 -58c0 -24 -8.16699 -44.833 -24.5 -62.5l-55.5 -57.5c-14.667 -14.667 -29.167 -31 -43.5 -49
s-26 -38.167 -35 -60.5s-13.5 -48.166 -13.5 -77.499v-20zM208 -0.00195312h133v140h-133v-140z" />
    <glyph glyph-name="at" unicode="@" horiz-adv-x="927" 
d="M484 -98c81.333 0 153.331 19.665 215.998 58.998l-46 88c-49.333 -31.333 -106 -47 -170 -47c-62.667 0 -118.5 14.167 -167.5 42.5s-87.667 67.166 -116 116.499s-42.5 106 -42.5 170c0 63.333 13.667 119.5 41 168.5s65.5 87.5 114.5 115.5s105.833 42 170.5 42
c66 0 122 -14 168 -42s81 -66.333 105 -115s36 -103.667 36 -165c0 -42.667 -5.5 -73 -16.5 -91s-27.167 -27 -48.5 -27c-16 0 -28.667 6.16699 -38 18.5s-14 30.5 -14 54.5v254h-91v-42c-12 16 -29.667 28.667 -53 38s-49 14 -77 14c-40.667 0 -77.167 -10 -109.5 -30
s-57.833 -46.667 -76.5 -80s-28 -70 -28 -110c0 -40.667 9.5 -77.167 28.5 -109.5s44.333 -57.666 76 -75.999s66.834 -27.5 105.501 -27.5c29.333 0 57.5 5.66699 84.5 17s46.833 27.333 59.5 48c13.333 -22.667 32.166 -39.167 56.499 -49.5s48.833 -15.5 73.5 -15.5
c52.667 0 95.334 18.833 128.001 56.5s49 88.834 49 153.501c0 62 -10 119 -30 171s-48.5 97 -85.5 135s-81.167 67.5 -132.5 88.5s-108.333 31.5 -171 31.5c-62 0 -119.333 -10.333 -172 -31s-98.5 -50 -137.5 -88s-69.333 -83 -91 -135s-32.5 -109.667 -32.5 -173
c0 -62.667 10.833 -120.167 32.5 -172.5s52 -97.666 91 -135.999s84.833 -67.833 137.5 -88.5s110.334 -31 173.001 -31zM461.998 216.998c-32.667 0 -60.332 11.3311 -82.999 33.998s-34 51.334 -34 86.001c0 35.333 11.333 64.333 34 87s50.667 33.334 84 32.001
c33.333 -0.666992 60.666 -12.167 81.999 -34.5s32 -50.5 32 -84.5s-10.833 -62.5 -32.5 -85.5s-49.167 -34.5 -82.5 -34.5z" />
    <glyph glyph-name="A" unicode="A" horiz-adv-x="712" 
d="M11 0h147l54 160h288l53 -160h148l-257 745h-176zM251 280l105 314l105 -314h-210z" />
    <glyph glyph-name="B" unicode="B" horiz-adv-x="691" 
d="M72 0l313.998 0.000976562c83.333 0 148.5 20.167 195.5 60.5s70.5 96.166 70.5 167.499c0 34 -6.66699 66 -20 96s-36.666 55.667 -69.999 77c20.667 18.667 35.834 39.334 45.501 62.001s14.5 46.667 14.5 72c0 65.333 -21 116.666 -63 153.999s-99.667 56 -173 56
h-314v-745zM207.998 456.001v173h185c28 0 50.333 -7.66699 67 -23s25 -36 25 -62s-8.33301 -47.167 -25 -63.5s-39 -24.5 -67 -24.5h-185zM207.998 120.001v217.001h192c35.333 0 63.5 -9.83301 84.5 -29.5s31.5 -46.167 31.5 -79.5c0 -32.667 -10.5 -58.834 -31.5 -78.501
s-49.167 -29.5 -84.5 -29.5h-192z" />
    <glyph glyph-name="C" unicode="C" horiz-adv-x="774" 
d="M422 -12c53.333 0 101.166 8.99805 143.499 26.998s78.166 41.833 107.499 71.5s50.333 62.167 63 97.5l-122 57c-14.667 -37.333 -38.5 -68.166 -71.5 -92.499s-73.167 -36.5 -120.5 -36.5c-46.667 0 -87.667 11 -123 33s-63 52.5 -83 91.5s-30 84.5 -30 136.5
s10 97.5 30 136.5s47.667 69.333 83 91s76.333 32.5 123 32.5c47.333 0 87.5 -12.167 120.5 -36.5s56.833 -55.166 71.5 -92.499l122 57c-12.667 35.333 -33.667 67.833 -63 97.5s-65.166 53.5 -107.499 71.5s-90.166 27 -143.499 27s-102.666 -9.5 -147.999 -28.5
s-84.666 -45.667 -117.999 -80s-59.333 -75 -78 -122s-28 -98.167 -28 -153.5s9.33301 -106.5 28 -153.5s44.667 -87.833 78 -122.5s72.666 -61.5 117.999 -80.5s94.666 -28.5 147.999 -28.5z" />
    <glyph glyph-name="D" unicode="D" horiz-adv-x="740" 
d="M72 0l243 -0.000976562c78.667 0 147.167 16 205.5 48s103.5 76 135.5 132s48 120.333 48 193c0 73.333 -16 137.833 -48 193.5s-77 99.334 -135 131.001s-126.667 47.5 -206 47.5h-243v-745zM208 119.999l-0.000976562 505.001h110c50.667 0 94.5 -10.333 131.5 -31
s65.833 -49.834 86.5 -87.501s31 -82.167 31 -133.5s-10.167 -96 -30.5 -134s-49.166 -67.333 -86.499 -88s-81.333 -31 -132 -31h-110z" />
    <glyph glyph-name="E" unicode="E" horiz-adv-x="595" 
d="M72 0h495v120h-359v194h339v120h-339v191h359v120h-495v-745z" />
    <glyph glyph-name="F" unicode="F" horiz-adv-x="586" 
d="M72 0h136v299h316v120h-316v206h361v120h-497v-745z" />
    <glyph glyph-name="G" unicode="G" horiz-adv-x="808" 
d="M425 -12c44 0 86.665 7.49902 127.998 22.499s78.5 37.333 111.5 67s59.167 66.334 78.5 110.001s29 94.5 29 152.5v75h-350v-115h214v-3c0 -38 -9.66699 -70.833 -29 -98.5s-45 -49 -77 -64s-67 -22.5 -105 -22.5c-46.667 0 -88 11 -124 33s-64.167 52.5 -84.5 91.5
s-30.5 84.5 -30.5 136.5s10 97.5 30 136.5s47.667 69.333 83 91s76.333 32.5 123 32.5c47.333 0 87.666 -12 120.999 -36s57.333 -55.333 72 -94l121 58c-12.667 35.333 -33.667 67.833 -63 97.5s-65.166 53.5 -107.499 71.5s-90.166 27 -143.499 27
s-102.666 -9.5 -147.999 -28.5s-84.666 -45.667 -117.999 -80s-59.333 -75 -78 -122s-28 -98.167 -28 -153.5s9.5 -106.5 28.5 -153.5s45.5 -87.833 79.5 -122.5s73.667 -61.5 119 -80.5s94.666 -28.5 147.999 -28.5z" />
    <glyph glyph-name="H" unicode="H" horiz-adv-x="733" 
d="M72 0h136v300h317v-300h137v745h-137v-325h-317v325h-136v-745z" />
    <glyph glyph-name="I" unicode="I" horiz-adv-x="279" 
d="M72 0h136v745h-136v-745z" />
    <glyph glyph-name="J" unicode="J" horiz-adv-x="393" 
d="M39 0h43.001c49.333 0 92.166 9.66699 128.499 29s64.333 46.333 84 81s29.5 75 29.5 121v514h-137v-519c0 -30.667 -9.5 -55.167 -28.5 -73.5s-44.5 -27.5 -76.5 -27.5h-43v-125z" />
    <glyph glyph-name="K" unicode="K" horiz-adv-x="679" 
d="M72 0h136v209l100 119l200 -328h160l-267 439l258 306h-171l-280 -331v331h-136v-745z" />
    <glyph glyph-name="L" unicode="L" horiz-adv-x="543" 
d="M72 0h455v120h-319v625h-136v-745z" />
    <glyph glyph-name="M" unicode="M" horiz-adv-x="893" 
d="M72 0h136v516l231 -316h16l230 306v-506h137v745h-130l-242 -336l-248 336h-130v-745z" />
    <glyph glyph-name="N" unicode="N" horiz-adv-x="741" 
d="M72 0h136v487l354 -487h107v745h-136v-478l-355 478h-106v-745z" />
    <glyph glyph-name="O" unicode="O" horiz-adv-x="878" 
d="M439 -12c55.333 0 106.666 9.66699 153.999 29s88.666 46.333 123.999 81s62.833 75.5 82.5 122.5s29.5 97.833 29.5 152.5c0 55.333 -9.83301 106.333 -29.5 153s-47.167 87.167 -82.5 121.5s-76.666 61.166 -123.999 80.499s-98.666 29 -153.999 29
s-106.666 -9.66699 -153.999 -29s-88.5 -46.166 -123.5 -80.499s-62.333 -74.833 -82 -121.5s-29.5 -97.667 -29.5 -153c0 -54.667 9.83301 -105.5 29.5 -152.5s47.167 -87.833 82.5 -122.5s76.666 -61.667 123.999 -81s98.333 -29 153 -29zM439 112
c-48 0 -91.167 11.333 -129.5 34s-68.5 53.667 -90.5 93s-33 84 -33 134s11 94.5 33 133.5s52.167 69.833 90.5 92.5s81.5 34 129.5 34c48.667 0 92 -11.333 130 -34s68 -53.5 90 -92.5s33 -83.5 33 -133.5s-11 -94.667 -33 -134s-52 -70.333 -90 -93s-81.333 -34 -130 -34z
" />
    <glyph glyph-name="P" unicode="P" horiz-adv-x="648" 
d="M72 0l135.999 0.000976562v275h142c50.667 0 95.334 9.16699 134.001 27.5s69.167 45.166 91.5 80.499s33.5 77.666 33.5 126.999c0 50.667 -11 93.334 -33 128.001s-52.5 61.167 -91.5 79.5s-83.833 27.5 -134.5 27.5h-278v-745zM207.999 395.001v230h144
c36.667 0 66 -10.333 88 -31s33 -48.667 33 -84c0 -34.667 -11 -62.5 -33 -83.5s-51.333 -31.5 -88 -31.5h-144z" />
    <glyph glyph-name="Q" unicode="Q" horiz-adv-x="878" 
d="M439 -12c40 0 78.666 5.33301 115.999 16l56 -94h145l-89 147c49.333 34 88.666 78.333 117.999 133s44 115.667 44 183c0 55.333 -9.83301 106.333 -29.5 153s-47.167 87.167 -82.5 121.5s-76.666 61.166 -123.999 80.499s-98.666 29 -153.999 29
s-106.666 -9.66699 -153.999 -29s-88.5 -46.166 -123.5 -80.499s-62.333 -74.833 -82 -121.5s-29.5 -97.667 -29.5 -153c0 -54.667 9.83301 -105.5 29.5 -152.5s47.167 -87.833 82.5 -122.5s76.666 -61.667 123.999 -81s98.333 -29 153 -29zM438.999 112
c-48 0 -91.167 11.333 -129.5 34s-68.5 53.667 -90.5 93s-33 84 -33 134s11 94.5 33 133.5s52.167 69.833 90.5 92.5s81.5 34 129.5 34c48.667 0 92 -11.333 130 -34s68 -53.5 90 -92.5s33 -83.5 33 -133.5c0 -43.333 -8.16699 -82.5 -24.5 -117.5
s-38.833 -64.167 -67.5 -87.5l-79 130h-142l109 -182c-16 -2.66699 -32.333 -4 -49 -4z" />
    <glyph glyph-name="R" unicode="R" horiz-adv-x="661" 
d="M72 0l136.001 -0.000976562v275h128l154 -275h154l-171 299c41.333 17.333 74.166 44 98.499 80s36.5 79.667 36.5 131c0 50.667 -11 93.334 -33 128.001s-52.5 61.167 -91.5 79.5s-83.833 27.5 -134.5 27.5h-277v-745zM208.001 394.999v230h143
c36.667 0 66 -10.333 88 -31s33 -48.667 33 -84c0 -34.667 -11 -62.5 -33 -83.5s-51.333 -31.5 -88 -31.5h-143z" />
    <glyph glyph-name="S" unicode="S" horiz-adv-x="647" 
d="M338 -12c51.333 0 96.3359 9.33105 135.003 27.998s69 44.334 91 77.001s33 70.334 33 113.001c0 99.333 -59.333 168 -178 206l-137 43c-26.667 8.66699 -46.834 20.834 -60.501 36.501s-20.5 33.834 -20.5 54.501c0 27.333 10.5 49.5 31.5 66.5s48.833 25.5 83.5 25.5
c38.667 0 72.667 -10.167 102 -30.5s51.333 -49.166 66 -86.499l112 50c-20 56 -54.833 101 -104.5 135s-108.167 51 -175.5 51c-48.667 0 -91.834 -9.16699 -129.501 -27.5s-67 -43.833 -88 -76.5s-31.5 -70.334 -31.5 -113.001c0 -48.667 14.667 -90.834 44 -126.501
s73 -62.834 131 -81.501l143 -46c26 -8.66699 45.5 -20 58.5 -34s19.5 -32 19.5 -54c0 -27.333 -10.833 -49.333 -32.5 -66s-50.167 -25 -85.5 -25c-42.667 0 -81 12.167 -115 36.5s-60 57.833 -78 100.5l-113 -49c13.333 -41.333 34.5 -77.5 63.5 -108.5
s63.667 -55.167 104 -72.5s84.166 -26 131.499 -26z" />
    <glyph glyph-name="T" unicode="T" horiz-adv-x="542" 
d="M204 0h137v625h190v120h-520v-120h193v-625z" />
    <glyph glyph-name="U" unicode="U" horiz-adv-x="718" 
d="M359 -12c57.333 0 108.171 12 152.504 36s79.166 57 104.499 99s38 89.667 38 143v479h-136v-472c0 -31.333 -6.83301 -59.166 -20.5 -83.499s-32.334 -43.333 -56.001 -57s-51.167 -20.5 -82.5 -20.5c-30.667 0 -58 6.83301 -82 20.5s-42.833 32.667 -56.5 57
s-20.5 52.166 -20.5 83.499v472h-136v-479c0 -53.333 12.667 -101 38 -143s60.166 -75 104.499 -99s95.166 -36 152.499 -36z" />
    <glyph glyph-name="V" unicode="V" horiz-adv-x="697" 
d="M271 0h156l259 745h-148l-189 -573l-190 573h-148z" />
    <glyph glyph-name="W" unicode="W" horiz-adv-x="1020" 
d="M211 0h156l143 536l143 -536h156l200 745h-146l-138 -560l-144 560h-141l-145 -560l-138 560h-146z" />
    <glyph glyph-name="X" unicode="X" horiz-adv-x="661" 
d="M11 0h156l164 252l163 -252h156l-243 375l241 370h-156l-161 -248l-162 248h-156l242 -370z" />
    <glyph glyph-name="Y" unicode="Y" horiz-adv-x="660" 
d="M262 0h137v331l250 414h-155l-164 -277l-164 277h-155l251 -415v-330z" />
    <glyph glyph-name="Z" unicode="Z" horiz-adv-x="571" 
d="M14 0h544v120h-370l360 518v107h-513v-120h340l-361 -518v-107z" />
    <glyph glyph-name="bracketleft" unicode="[" horiz-adv-x="416" 
d="M105 -170h260v115h-128v685h128v115h-260v-915z" />
    <glyph glyph-name="backslash" unicode="\" horiz-adv-x="506" 
d="M348 -40h143l-332 825h-144z" />
    <glyph glyph-name="bracketright" unicode="]" horiz-adv-x="416" 
d="M51 -170h260v915h-260v-115h128v-685h-128v-115z" />
    <glyph glyph-name="asciicircum" unicode="^" horiz-adv-x="604" 
d="M69 420h145l88 168l88 -168h145l-170 325h-125z" />
    <glyph glyph-name="underscore" unicode="_" horiz-adv-x="663" 
d="M88 -115h487v115h-487v-115z" />
    <glyph glyph-name="grave" unicode="`" horiz-adv-x="455" 
d="M218 640h115l-63 144h-147z" />
    <glyph glyph-name="a" unicode="a" horiz-adv-x="580" 
d="M226 -12c70.667 0 127.335 23.334 170.002 70.001v-58h124v362c0 38 -9.66699 71.667 -29 101s-45.833 52.166 -79.5 68.499s-72.834 24.5 -117.501 24.5c-54.667 0 -103.334 -13 -146.001 -39s-72 -60.333 -88 -103l107 -52c10 24.667 25.667 44.5 47 59.5
s46.333 22.5 75 22.5c30 0 54.167 -7.83301 72.5 -23.5s27.5 -35.167 27.5 -58.5v-18l-162 -26c-64 -10.667 -111.333 -31 -142 -61s-46 -67.667 -46 -113c0 -48 17 -86 51 -114s79.333 -42 136 -42zM175.001 149.001c0 38 25.667 62 77 72l137 23v-22
c0 -37.333 -12.833 -69 -38.5 -95s-59.167 -39 -100.5 -39c-22 0 -40 5.5 -54 16.5s-21 25.833 -21 44.5z" />
    <glyph glyph-name="b" unicode="b" horiz-adv-x="672" 
d="M358 -12c52.667 0 99.6689 12.5 141.002 37.5s74 59 98 102s36 91.167 36 144.5s-12 101.5 -36 144.5s-56.667 77 -98 102s-88 37.5 -140 37.5c-70.667 0 -126.334 -22.333 -167.001 -67v268h-131v-757h123v61c20 -23.333 45.167 -41.333 75.5 -54s63.166 -19 98.499 -19
zM343.002 108c-28.667 0 -54.5 7 -77.5 21s-41 33.333 -54 58s-19.5 53 -19.5 85s6.5 60.333 19.5 85s31 44 54 58s48.833 21 77.5 21c30 0 56.5 -7.16699 79.5 -21.5s41.167 -33.833 54.5 -58.5s20 -52.667 20 -84s-6.66699 -59.5 -20 -84.5s-31.5 -44.5 -54.5 -58.5
s-49.5 -21 -79.5 -21z" />
    <glyph glyph-name="c" unicode="c" horiz-adv-x="608" 
d="M323 -12c39.333 0 75.667 6.83496 109 20.502s62 32.667 86 57s41.333 51.833 52 82.5l-115 52c-10.667 -28.667 -27.5 -51.167 -50.5 -67.5s-50.167 -24.5 -81.5 -24.5c-28.667 0 -54.167 7 -76.5 21s-39.833 33.5 -52.5 58.5s-19 53.167 -19 84.5
c0 32 6.33301 60.333 19 85s30.167 44 52.5 58s47.833 21 76.5 21c31.333 0 58.5 -8.33301 81.5 -25s39.833 -38.667 50.5 -66l115 50c-11.333 32 -29 60.167 -53 84.5s-52.667 43.166 -86 56.499s-69.333 20 -108 20c-54 0 -102.5 -12.333 -145.5 -37
s-76.833 -58.334 -101.5 -101.001s-37 -91 -37 -145s12.333 -102.5 37 -145.5s58.5 -77 101.5 -102s91.5 -37.5 145.5 -37.5z" />
    <glyph glyph-name="d" unicode="d" horiz-adv-x="672" 
d="M314 -12c35.333 0 68.001 6.16797 98.001 18.501s55 30.166 75 53.499v-60h124v757h-131v-268c-40.667 44.667 -96.334 67 -167.001 67c-51.333 0 -97.833 -12.5 -139.5 -37.5s-74.5 -59 -98.5 -102s-36 -91.167 -36 -144.5s12 -101.5 36 -144.5s56.667 -77 98 -102
s88.333 -37.5 141 -37.5zM328.001 108.001c-29.333 0 -55.666 7 -78.999 21s-41.5 33.5 -54.5 58.5s-19.5 53.167 -19.5 84.5s6.5 59.333 19.5 84s31.167 44.167 54.5 58.5s49.666 21.5 78.999 21.5s55.5 -7 78.5 -21s41 -33.333 54 -58s19.5 -53 19.5 -85
s-6.5 -60.333 -19.5 -85s-31 -44 -54 -58s-49.167 -21 -78.5 -21z" />
    <glyph glyph-name="e" unicode="e" horiz-adv-x="612" 
d="M319 -12c55.333 0 103.832 12.499 145.499 37.499s70.834 56.833 87.501 95.5l-106 52c-12 -20.667 -28.5 -37.5 -49.5 -50.5s-46.5 -19.5 -76.5 -19.5c-39.333 0 -72.333 12 -99 36s-42 56 -46 96h392c2.66699 7.33301 4.5 15.833 5.5 25.5s1.5 19.5 1.5 29.5
c0 48.667 -10.333 93 -31 133s-50.667 72.167 -90 96.5s-87.333 36.5 -144 36.5c-50.667 0 -96.5 -12.333 -137.5 -37s-73.333 -58.167 -97 -100.5s-35.5 -90.833 -35.5 -145.5c0 -52.667 11.667 -100.667 35 -144s56 -77.666 98 -102.999s91 -38 147 -38zM308.999 447.999
c34.667 0 63.499 -10.5 86.499 -31.5s35.833 -48.167 38.5 -81.5h-256c7.33301 36 22.833 63.833 46.5 83.5s51.834 29.5 84.501 29.5z" />
    <glyph glyph-name="f" unicode="f" horiz-adv-x="406" 
d="M124 0h131v427h121v117h-121v18c0 27.333 8.16699 47.5 24.5 60.5s38.833 19.5 67.5 19.5c10.667 0 22 -1 34 -3v113c-15.333 3.33301 -32.333 5 -51 5c-62.667 0 -112.667 -17 -150 -51s-56 -82 -56 -144v-18h-96v-117h96v-427z" />
    <glyph glyph-name="g" unicode="g" horiz-adv-x="652" 
d="M325 -220c52 0 98.002 10.6699 138.002 32.0029s71.333 50.666 94 87.999s34 79.666 34 126.999v517h-124v-63c-41.333 50 -97 75 -167 75c-50 0 -94.667 -11.5 -134 -34.5s-70.333 -54.5 -93 -94.5s-34 -85.667 -34 -137c0 -50.667 11.333 -96.334 34 -137.001
s54 -72.667 94 -96s85.333 -35 136 -35c66 0 118.333 21.333 157 64v-59c0 -40 -12.667 -71.167 -38 -93.5s-57.666 -33.5 -96.999 -33.5c-34.667 0 -63.834 7.83301 -87.501 23.5s-39.5 36.167 -47.5 61.5l-122 -46c17.333 -48 49.166 -86.5 95.499 -115.5
s100.166 -43.5 161.499 -43.5zM319.002 143.003c-42 0 -76.5 13.834 -103.5 41.501s-40.5 62.5 -40.5 104.5c0 28 6.16699 53.167 18.5 75.5s29.5 39.833 51.5 52.5s46.667 19 74 19c41.333 0 75.166 -13.833 101.499 -41.5s39.5 -62.834 39.5 -105.501
s-13.167 -77.667 -39.5 -105s-60.166 -41 -101.499 -41z" />
    <glyph glyph-name="h" unicode="h" 
d="M61 0l130.998 0.000976562v319c0 35.333 10.333 63.666 31 84.999s47 32 79 32s58.333 -10.5 79 -31.5s31 -49.5 31 -85.5v-319h131v350c0 40.667 -8.66699 76.5 -26 107.5s-41.5 55.167 -72.5 72.5s-66.5 26 -106.5 26c-31.333 0 -59.666 -5.5 -84.999 -16.5
s-45.666 -27.5 -60.999 -49.5v267h-131v-757z" />
    <glyph glyph-name="i" unicode="i" horiz-adv-x="252" 
d="M61 605h131v140h-131v-140zM61 0h131v544h-131v-544z" />
    <glyph glyph-name="j" unicode="j" horiz-adv-x="252" 
d="M61 605h131v140h-131v-140zM-14 -221c63.333 0 113.5 16.667 150.5 50s55.5 81 55.5 143v572h-131v-572c0 -26 -7.83301 -45.5 -23.5 -58.5s-37.5 -19.5 -65.5 -19.5c-12.667 0 -24.667 1 -36 3v-114c6 -1.33301 13.667 -2.33301 23 -3s18.333 -1 27 -1z" />
    <glyph glyph-name="k" unicode="k" horiz-adv-x="577" 
d="M61 0h131v166l70 76l153 -242h150l-205 325l201 219h-163l-206 -216v429h-131v-757z" />
    <glyph glyph-name="l" unicode="l" horiz-adv-x="252" 
d="M61 0h131v757h-131v-757z" />
    <glyph glyph-name="m" unicode="m" horiz-adv-x="924" 
d="M61 0l131.003 0.00195312v319c0 35.333 9.66699 63.666 29 84.999s44.666 32 75.999 32c32 0 57.5 -10.5 76.5 -31.5s28.5 -49.5 28.5 -85.5v-319h131v319c0 35.333 9.66699 63.666 29 84.999s44.666 32 75.999 32c32 0 57.5 -10.5 76.5 -31.5s28.5 -49.5 28.5 -85.5
v-319h131v350c0 40.667 -8.83301 76.5 -26.5 107.5s-41.5 55.167 -71.5 72.5s-64.333 26 -103 26c-36 0 -68.5 -7.33301 -97.5 -22s-52.833 -36.667 -71.5 -66c-16 26.667 -38.833 48 -68.5 64s-62.834 24 -99.501 24c-34 0 -64.333 -6.66699 -91 -20s-47 -33.333 -61 -60
v68h-123v-544z" />
    <glyph glyph-name="n" unicode="n" 
d="M61 0l131 0.000976562v319c0 35.333 10.167 63.666 30.5 84.999s46.833 32 79.5 32s59.167 -10.5 79.5 -31.5s30.5 -49.5 30.5 -85.5v-319h131v350c0 40.667 -8.66699 76.5 -26 107.5s-41.5 55.167 -72.5 72.5s-66.5 26 -106.5 26c-34 0 -64.5 -6.66699 -91.5 -20
s-47.833 -33 -62.5 -59v67h-123v-544z" />
    <glyph glyph-name="o" unicode="o" horiz-adv-x="652" 
d="M327 -12c52.667 0 100.665 12.1689 143.998 36.502s78 58 104 101s39 91.833 39 146.5s-12.833 103.334 -38.5 146.001s-60.167 76.334 -103.5 101.001s-91.666 37 -144.999 37c-54 0 -102.667 -12.333 -146 -37s-77.833 -58.334 -103.5 -101.001
s-38.5 -91.334 -38.5 -146.001s12.833 -103.334 38.5 -146.001s60.334 -76.334 104.001 -101.001s92.167 -37 145.5 -37zM326.998 108.002c-29.333 0 -55.5 7 -78.5 21s-41 33.5 -54 58.5s-19.5 53.167 -19.5 84.5s6.5 59.333 19.5 84s31 44.167 54 58.5
s49.167 21.5 78.5 21.5s55.166 -7.16699 77.499 -21.5s40 -33.833 53 -58.5s19.5 -52.667 19.5 -84s-6.5 -59.5 -19.5 -84.5s-30.667 -44.5 -53 -58.5s-48.166 -21 -77.499 -21z" />
    <glyph glyph-name="p" unicode="p" horiz-adv-x="672" 
d="M61 -200h131v252c20 -20.667 44.333 -36.5 73 -47.5s59.667 -16.5 93 -16.5c52.667 0 99.667 12.5 141 37.5s74 59 98 102s36 91.167 36 144.5s-12 101.5 -36 144.5s-56.667 77 -98 102s-88 37.5 -140 37.5c-37.333 0 -71 -6.66699 -101 -20s-54.667 -32 -74 -56v64h-123
v-744zM343 108c-28.667 0 -54.5 7 -77.5 21s-41 33.333 -54 58s-19.5 53 -19.5 85s6.5 60.333 19.5 85s31 44 54 58s48.833 21 77.5 21c30 0 56.5 -7.16699 79.5 -21.5s41.167 -33.833 54.5 -58.5s20 -52.667 20 -84s-6.66699 -59.5 -20 -84.5s-31.5 -44.5 -54.5 -58.5
s-49.5 -21 -79.5 -21z" />
    <glyph glyph-name="q" unicode="q" horiz-adv-x="672" 
d="M480 -200h131v744h-124v-63c-19.333 24 -43.833 42.5 -73.5 55.5s-63.167 19.5 -100.5 19.5c-52 0 -98.667 -12.5 -140 -37.5s-74 -59 -98 -102s-36 -91.167 -36 -144.5s12 -101.5 36 -144.5s56.667 -77 98 -102s88.333 -37.5 141 -37.5c33.333 0 64.333 5.5 93 16.5
s53 26.833 73 47.5v-252zM328 108c-29.333 0 -55.666 7 -78.999 21s-41.5 33.5 -54.5 58.5s-19.5 53.167 -19.5 84.5s6.5 59.333 19.5 84s31.167 44.167 54.5 58.5s49.666 21.5 78.999 21.5s55.5 -7 78.5 -21s41 -33.333 54 -58s19.5 -53 19.5 -85s-6.5 -60.333 -19.5 -85
s-31 -44 -54 -58s-49.167 -21 -78.5 -21z" />
    <glyph glyph-name="r" unicode="r" horiz-adv-x="374" 
d="M61 0h130.999v303c0 41.333 11.5 73.5 34.5 96.5s52.833 34.5 89.5 34.5h47v116h-32c-33.333 0 -62.666 -6 -87.999 -18s-45 -33.667 -59 -65v77h-123v-544z" />
    <glyph glyph-name="s" unicode="s" horiz-adv-x="514" 
d="M268 -12c41.333 0 77.334 6.99902 108.001 20.999s54.667 33.5 72 58.5s26 53.833 26 86.5c0 38 -12 70.667 -36 98s-58.667 47.333 -104 60l-87 26c-18.667 5.33301 -34 12.333 -46 21s-18 20.667 -18 36c0 16 6.33301 29 19 39s30 15 52 15
c27.333 0 52.166 -7.33301 74.499 -22s37.833 -34.334 46.5 -59.001l100 47c-16.667 44 -44.667 78.5 -84 103.5s-84.666 37.5 -135.999 37.5c-39.333 0 -74.166 -7 -104.499 -21s-54 -33.5 -71 -58.5s-25.5 -54.167 -25.5 -87.5c0 -37.333 11.833 -69.666 35.5 -96.999
s58.5 -47.666 104.5 -60.999l89 -25c17.333 -4.66699 32.166 -11.5 44.499 -20.5s18.5 -21.167 18.5 -36.5c0 -18 -7.16699 -32.167 -21.5 -42.5s-33.166 -15.5 -56.499 -15.5c-30.667 0 -58.334 8.66699 -83.001 26s-44.334 41.333 -59.001 72l-98 -47
c16 -46.667 45.5 -84 88.5 -112s93.5 -42 151.5 -42z" />
    <glyph glyph-name="t" unicode="t" horiz-adv-x="413" 
d="M309 -6c22 0 43.6689 1.66699 65.002 5v113c-12.667 -2 -24.334 -3 -35.001 -3c-32 0 -55.333 7.33301 -70 22s-22 35.667 -22 63v233h125v117h-125v124h-131v-42c0 -26.667 -7.33301 -47 -22 -61s-35.334 -21 -62.001 -21h-10v-117h94v-240
c0 -60.667 16.833 -108 50.5 -142s81.167 -51 142.5 -51z" />
    <glyph glyph-name="u" unicode="u" 
d="M255 -12c34 0 64.168 6.49902 90.501 19.499s47.166 32.167 62.499 57.5v-65h124v544h-131v-319c0 -36 -10.333 -64.5 -31 -85.5s-47 -31.5 -79 -31.5c-32.667 0 -59.167 10.333 -79.5 31s-30.5 48.334 -30.5 83.001v322h-131v-333c0 -66.667 18.167 -120.5 54.5 -161.5
s86.5 -61.5 150.5 -61.5z" />
    <glyph glyph-name="v" unicode="v" horiz-adv-x="566" 
d="M225 0h116l214 544h-143l-129 -355l-129 355h-143z" />
    <glyph glyph-name="w" unicode="w" horiz-adv-x="883" 
d="M198 0h116l128 367l126 -367h117l187 544h-138l-114 -342l-120 342h-116l-121 -343l-114 343h-138z" />
    <glyph glyph-name="x" unicode="x" horiz-adv-x="558" 
d="M12 0h154l114 169l113 -169h153l-189 273l190 271h-153l-114 -169l-115 169h-154l191 -271z" />
    <glyph glyph-name="y" unicode="y" horiz-adv-x="586" 
d="M127 -221c51.333 0 94.168 14.498 128.501 43.498s61.833 69.833 82.5 122.5l237 599h-142l-140 -375l-141 375h-141l215 -544l-12 -29c-10.667 -22.667 -22.834 -41 -36.501 -55s-35.5 -21 -65.5 -21c-10.667 0 -22 0.833008 -34 2.5s-22.667 3.83398 -32 6.50098v-110
c11.333 -5.33301 24 -9.16602 38 -11.499s28.333 -3.5 43 -3.5z" />
    <glyph glyph-name="z" unicode="z" horiz-adv-x="481" 
d="M14 0h454v116h-274l272 321v107h-438v-117h263l-277 -321v-106z" />
    <glyph glyph-name="braceleft" unicode="{" horiz-adv-x="398" 
d="M301 -170l46 0.000976562v115h-46c-14 0 -25 4.5 -33 13.5s-11.667 20.833 -11 35.5v170c0 26 -5.16699 49.5 -15.5 70.5s-25.166 37.5 -44.499 49.5c19.333 13.333 34.166 31 44.499 53s15.5 46.333 15.5 73v172c-0.666992 15.333 3 27.166 11 35.499s19 12.5 33 12.5
h46v115h-46c-56 0 -99.5 -14.167 -130.5 -42.5s-46.5 -67.5 -46.5 -117.5v-186c0 -18.667 -4.33301 -33.167 -13 -43.5s-21.667 -15.5 -39 -15.5h-31v-115h31c17.333 0 30.333 -5.16699 39 -15.5s13 -24.833 13 -43.5v-175c0 -50 15.5 -89.333 46.5 -118s74.5 -43 130.5 -43
z" />
    <glyph glyph-name="bar" unicode="|" horiz-adv-x="395" 
d="M131 -190h133v1035h-133v-1035z" />
    <glyph glyph-name="braceright" unicode="}" horiz-adv-x="398" 
d="M51 -170l46.0029 -0.000976562c56 0 99.5 14.333 130.5 43s46.5 68 46.5 118v175c0 18.667 4.5 33.167 13.5 43.5s21.833 15.5 38.5 15.5h31v115h-31c-16.667 0 -29.5 5.16699 -38.5 15.5s-13.5 24.833 -13.5 43.5v186c0 50 -15.5 89.167 -46.5 117.5
s-74.5 42.5 -130.5 42.5h-46v-115h46c14 0 25 -4.16699 33 -12.5s12 -20.166 12 -35.499v-172c-0.666992 -26.667 4.16602 -51 14.499 -73s25.166 -39.667 44.499 -53c-18.667 -12 -33.334 -28.5 -44.001 -49.5s-15.667 -44.5 -15 -70.5v-170c0 -14.667 -4 -26.5 -12 -35.5
s-19 -13.5 -33 -13.5h-46v-115z" />
    <glyph glyph-name="asciitilde" unicode="~" horiz-adv-x="695" 
d="M444 190c89.333 0 138 57.002 146 171.002h-106c-4 -22 -10.667 -37.667 -20 -47s-21.333 -14 -36 -14c-14 0 -26.667 3.33301 -38 10s-23.166 14.167 -35.499 22.5s-26.5 15.833 -42.5 22.5s-35.333 10 -58 10c-44.667 0 -79.834 -14.5 -105.501 -43.5
s-40.167 -71.167 -43.5 -126.5h107c5.33301 40.667 24.333 61 57 61c14 0 26.833 -3.33301 38.5 -10s23.667 -14.334 36 -23.001s26.5 -16.334 42.5 -23.001s35.333 -10 58 -10z" />
    <glyph glyph-name="uni00A0" unicode="&#xa0;" horiz-adv-x="178" 
 />
    <glyph glyph-name="exclamdown" unicode="&#xa1;" horiz-adv-x="371" 
d="M119 404h133v140h-133v-140zM119 -201h133l-9 519h-115z" />
    <glyph glyph-name="cent" unicode="&#xa2;" horiz-adv-x="608" 
d="M278 0h85v92c50 6.66699 93.5 24.334 130.5 53.001s62.5 63.334 76.5 104.001l-115 52c-17.333 -45.333 -48 -74.333 -92 -87v318c44 -12.667 74.667 -41.334 92 -86.001l115 51c-15.333 42 -41.5 77.167 -78.5 105.5s-79.833 45.5 -128.5 51.5v91h-85v-91
c-46.667 -6.66699 -88 -22.834 -124 -48.501s-64.167 -58.5 -84.5 -98.5s-30.5 -84.333 -30.5 -133s10.167 -93.167 30.5 -133.5s48.5 -73.5 84.5 -99.5s77.333 -42.333 124 -49v-92zM175 373c0 39.333 9.5 73 28.5 101s43.833 46.667 74.5 56v-314
c-30.667 10 -55.5 29 -74.5 57s-28.5 61.333 -28.5 100z" />
    <glyph glyph-name="sterling" unicode="&#xa3;" horiz-adv-x="663" 
d="M36 0l559.001 -0.000976562v115h-323v222h184v84h-184v93c0 38.667 10 68.5 30 89.5s48.333 31.5 85 31.5c31.333 0 58.166 -8.5 80.499 -25.5s35.833 -42.167 40.5 -75.5l120 37c-4.66699 38 -18.667 70.833 -42 98.5s-52.333 49.167 -87 64.5s-72 23 -112 23
c-52 0 -96.833 -10.167 -134.5 -30.5s-66.5 -48.666 -86.5 -84.999s-30 -78.833 -30 -127.5v-93h-100v-84h100v-222h-100v-115z" />
    <glyph glyph-name="currency" unicode="&#xa4;" horiz-adv-x="594" 
d="M115 11l78.999 78.001c32 -18.667 66.333 -28 103 -28c38 0 72.667 9.33301 104 28l79 -78l76 76l-79 78c18.667 31.333 28 66 28 104c0 37.333 -9.33301 72 -28 104l79 79l-76 76l-79 -79c-32 18.667 -66.667 28 -104 28s-71.666 -9.33301 -102.999 -28l-79 79l-76 -76
l79 -79c-19.333 -31.333 -29 -66 -29 -104c0 -38.667 9.66699 -73.334 29 -104.001l-79 -78zM296.999 177.001c-25.333 0 -47 9 -65 27s-27 39.667 -27 65s9 47 27 65s39.667 27 65 27s47 -9 65 -27s27 -39.667 27 -65s-9 -47 -27 -65s-39.667 -27 -65 -27z" />
    <glyph glyph-name="yen" unicode="&#xa5;" horiz-adv-x="660" 
d="M120 145h142v-145h137v145h141v84h-141v60h141v83h-116l225 373h-155l-164 -277l-164 277h-155l226 -373h-117v-83h142v-60h-142v-84z" />
    <glyph glyph-name="brokenbar" unicode="&#xa6;" horiz-adv-x="395" 
d="M131 428h133v417h-133v-417zM131 -190h133v418h-133v-418z" />
    <glyph glyph-name="section" unicode="&#xa7;" horiz-adv-x="534" 
d="M279 -97c42.667 0 80.1689 7.33496 112.502 22.002s57.5 35 75.5 61s27 56 27 90c0 52.667 -21.333 95 -64 127c20 15.333 35.667 34 47 56s17 46.333 17 73c0 40 -12.667 74.333 -38 103s-61.666 50 -108.999 64l-93 27c-18.667 5.33301 -34.834 12.666 -48.501 21.999
s-20.5 23 -20.5 41s7 32.5 21 43.5s33.333 16.5 58 16.5c29.333 0 55.666 -7.83301 78.999 -23.5s40.333 -36.5 51 -62.5l100 47c-17.333 47.333 -46.833 83.666 -88.5 108.999s-88.5 38 -140.5 38c-40.667 0 -76.834 -7.33301 -108.501 -22s-56.5 -35 -74.5 -61
s-27 -56.333 -27 -91c0 -52.667 21.333 -94.667 64 -126c-20 -15.333 -35.667 -34 -47 -56s-17 -46.667 -17 -74c0 -38.667 12.333 -72.5 37 -101.5s61.334 -50.167 110.001 -63.5l94 -27c19.333 -4.66699 35.666 -12 48.999 -22s20 -23.667 20 -41
c0 -20 -8 -35.667 -24 -47s-36.667 -17 -62 -17c-32.667 0 -62.334 9 -89.001 27s-47.667 43.333 -63 76l-99 -47c17.333 -49.333 48.333 -88.5 93 -117.5s97.334 -43.5 158.001 -43.5zM267.002 266.002c-24.667 7.33301 -44.5 17.5 -59.5 30.5s-22.5 30.833 -22.5 53.5
c0 28.667 10 50 30 64l67 -19c26.667 -7.33301 47.167 -18 61.5 -32s21.5 -31.667 21.5 -53c0 -28 -9.66699 -49.333 -29 -64z" />
    <glyph glyph-name="dieresis" unicode="&#xa8;" horiz-adv-x="585" 
d="M196 645c19.333 0 36.166 7 50.499 21s21.5 31.333 21.5 52c0 20 -7.16699 37 -21.5 51s-31.166 21 -50.499 21c-20.667 0 -38 -7 -52 -21s-21 -31 -21 -51s7 -37.167 21 -51.5s31.333 -21.5 52 -21.5zM391 645c19.333 0 36.166 7 50.499 21s21.5 31.333 21.5 52
c0 20 -7.16699 37 -21.5 51s-31.166 21 -50.499 21c-20.667 0 -38 -7 -52 -21s-21 -31 -21 -51s7 -37.167 21 -51.5s31.333 -21.5 52 -21.5z" />
    <glyph glyph-name="copyright" unicode="&#xa9;" horiz-adv-x="938" 
d="M470 -12c53.333 0 103.166 10 149.499 30s87 47.667 122 83s62.5 76.333 82.5 123s30 96.667 30 150s-10 103 -30 149s-47.667 86.667 -83 122s-76.166 62.833 -122.499 82.5s-95.833 29.5 -148.5 29.5c-54 0 -104.333 -9.83301 -151 -29.5s-87.667 -47.167 -123 -82.5
s-62.833 -76 -82.5 -122s-29.5 -95.667 -29.5 -149s10 -103.333 30 -150s47.667 -87.667 83 -123s76.333 -63 123 -83s96.667 -30 150 -30zM470 81c-40.667 0 -78.834 7.5 -114.501 22.5s-66.834 35.833 -93.501 62.5s-47.5 57.834 -62.5 93.501s-22.5 73.834 -22.5 114.501
c0 40 7.5 77.667 22.5 113s35.833 66.333 62.5 93s57.834 47.5 93.501 62.5s73.834 22.5 114.501 22.5c40 0 77.667 -7.5 113 -22.5s66.333 -35.833 93 -62.5s47.5 -57.5 62.5 -92.5s22.5 -72.833 22.5 -113.5s-7.5 -78.834 -22.5 -114.501s-35.833 -66.834 -62.5 -93.501
s-57.667 -47.5 -93 -62.5s-73 -22.5 -113 -22.5zM474 163c44.667 0 82.835 10.6689 114.502 32.002s52.834 47.666 63.501 78.999l-90 35c-6.66699 -16 -17.667 -29.333 -33 -40s-33.666 -16 -54.999 -16c-32.667 0 -58.834 11.167 -78.501 33.5s-29.5 51.166 -29.5 86.499
s9.83301 64.166 29.5 86.499s45.834 33.5 78.501 33.5c22 0 40.5 -5.66699 55.5 -17s25.833 -24.666 32.5 -39.999l90 35c-10.667 32 -31.834 58.5 -63.501 79.5s-69.834 31.5 -114.501 31.5c-39.333 0 -74.833 -9 -106.5 -27s-56.5 -42.667 -74.5 -74s-27 -67.333 -27 -108
c0 -40 9.16699 -75.833 27.5 -107.5s43.166 -56.667 74.499 -75s66.666 -27.5 105.999 -27.5z" />
    <glyph glyph-name="ordfeminine" unicode="&#xaa;" horiz-adv-x="445" 
d="M173 355c46.667 0 84.334 14.334 113.001 43.001v-34h99v252c0 41.333 -15.333 74.833 -46 100.5s-70 38.5 -118 38.5c-39.333 0 -74.5 -9.33301 -105.5 -28s-52.167 -44 -63.5 -76l85 -40c6 16 16 29.333 30 40s30.667 16 50 16s34.666 -5 45.999 -15s17 -22 17 -36v-10
l-106 -17c-90 -14.667 -135 -55.667 -135 -123c0 -34.667 12.167 -61.834 36.5 -81.501s56.833 -29.5 97.5 -29.5zM148 470.001c0 12.667 3.83008 22.166 11.4971 28.499s18.834 10.833 33.501 13.5l87 16v-11c0 -23.333 -8.16699 -43.166 -24.5 -59.499
s-37.166 -24.5 -62.499 -24.5c-13.333 0 -24.166 3.33301 -32.499 10s-12.5 15.667 -12.5 27z" />
    <glyph glyph-name="guillemotleft" unicode="&#xab;" horiz-adv-x="674" 
d="M198 72h145l-152 197l152 198h-145l-153 -198zM483 72h145l-152 197l152 198h-145l-153 -198z" />
    <glyph glyph-name="logicalnot" unicode="&#xac;" horiz-adv-x="726" 
d="M483 40h112v267h-500v-113h388v-154z" />
    <glyph glyph-name="uni00AD" unicode="&#xad;" horiz-adv-x="600" 
d="M88 214h425v115h-425v-115z" />
    <glyph glyph-name="registered" unicode="&#xae;" horiz-adv-x="680" 
d="M341 271c47.333 0 90.333 11.667 129 35s69.334 54.5 92.001 93.5s34 81.833 34 128.5c0 48 -11.5 91.333 -34.5 130s-53.833 69.334 -92.5 92.001s-81.334 34 -128.001 34c-47.333 0 -90.5 -11.333 -129.5 -34s-70 -53.334 -93 -92.001s-34.5 -82 -34.5 -130
c0 -46.667 11.5 -89.5 34.5 -128.5s54 -70.167 93 -93.5s82.167 -35 129.5 -35zM232 393l74 0.000976562v92h38l51 -92h74c-16.667 -16 -36 -28.5 -58 -37.5s-45.333 -13.5 -70 -13.5c-34.667 0 -66.167 8.33301 -94.5 25s-50.833 39 -67.5 67s-25 59.333 -25 94
s8.33301 66 25 94s39.167 50.5 67.5 67.5s59.833 25.5 94.5 25.5c34 0 65 -8.5 93 -25.5s50.333 -39.5 67 -67.5s25 -59.333 25 -94c0 -26 -4.83301 -50.333 -14.5 -73s-22.834 -42.334 -39.501 -59.001l-59 103c12 7.33301 21.667 17 29 29s11 27 11 45
c0 31.333 -9.66699 54.333 -29 69s-43.666 22 -72.999 22h-119v-271zM306 547.001l0.000976562 53.999h47c18 0 27 -9 27 -27c0 -7.33301 -2.33301 -13.666 -7 -18.999s-11.334 -8 -20.001 -8h-47z" />
    <glyph glyph-name="macron" unicode="&#xaf;" horiz-adv-x="526" 
d="M123 659h281v97h-281v-97z" />
    <glyph glyph-name="degree" unicode="&#xb0;" horiz-adv-x="535" 
d="M267 423c31.333 0 59.666 7.5 84.999 22.5s45.5 35.167 60.5 60.5s22.5 53.333 22.5 84c0 31.333 -7.5 59.5 -22.5 84.5s-35.167 45 -60.5 60s-53.666 22.5 -84.999 22.5c-30.667 0 -58.667 -7.5 -84 -22.5s-45.5 -35 -60.5 -60s-22.5 -53.167 -22.5 -84.5
c0 -30.667 7.5 -58.667 22.5 -84s35.167 -45.5 60.5 -60.5s53.333 -22.5 84 -22.5zM267 513c-20.667 0 -38.5 7.33301 -53.5 22s-22.5 33 -22.5 55s7.5 40.333 22.5 55s32.833 22 53.5 22c21.333 0 39.5 -7.33301 54.5 -22s22.5 -33 22.5 -55s-7.5 -40.333 -22.5 -55
s-33.167 -22 -54.5 -22z" />
    <glyph glyph-name="plusminus" unicode="&#xb1;" horiz-adv-x="660" 
d="M274 183h113v146h193v113h-193v146h-113v-146h-194v-113h194v-146zM80 0h500v113h-500v-113z" />
    <glyph glyph-name="uni00B2" unicode="&#xb2;" horiz-adv-x="410" 
d="M23 224l354.999 0.000976562v92h-216l119 123c28.667 29.333 51 57 67 83s24 54.333 24 85c0 43.333 -16 78.666 -48 105.999s-74 41 -126 41c-27.333 0 -53.5 -5.33301 -78.5 -16s-46.333 -26 -64 -46s-29.5 -44 -35.5 -72l95 -30c6.66699 22 17.5 38.5 32.5 49.5
s31.833 16.5 50.5 16.5s34.167 -5.5 46.5 -16.5s18.5 -26.167 18.5 -45.5c0 -11.333 -3.16699 -23 -9.5 -35s-16.666 -26.333 -30.999 -43s-33.833 -37.667 -58.5 -63l-141 -145v-84z" />
    <glyph glyph-name="uni00B3" unicode="&#xb3;" horiz-adv-x="425" 
d="M202 215c36.667 0 69.501 8 98.501 24s51.833 37.5 68.5 64.5s25 57.833 25 92.5c0 40 -11 73.5 -33 100.5s-51.667 43.5 -89 49.5l101 115v84h-324v-90h202l-133 -146l25 -52c18.667 8.66699 38.334 13 59.001 13c26 0 46.333 -7 61 -21s22 -32.667 22 -56
c0 -24.667 -7.5 -44 -22.5 -58s-35.167 -21 -60.5 -21c-20.667 0 -38.834 5.5 -54.501 16.5s-27.834 27.5 -36.501 49.5l-95 -33c6.66699 -26 19.167 -49 37.5 -69s40.5 -35.5 66.5 -46.5s53.333 -16.5 82 -16.5z" />
    <glyph glyph-name="acute" unicode="&#xb4;" horiz-adv-x="455" 
d="M123 640h114l96 144h-147z" />
    <glyph glyph-name="uni00B5" unicode="&#xb5;" 
d="M50 -140l130.999 -0.000976562v140c22.667 -8 47.334 -12 74.001 -12c34 0 64.5 6.66699 91.5 20s47.5 33.333 61.5 60v-68h124v544h-131v-319c0 -36 -10.333 -64.5 -31 -85.5s-47 -31.5 -79 -31.5c-32.667 0 -59.167 10.333 -79.5 31s-30.5 48.334 -30.5 83.001v322
h-131v-684z" />
    <glyph glyph-name="paragraph" unicode="&#xb6;" horiz-adv-x="564" 
d="M297 -100l136 0.000976562v845h-136c-44.667 0 -83.834 -9.16699 -117.501 -27.5s-59.834 -43.833 -78.501 -76.5s-28 -70.667 -28 -114c0 -42.667 9.33301 -80.334 28 -113.001s44.834 -58.167 78.501 -76.5s72.834 -27.5 117.501 -27.5v-410z" />
    <glyph glyph-name="periodcentered" unicode="&#xb7;" horiz-adv-x="378" 
d="M123 202h132v140h-132v-140z" />
    <glyph glyph-name="cedilla" unicode="&#xb8;" horiz-adv-x="476" 
d="M207 -221c49.333 0 86.167 10.502 110.5 31.502s36.5 45.833 36.5 74.5c0 26 -8.5 46.5 -25.5 61.5s-38.167 22.5 -63.5 22.5c-4.66699 0 -9.66699 -0.333008 -15 -1l5 62h-87l-15 -114l23 -11c3.33301 1.33301 8.83301 2.66602 16.5 3.99902s15.167 2 22.5 2
c22 0 33 -9.66699 33 -29c0 -22 -17 -33 -51 -33c-8 0 -18 0.666992 -30 2s-22.667 3.66602 -32 6.99902l-12 -68c13.333 -4 28 -6.83301 44 -8.5s29.333 -2.5 40 -2.5z" />
    <glyph glyph-name="uni00B9" unicode="&#xb9;" horiz-adv-x="315" 
d="M117 224h109v521h-210v-91h101v-430z" />
    <glyph glyph-name="ordmasculine" unicode="&#xba;" horiz-adv-x="487" 
d="M244 355c37.333 0 71.332 8.66699 101.999 26s55.334 41 74.001 71s28 64.333 28 103s-9.16699 73 -27.5 103s-43 53.667 -74 71s-65.167 26 -102.5 26s-71.666 -8.66699 -102.999 -26s-56.166 -41 -74.499 -71s-27.5 -64.333 -27.5 -103s9.16699 -73 27.5 -103
s43.166 -53.667 74.499 -71s65.666 -26 102.999 -26zM243.999 450c-28.667 0 -51.834 9.83301 -69.501 29.5s-26.5 44.834 -26.5 75.501c0 30 8.83301 55 26.5 75s40.834 30 69.501 30c28 0 50.833 -9.83301 68.5 -29.5s26.5 -44.834 26.5 -75.501
c0 -30 -8.83301 -55 -26.5 -75s-40.5 -30 -68.5 -30z" />
    <glyph glyph-name="guillemotright" unicode="&#xbb;" horiz-adv-x="674" 
d="M331 72h144l154 197l-154 198h-144l152 -198zM46 72h144l154 197l-154 198h-144l152 -198z" />
    <glyph glyph-name="onequarter" unicode="&#xbc;" horiz-adv-x="881" 
d="M97 328h93v417h-174v-78h81v-339zM104 0h108l446 745h-108zM696 0h94v89h66v78h-66v250h-101l-174 -250v-78h181v-89zM696 167h-92l92 136v-136z" />
    <glyph glyph-name="onehalf" unicode="&#xbd;" horiz-adv-x="825" 
d="M97 328h93v417h-174v-78h81v-339zM104 0h108l446 745h-108zM508 0l285 0.00195312v79h-167l93 96c20.667 21.333 37.5 42.166 50.5 62.499s19.5 43.166 19.5 68.499c0 35.333 -13 63.833 -39 85.5s-59.667 32.5 -101 32.5c-32.667 0 -63 -9.5 -91 -28.5
s-45.667 -44.833 -53 -77.5l81 -27c5.33301 16.667 13.833 29 25.5 37s24.167 12 37.5 12s24.5 -4.16699 33.5 -12.5s13.5 -19.166 13.5 -32.499c0 -12.667 -5.33301 -26.334 -16 -41.001s-30.667 -36.667 -60 -66l-112 -116v-72z" />
    <glyph glyph-name="threequarters" unicode="&#xbe;" horiz-adv-x="953" 
d="M166 321c30 0 56.6689 6.33496 80.002 19.002s41.666 30.167 54.999 52.5s20 47.166 20 74.499c0 31.333 -8.33301 57.666 -25 78.999s-39.334 35 -68.001 41l77 85v73h-262v-77h157l-105 -114l22 -44c14.667 7.33301 31 11 49 11c20.667 0 36.334 -5.16699 47.001 -15.5
s16 -23.833 16 -40.5c0 -18 -5.83301 -32.333 -17.5 -43s-26.834 -16 -45.501 -16c-32.667 0 -55 16.667 -67 50l-83 -28c7.33301 -32.667 25.5 -58.667 54.5 -78s60.833 -29 95.5 -29zM176.002 0.00195312h108l446 745h-108zM768.002 0.00195312h94v89h66v78h-66v250h-101
l-174 -250v-78h181v-89zM768.002 167.002h-92l92 136v-136z" />
    <glyph glyph-name="questiondown" unicode="&#xbf;" horiz-adv-x="583" 
d="M242 404h133v140h-133v-140zM293 -213c42 0 79.6689 7.83594 113.002 23.5029s60.666 37.5 81.999 65.5s35 60.333 41 97l-122 30c-4.66699 -28.667 -17.167 -51.5 -37.5 -68.5s-44.833 -25.5 -73.5 -25.5c-30.667 0 -54.334 8 -71.001 24s-25 35.333 -25 58
c0 24 8.33301 44.833 25 62.5l56 57.5c15.333 15.333 30 31.666 44 48.999s25.5 37.166 34.5 59.499s13.5 48.5 13.5 78.5v20h-125v-13c0 -28.667 -8.16699 -54 -24.5 -76s-34.833 -43 -55.5 -63c-16.667 -16 -33 -32.667 -49 -50s-29.167 -36.333 -39.5 -57
s-15.5 -44.334 -15.5 -71.001c0 -34 8.83301 -66.333 26.5 -97s43.667 -55.667 78 -75s75.833 -29 124.5 -29z" />
    <glyph glyph-name="Agrave" unicode="&#xc0;" horiz-adv-x="712" 
d="M11 0h147l54 160h288l53 -160h148l-257 745h-176zM251 280l105 314l105 -314h-210zM299 842h115l-63 144h-147z" />
    <glyph glyph-name="Aacute" unicode="&#xc1;" horiz-adv-x="712" 
d="M11 0h147l54 160h288l53 -160h148l-257 745h-176zM251 280l105 314l105 -314h-210zM299 842h114l96 144h-147z" />
    <glyph glyph-name="Acircumflex" unicode="&#xc2;" horiz-adv-x="712" 
d="M11 0h147l54 160h288l53 -160h148l-257 745h-176zM251 280l105 314l105 -314h-210zM168 842h122l66 79l68 -79h119l-120 144h-136z" />
    <glyph glyph-name="Atilde" unicode="&#xc3;" horiz-adv-x="712" 
d="M11 0h147l54 160h288l53 -160h148l-257 745h-176zM251 280l105 314l105 -314h-210zM429 854c28 0 49.832 10.168 65.499 30.501s23.5 54.166 23.5 101.499h-84c0 -11.333 -2.5 -21.333 -7.5 -30s-12.5 -13 -22.5 -13c-12 0 -22.5 4 -31.5 12s-19.5 16 -31.5 24
s-28.333 12 -49 12c-26.667 0 -49.334 -10.167 -68.001 -30.5s-28 -54.5 -28 -102.5h83c1.33301 12.667 4.33301 23.167 9 31.5s12.334 12.5 23.001 12.5c12 0 22.833 -4 32.5 -12s20.834 -16 33.501 -24s30 -12 52 -12z" />
    <glyph glyph-name="Adieresis" unicode="&#xc4;" horiz-adv-x="712" 
d="M11 0h147l54 160h288l53 -160h148l-257 745h-176zM251 280l105 314l105 -314h-210zM260 847c19.333 0 36.166 7 50.499 21s21.5 31.333 21.5 52c0 20 -7.16699 37 -21.5 51s-31.166 21 -50.499 21c-20.667 0 -38 -7 -52 -21s-21 -31 -21 -51s7 -37.167 21 -51.5
s31.333 -21.5 52 -21.5zM455 847c19.333 0 36.166 7 50.499 21s21.5 31.333 21.5 52c0 20 -7.16699 37 -21.5 51s-31.166 21 -50.499 21c-20.667 0 -38 -7 -52 -21s-21 -31 -21 -51s7 -37.167 21 -51.5s31.333 -21.5 52 -21.5z" />
    <glyph glyph-name="Aring" unicode="&#xc5;" horiz-adv-x="712" 
d="M11 0h147l54 160h288l53 -160h148l-257 745h-176zM251 280l105 314l105 -314h-210zM357 785c24 0 45.501 5.49902 64.501 16.499s34.167 26 45.5 45s17 40.167 17 63.5c0 24 -5.66699 45.5 -17 64.5s-26.5 34 -45.5 45s-40.5 16.5 -64.5 16.5
c-36.667 0 -67.167 -12.167 -91.5 -36.5s-36.5 -54.166 -36.5 -89.499c0 -23.333 5.66699 -44.5 17 -63.5s26.666 -34 45.999 -45s41 -16.5 65 -16.5zM357.001 855.999c-16 0 -29.167 5.33301 -39.5 16s-15.5 23.334 -15.5 38.001c0 15.333 5.16699 28.333 15.5 39
s23.5 16 39.5 16c15.333 0 28 -5.33301 38 -16s15 -23.667 15 -39c0 -14.667 -5 -27.334 -15 -38.001s-22.667 -16 -38 -16z" />
    <glyph glyph-name="AE" unicode="&#xc6;" horiz-adv-x="991" 
d="M11 0h147l54 160h256v-160h495l1 120h-360v194h340v120h-340v191h360v120h-696zM251 280l116 345h101v-345h-217z" />
    <glyph glyph-name="Ccedilla" unicode="&#xc7;" horiz-adv-x="774" 
d="M422 -12c53.333 0 101.166 8.99805 143.499 26.998s78.166 41.833 107.499 71.5s50.333 62.167 63 97.5l-122 57c-14.667 -37.333 -38.5 -68.166 -71.5 -92.499s-73.167 -36.5 -120.5 -36.5c-46.667 0 -87.667 11 -123 33s-63 52.5 -83 91.5s-30 84.5 -30 136.5
s10 97.5 30 136.5s47.667 69.333 83 91s76.333 32.5 123 32.5c47.333 0 87.5 -12.167 120.5 -36.5s56.833 -55.166 71.5 -92.499l122 57c-12.667 35.333 -33.667 67.833 -63 97.5s-65.166 53.5 -107.499 71.5s-90.166 27 -143.499 27s-102.666 -9.5 -147.999 -28.5
s-84.666 -45.667 -117.999 -80s-59.333 -75 -78 -122s-28 -98.167 -28 -153.5s9.33301 -106.5 28 -153.5s44.667 -87.833 78 -122.5s72.666 -61.5 117.999 -80.5s94.666 -28.5 147.999 -28.5zM382 -251.002c49.333 0 86.167 10.502 110.5 31.502s36.5 45.833 36.5 74.5
c0 26 -8.5 46.5 -25.5 61.5s-38.167 22.5 -63.5 22.5c-4.66699 0 -9.66699 -0.333008 -15 -1l5 62h-87l-15 -114l23 -11c3.33301 1.33301 8.83301 2.66602 16.5 3.99902s15.167 2 22.5 2c22 0 33 -9.66699 33 -29c0 -22 -17 -33 -51 -33c-8 0 -18 0.666992 -30 2
s-22.667 3.66602 -32 6.99902l-12 -68c13.333 -4 28 -6.83301 44 -8.5s29.333 -2.5 40 -2.5z" />
    <glyph glyph-name="Egrave" unicode="&#xc8;" horiz-adv-x="595" 
d="M72 0h495v120h-359v194h339v120h-339v191h359v120h-495v-745zM262 842h115l-63 144h-147z" />
    <glyph glyph-name="Eacute" unicode="&#xc9;" horiz-adv-x="595" 
d="M72 0h495v120h-359v194h339v120h-339v191h359v120h-495v-745zM263 842h114l96 144h-147z" />
    <glyph glyph-name="Ecircumflex" unicode="&#xca;" horiz-adv-x="595" 
d="M72 0h495v120h-359v194h339v120h-339v191h359v120h-495v-745zM131 842h122l66 79l68 -79h119l-120 144h-136z" />
    <glyph glyph-name="Edieresis" unicode="&#xcb;" horiz-adv-x="595" 
d="M72 0h495v120h-359v194h339v120h-339v191h359v120h-495v-745zM223 847c19.333 0 36.166 7 50.499 21s21.5 31.333 21.5 52c0 20 -7.16699 37 -21.5 51s-31.166 21 -50.499 21c-20.667 0 -38 -7 -52 -21s-21 -31 -21 -51s7 -37.167 21 -51.5s31.333 -21.5 52 -21.5z
M418 847c19.333 0 36.166 7 50.499 21s21.5 31.333 21.5 52c0 20 -7.16699 37 -21.5 51s-31.166 21 -50.499 21c-20.667 0 -38 -7 -52 -21s-21 -31 -21 -51s7 -37.167 21 -51.5s31.333 -21.5 52 -21.5z" />
    <glyph glyph-name="Igrave" unicode="&#xcc;" horiz-adv-x="279" 
d="M72 0h136v745h-136v-745zM83 842h115l-63 144h-147z" />
    <glyph glyph-name="Iacute" unicode="&#xcd;" horiz-adv-x="279" 
d="M72 0h136v745h-136v-745zM83 842h114l96 144h-147z" />
    <glyph glyph-name="Icircumflex" unicode="&#xce;" horiz-adv-x="279" 
d="M72 0h136v745h-136v-745zM-48 842h122l66 79l68 -79h119l-120 144h-136z" />
    <glyph glyph-name="Idieresis" unicode="&#xcf;" horiz-adv-x="279" 
d="M72 0h136v745h-136v-745zM44 847c19.333 0 36.166 7 50.499 21s21.5 31.333 21.5 52c0 20 -7.16699 37 -21.5 51s-31.166 21 -50.499 21c-20.667 0 -38 -7 -52 -21s-21 -31 -21 -51s7 -37.167 21 -51.5s31.333 -21.5 52 -21.5zM239 847c19.333 0 36.166 7 50.499 21
s21.5 31.333 21.5 52c0 20 -7.16699 37 -21.5 51s-31.166 21 -50.499 21c-20.667 0 -38 -7 -52 -21s-21 -31 -21 -51s7 -37.167 21 -51.5s31.333 -21.5 52 -21.5z" />
    <glyph glyph-name="Eth" unicode="&#xd0;" horiz-adv-x="740" 
d="M72 0l243 -0.000976562c78.667 0 147.167 16 205.5 48s103.5 76 135.5 132s48 120.333 48 193c0 73.333 -16 137.833 -48 193.5s-77 99.334 -135 131.001s-126.667 47.5 -206 47.5h-243v-330h-94v-84h94v-331zM208 119.999l-0.000976562 211.001h195v84h-195v210h110
c50.667 0 94.5 -10.333 131.5 -31s65.833 -49.834 86.5 -87.501s31 -82.167 31 -133.5s-10.167 -96 -30.5 -134s-49.166 -67.333 -86.499 -88s-81.333 -31 -132 -31h-110z" />
    <glyph glyph-name="Ntilde" unicode="&#xd1;" horiz-adv-x="741" 
d="M72 0h136v487l354 -487h107v745h-136v-478l-355 478h-106v-745zM443 854c28 0 49.832 10.168 65.499 30.501s23.5 54.166 23.5 101.499h-84c0 -11.333 -2.5 -21.333 -7.5 -30s-12.5 -13 -22.5 -13c-12 0 -22.5 4 -31.5 12s-19.5 16 -31.5 24s-28.333 12 -49 12
c-26.667 0 -49.334 -10.167 -68.001 -30.5s-28 -54.5 -28 -102.5h83c1.33301 12.667 4.33301 23.167 9 31.5s12.334 12.5 23.001 12.5c12 0 22.833 -4 32.5 -12s20.834 -16 33.501 -24s30 -12 52 -12z" />
    <glyph glyph-name="Ograve" unicode="&#xd2;" horiz-adv-x="878" 
d="M439 -12c55.333 0 106.666 9.66699 153.999 29s88.666 46.333 123.999 81s62.833 75.5 82.5 122.5s29.5 97.833 29.5 152.5c0 55.333 -9.83301 106.333 -29.5 153s-47.167 87.167 -82.5 121.5s-76.666 61.166 -123.999 80.499s-98.666 29 -153.999 29
s-106.666 -9.66699 -153.999 -29s-88.5 -46.166 -123.5 -80.499s-62.333 -74.833 -82 -121.5s-29.5 -97.667 -29.5 -153c0 -54.667 9.83301 -105.5 29.5 -152.5s47.167 -87.833 82.5 -122.5s76.666 -61.667 123.999 -81s98.333 -29 153 -29zM439 112
c-48 0 -91.167 11.333 -129.5 34s-68.5 53.667 -90.5 93s-33 84 -33 134s11 94.5 33 133.5s52.167 69.833 90.5 92.5s81.5 34 129.5 34c48.667 0 92 -11.333 130 -34s68 -53.5 90 -92.5s33 -83.5 33 -133.5s-11 -94.667 -33 -134s-52 -70.333 -90 -93s-81.333 -34 -130 -34z
M382 842h115l-63 144h-147z" />
    <glyph glyph-name="Oacute" unicode="&#xd3;" horiz-adv-x="878" 
d="M439 -12c55.333 0 106.666 9.66699 153.999 29s88.666 46.333 123.999 81s62.833 75.5 82.5 122.5s29.5 97.833 29.5 152.5c0 55.333 -9.83301 106.333 -29.5 153s-47.167 87.167 -82.5 121.5s-76.666 61.166 -123.999 80.499s-98.666 29 -153.999 29
s-106.666 -9.66699 -153.999 -29s-88.5 -46.166 -123.5 -80.499s-62.333 -74.833 -82 -121.5s-29.5 -97.667 -29.5 -153c0 -54.667 9.83301 -105.5 29.5 -152.5s47.167 -87.833 82.5 -122.5s76.666 -61.667 123.999 -81s98.333 -29 153 -29zM439 112
c-48 0 -91.167 11.333 -129.5 34s-68.5 53.667 -90.5 93s-33 84 -33 134s11 94.5 33 133.5s52.167 69.833 90.5 92.5s81.5 34 129.5 34c48.667 0 92 -11.333 130 -34s68 -53.5 90 -92.5s33 -83.5 33 -133.5s-11 -94.667 -33 -134s-52 -70.333 -90 -93s-81.333 -34 -130 -34z
M382 842h114l96 144h-147z" />
    <glyph glyph-name="Ocircumflex" unicode="&#xd4;" horiz-adv-x="878" 
d="M439 -12c55.333 0 106.666 9.66699 153.999 29s88.666 46.333 123.999 81s62.833 75.5 82.5 122.5s29.5 97.833 29.5 152.5c0 55.333 -9.83301 106.333 -29.5 153s-47.167 87.167 -82.5 121.5s-76.666 61.166 -123.999 80.499s-98.666 29 -153.999 29
s-106.666 -9.66699 -153.999 -29s-88.5 -46.166 -123.5 -80.499s-62.333 -74.833 -82 -121.5s-29.5 -97.667 -29.5 -153c0 -54.667 9.83301 -105.5 29.5 -152.5s47.167 -87.833 82.5 -122.5s76.666 -61.667 123.999 -81s98.333 -29 153 -29zM439 112
c-48 0 -91.167 11.333 -129.5 34s-68.5 53.667 -90.5 93s-33 84 -33 134s11 94.5 33 133.5s52.167 69.833 90.5 92.5s81.5 34 129.5 34c48.667 0 92 -11.333 130 -34s68 -53.5 90 -92.5s33 -83.5 33 -133.5s-11 -94.667 -33 -134s-52 -70.333 -90 -93s-81.333 -34 -130 -34z
M251 842h122l66 79l68 -79h119l-120 144h-136z" />
    <glyph glyph-name="Otilde" unicode="&#xd5;" horiz-adv-x="878" 
d="M439 -12c55.333 0 106.666 9.66699 153.999 29s88.666 46.333 123.999 81s62.833 75.5 82.5 122.5s29.5 97.833 29.5 152.5c0 55.333 -9.83301 106.333 -29.5 153s-47.167 87.167 -82.5 121.5s-76.666 61.166 -123.999 80.499s-98.666 29 -153.999 29
s-106.666 -9.66699 -153.999 -29s-88.5 -46.166 -123.5 -80.499s-62.333 -74.833 -82 -121.5s-29.5 -97.667 -29.5 -153c0 -54.667 9.83301 -105.5 29.5 -152.5s47.167 -87.833 82.5 -122.5s76.666 -61.667 123.999 -81s98.333 -29 153 -29zM439 112
c-48 0 -91.167 11.333 -129.5 34s-68.5 53.667 -90.5 93s-33 84 -33 134s11 94.5 33 133.5s52.167 69.833 90.5 92.5s81.5 34 129.5 34c48.667 0 92 -11.333 130 -34s68 -53.5 90 -92.5s33 -83.5 33 -133.5s-11 -94.667 -33 -134s-52 -70.333 -90 -93s-81.333 -34 -130 -34z
M512 854c28 0 49.832 10.168 65.499 30.501s23.5 54.166 23.5 101.499h-84c0 -11.333 -2.5 -21.333 -7.5 -30s-12.5 -13 -22.5 -13c-12 0 -22.5 4 -31.5 12s-19.5 16 -31.5 24s-28.333 12 -49 12c-26.667 0 -49.334 -10.167 -68.001 -30.5s-28 -54.5 -28 -102.5h83
c1.33301 12.667 4.33301 23.167 9 31.5s12.334 12.5 23.001 12.5c12 0 22.833 -4 32.5 -12s20.834 -16 33.501 -24s30 -12 52 -12z" />
    <glyph glyph-name="Odieresis" unicode="&#xd6;" horiz-adv-x="878" 
d="M439 -12c55.333 0 106.666 9.66699 153.999 29s88.666 46.333 123.999 81s62.833 75.5 82.5 122.5s29.5 97.833 29.5 152.5c0 55.333 -9.83301 106.333 -29.5 153s-47.167 87.167 -82.5 121.5s-76.666 61.166 -123.999 80.499s-98.666 29 -153.999 29
s-106.666 -9.66699 -153.999 -29s-88.5 -46.166 -123.5 -80.499s-62.333 -74.833 -82 -121.5s-29.5 -97.667 -29.5 -153c0 -54.667 9.83301 -105.5 29.5 -152.5s47.167 -87.833 82.5 -122.5s76.666 -61.667 123.999 -81s98.333 -29 153 -29zM439 112
c-48 0 -91.167 11.333 -129.5 34s-68.5 53.667 -90.5 93s-33 84 -33 134s11 94.5 33 133.5s52.167 69.833 90.5 92.5s81.5 34 129.5 34c48.667 0 92 -11.333 130 -34s68 -53.5 90 -92.5s33 -83.5 33 -133.5s-11 -94.667 -33 -134s-52 -70.333 -90 -93s-81.333 -34 -130 -34z
M343 847c19.333 0 36.166 7 50.499 21s21.5 31.333 21.5 52c0 20 -7.16699 37 -21.5 51s-31.166 21 -50.499 21c-20.667 0 -38 -7 -52 -21s-21 -31 -21 -51s7 -37.167 21 -51.5s31.333 -21.5 52 -21.5zM538 847c19.333 0 36.166 7 50.499 21s21.5 31.333 21.5 52
c0 20 -7.16699 37 -21.5 51s-31.166 21 -50.499 21c-20.667 0 -38 -7 -52 -21s-21 -31 -21 -51s7 -37.167 21 -51.5s31.333 -21.5 52 -21.5z" />
    <glyph glyph-name="multiply" unicode="&#xd7;" horiz-adv-x="618" 
d="M158 0l151 152l152 -152l79 80l-152 152l152 150l-80 79l-151 -150l-150 150l-80 -79l151 -150l-152 -152z" />
    <glyph glyph-name="Oslash" unicode="&#xd8;" horiz-adv-x="878" 
d="M60 0l144.001 -0.000976562l33 41c29.333 -17.333 61 -30.5 95 -39.5s69.667 -13.5 107 -13.5c55.333 0 106.666 9.66699 153.999 29s88.666 46.333 123.999 81s62.833 75.5 82.5 122.5s29.5 97.833 29.5 152.5c0 52 -9 100.333 -27 145s-42.667 84 -74 118l90 109h-144
l-33 -40c-29.333 16.667 -61 29.5 -95 38.5s-69.667 13.5 -107 13.5c-55.333 0 -106.666 -9.66699 -153.999 -29s-88.5 -46.166 -123.5 -80.499s-62.333 -74.833 -82 -121.5s-29.5 -97.667 -29.5 -153c0 -52 8.83301 -100.333 26.5 -145s42.5 -84 74.5 -118z
M186.001 372.999c0 50 11 94.501 33 133.501s52.167 69.833 90.5 92.5s81.5 34 129.5 34c43.333 0 83 -9.33301 119 -28l-323 -392c-15.333 21.333 -27.333 45.666 -36 72.999s-13 56.333 -13 87zM439.001 112c-43.333 0 -83 9.33301 -119 28l323 392
c15.333 -21.333 27.333 -45.5 36 -72.5s13 -55.833 13 -86.5c0 -50 -11 -94.667 -33 -134s-52 -70.333 -90 -93s-81.333 -34 -130 -34z" />
    <glyph glyph-name="Ugrave" unicode="&#xd9;" horiz-adv-x="718" 
d="M359 -12c57.333 0 108.171 12 152.504 36s79.166 57 104.499 99s38 89.667 38 143v479h-136v-472c0 -31.333 -6.83301 -59.166 -20.5 -83.499s-32.334 -43.333 -56.001 -57s-51.167 -20.5 -82.5 -20.5c-30.667 0 -58 6.83301 -82 20.5s-42.833 32.667 -56.5 57
s-20.5 52.166 -20.5 83.499v472h-136v-479c0 -53.333 12.667 -101 38 -143s60.166 -75 104.499 -99s95.166 -36 152.499 -36zM302.005 842h115l-63 144h-147z" />
    <glyph glyph-name="Uacute" unicode="&#xda;" horiz-adv-x="718" 
d="M359 -12c57.333 0 108.171 12 152.504 36s79.166 57 104.499 99s38 89.667 38 143v479h-136v-472c0 -31.333 -6.83301 -59.166 -20.5 -83.499s-32.334 -43.333 -56.001 -57s-51.167 -20.5 -82.5 -20.5c-30.667 0 -58 6.83301 -82 20.5s-42.833 32.667 -56.5 57
s-20.5 52.166 -20.5 83.499v472h-136v-479c0 -53.333 12.667 -101 38 -143s60.166 -75 104.499 -99s95.166 -36 152.499 -36zM302.005 842h114l96 144h-147z" />
    <glyph glyph-name="Ucircumflex" unicode="&#xdb;" horiz-adv-x="718" 
d="M359 -12c57.333 0 108.171 12 152.504 36s79.166 57 104.499 99s38 89.667 38 143v479h-136v-472c0 -31.333 -6.83301 -59.166 -20.5 -83.499s-32.334 -43.333 -56.001 -57s-51.167 -20.5 -82.5 -20.5c-30.667 0 -58 6.83301 -82 20.5s-42.833 32.667 -56.5 57
s-20.5 52.166 -20.5 83.499v472h-136v-479c0 -53.333 12.667 -101 38 -143s60.166 -75 104.499 -99s95.166 -36 152.499 -36zM171.005 842h122l66 79l68 -79h119l-120 144h-136z" />
    <glyph glyph-name="Udieresis" unicode="&#xdc;" horiz-adv-x="718" 
d="M359 -12c57.333 0 108.171 12 152.504 36s79.166 57 104.499 99s38 89.667 38 143v479h-136v-472c0 -31.333 -6.83301 -59.166 -20.5 -83.499s-32.334 -43.333 -56.001 -57s-51.167 -20.5 -82.5 -20.5c-30.667 0 -58 6.83301 -82 20.5s-42.833 32.667 -56.5 57
s-20.5 52.166 -20.5 83.499v472h-136v-479c0 -53.333 12.667 -101 38 -143s60.166 -75 104.499 -99s95.166 -36 152.499 -36zM263.005 847c19.333 0 36.166 7 50.499 21s21.5 31.333 21.5 52c0 20 -7.16699 37 -21.5 51s-31.166 21 -50.499 21c-20.667 0 -38 -7 -52 -21
s-21 -31 -21 -51s7 -37.167 21 -51.5s31.333 -21.5 52 -21.5zM458.005 847c19.333 0 36.166 7 50.499 21s21.5 31.333 21.5 52c0 20 -7.16699 37 -21.5 51s-31.166 21 -50.499 21c-20.667 0 -38 -7 -52 -21s-21 -31 -21 -51s7 -37.167 21 -51.5s31.333 -21.5 52 -21.5z" />
    <glyph glyph-name="Yacute" unicode="&#xdd;" horiz-adv-x="660" 
d="M262 0h137v331l250 414h-155l-164 -277l-164 277h-155l251 -415v-330zM273 842h114l96 144h-147z" />
    <glyph glyph-name="Thorn" unicode="&#xde;" horiz-adv-x="650" 
d="M65 0h136v138h143c50 0 94.5 9.16699 133.5 27.5s69.667 45 92 80s33.5 77.167 33.5 126.5c0 50.667 -11 93.5 -33 128.5s-52.5 61.667 -91.5 80s-83.833 27.5 -134.5 27.5h-143v137h-136v-745zM201 258v230.001h144c36.667 0 66 -10.5 88 -31.5s33 -49.167 33 -84.5
c0 -34.667 -11 -62.334 -33 -83.001s-51.333 -31 -88 -31h-144z" />
    <glyph glyph-name="germandbls" unicode="&#xdf;" horiz-adv-x="641" 
d="M72 -157l131.002 -0.000976562v660c0 44 11.667 78.167 35 102.5s53.666 36.5 90.999 36.5c32 0 57.833 -8.83301 77.5 -26.5s29.5 -40.5 29.5 -68.5c0 -26.667 -9.33301 -49 -28 -67s-42.667 -27 -72 -27h-51v-115h60c37.333 0 67 -10 89 -30s33 -46.667 33 -80
c0 -34 -11.333 -61.333 -34 -82s-52 -31 -88 -31h-60v-115h68c51.333 0 95.666 9.33301 132.999 28s66.166 45 86.499 79s30.5 74.333 30.5 121c0 40.667 -8.5 75.167 -25.5 103.5s-44.5 51.5 -82.5 69.5c25.333 16 44.5 36.833 57.5 62.5s19.5 53.167 19.5 82.5
c0 42 -10.167 78.833 -30.5 110.5s-48.666 56.334 -84.999 74.001s-78.833 26.5 -127.5 26.5c-49.333 0 -93.333 -10.167 -132 -30.5s-69.167 -49.5 -91.5 -87.5s-33.5 -83.333 -33.5 -136v-660z" />
    <glyph glyph-name="agrave" unicode="&#xe0;" horiz-adv-x="580" 
d="M226 -12c70.667 0 127.335 23.334 170.002 70.001v-58h124v362c0 38 -9.66699 71.667 -29 101s-45.833 52.166 -79.5 68.499s-72.834 24.5 -117.501 24.5c-54.667 0 -103.334 -13 -146.001 -39s-72 -60.333 -88 -103l107 -52c10 24.667 25.667 44.5 47 59.5
s46.333 22.5 75 22.5c30 0 54.167 -7.83301 72.5 -23.5s27.5 -35.167 27.5 -58.5v-18l-162 -26c-64 -10.667 -111.333 -31 -142 -61s-46 -67.667 -46 -113c0 -48 17 -86 51 -114s79.333 -42 136 -42zM175.001 149.001c0 38 25.667 62 77 72l137 23v-22
c0 -37.333 -12.833 -69 -38.5 -95s-59.167 -39 -100.5 -39c-22 0 -40 5.5 -54 16.5s-21 25.833 -21 44.5zM233.001 640.001h115l-63 144h-147z" />
    <glyph glyph-name="aacute" unicode="&#xe1;" horiz-adv-x="580" 
d="M226 -12c70.667 0 127.335 23.334 170.002 70.001v-58h124v362c0 38 -9.66699 71.667 -29 101s-45.833 52.166 -79.5 68.499s-72.834 24.5 -117.501 24.5c-54.667 0 -103.334 -13 -146.001 -39s-72 -60.333 -88 -103l107 -52c10 24.667 25.667 44.5 47 59.5
s46.333 22.5 75 22.5c30 0 54.167 -7.83301 72.5 -23.5s27.5 -35.167 27.5 -58.5v-18l-162 -26c-64 -10.667 -111.333 -31 -142 -61s-46 -67.667 -46 -113c0 -48 17 -86 51 -114s79.333 -42 136 -42zM175.001 149.001c0 38 25.667 62 77 72l137 23v-22
c0 -37.333 -12.833 -69 -38.5 -95s-59.167 -39 -100.5 -39c-22 0 -40 5.5 -54 16.5s-21 25.833 -21 44.5zM234.001 640.001h114l96 144h-147z" />
    <glyph glyph-name="acircumflex" unicode="&#xe2;" horiz-adv-x="580" 
d="M226 -12c70.667 0 127.335 23.334 170.002 70.001v-58h124v362c0 38 -9.66699 71.667 -29 101s-45.833 52.166 -79.5 68.499s-72.834 24.5 -117.501 24.5c-54.667 0 -103.334 -13 -146.001 -39s-72 -60.333 -88 -103l107 -52c10 24.667 25.667 44.5 47 59.5
s46.333 22.5 75 22.5c30 0 54.167 -7.83301 72.5 -23.5s27.5 -35.167 27.5 -58.5v-18l-162 -26c-64 -10.667 -111.333 -31 -142 -61s-46 -67.667 -46 -113c0 -48 17 -86 51 -114s79.333 -42 136 -42zM175.001 149.001c0 38 25.667 62 77 72l137 23v-22
c0 -37.333 -12.833 -69 -38.5 -95s-59.167 -39 -100.5 -39c-22 0 -40 5.5 -54 16.5s-21 25.833 -21 44.5zM102.001 640.001h122l66 79l68 -79h119l-120 144h-136z" />
    <glyph glyph-name="atilde" unicode="&#xe3;" horiz-adv-x="580" 
d="M226 -12c70.667 0 127.335 23.334 170.002 70.001v-58h124v362c0 38 -9.66699 71.667 -29 101s-45.833 52.166 -79.5 68.499s-72.834 24.5 -117.501 24.5c-54.667 0 -103.334 -13 -146.001 -39s-72 -60.333 -88 -103l107 -52c10 24.667 25.667 44.5 47 59.5
s46.333 22.5 75 22.5c30 0 54.167 -7.83301 72.5 -23.5s27.5 -35.167 27.5 -58.5v-18l-162 -26c-64 -10.667 -111.333 -31 -142 -61s-46 -67.667 -46 -113c0 -48 17 -86 51 -114s79.333 -42 136 -42zM175.001 149.001c0 38 25.667 62 77 72l137 23v-22
c0 -37.333 -12.833 -69 -38.5 -95s-59.167 -39 -100.5 -39c-22 0 -40 5.5 -54 16.5s-21 25.833 -21 44.5zM363.001 652.001c28 0 49.832 10.168 65.499 30.501s23.5 54.166 23.5 101.499h-84c0 -11.333 -2.5 -21.333 -7.5 -30s-12.5 -13 -22.5 -13c-12 0 -22.5 4 -31.5 12
s-19.5 16 -31.5 24s-28.333 12 -49 12c-26.667 0 -49.334 -10.167 -68.001 -30.5s-28 -54.5 -28 -102.5h83c1.33301 12.667 4.33301 23.167 9 31.5s12.334 12.5 23.001 12.5c12 0 22.833 -4 32.5 -12s20.834 -16 33.501 -24s30 -12 52 -12z" />
    <glyph glyph-name="adieresis" unicode="&#xe4;" horiz-adv-x="580" 
d="M226 -12c70.667 0 127.335 23.334 170.002 70.001v-58h124v362c0 38 -9.66699 71.667 -29 101s-45.833 52.166 -79.5 68.499s-72.834 24.5 -117.501 24.5c-54.667 0 -103.334 -13 -146.001 -39s-72 -60.333 -88 -103l107 -52c10 24.667 25.667 44.5 47 59.5
s46.333 22.5 75 22.5c30 0 54.167 -7.83301 72.5 -23.5s27.5 -35.167 27.5 -58.5v-18l-162 -26c-64 -10.667 -111.333 -31 -142 -61s-46 -67.667 -46 -113c0 -48 17 -86 51 -114s79.333 -42 136 -42zM175.001 149.001c0 38 25.667 62 77 72l137 23v-22
c0 -37.333 -12.833 -69 -38.5 -95s-59.167 -39 -100.5 -39c-22 0 -40 5.5 -54 16.5s-21 25.833 -21 44.5zM194.001 645.001c19.333 0 36.166 7 50.499 21s21.5 31.333 21.5 52c0 20 -7.16699 37 -21.5 51s-31.166 21 -50.499 21c-20.667 0 -38 -7 -52 -21s-21 -31 -21 -51
s7 -37.167 21 -51.5s31.333 -21.5 52 -21.5zM389.001 645.001c19.333 0 36.166 7 50.499 21s21.5 31.333 21.5 52c0 20 -7.16699 37 -21.5 51s-31.166 21 -50.499 21c-20.667 0 -38 -7 -52 -21s-21 -31 -21 -51s7 -37.167 21 -51.5s31.333 -21.5 52 -21.5z" />
    <glyph glyph-name="aring" unicode="&#xe5;" horiz-adv-x="580" 
d="M226 -12c70.667 0 127.335 23.334 170.002 70.001v-58h124v362c0 38 -9.66699 71.667 -29 101s-45.833 52.166 -79.5 68.499s-72.834 24.5 -117.501 24.5c-54.667 0 -103.334 -13 -146.001 -39s-72 -60.333 -88 -103l107 -52c10 24.667 25.667 44.5 47 59.5
s46.333 22.5 75 22.5c30 0 54.167 -7.83301 72.5 -23.5s27.5 -35.167 27.5 -58.5v-18l-162 -26c-64 -10.667 -111.333 -31 -142 -61s-46 -67.667 -46 -113c0 -48 17 -86 51 -114s79.333 -42 136 -42zM175.001 149.001c0 38 25.667 62 77 72l137 23v-22
c0 -37.333 -12.833 -69 -38.5 -95s-59.167 -39 -100.5 -39c-22 0 -40 5.5 -54 16.5s-21 25.833 -21 44.5zM291.001 583.001c24 0 45.501 5.49902 64.501 16.499s34.167 26 45.5 45s17 40.167 17 63.5c0 24 -5.66699 45.5 -17 64.5s-26.5 34 -45.5 45s-40.5 16.5 -64.5 16.5
c-36.667 0 -67.167 -12.167 -91.5 -36.5s-36.5 -54.166 -36.5 -89.499c0 -23.333 5.66699 -44.5 17 -63.5s26.666 -34 45.999 -45s41 -16.5 65 -16.5zM291.002 654c-16 0 -29.167 5.33301 -39.5 16s-15.5 23.334 -15.5 38.001c0 15.333 5.16699 28.333 15.5 39
s23.5 16 39.5 16c15.333 0 28 -5.33301 38 -16s15 -23.667 15 -39c0 -14.667 -5 -27.334 -15 -38.001s-22.667 -16 -38 -16z" />
    <glyph glyph-name="ae" unicode="&#xe6;" horiz-adv-x="967" 
d="M226 -12c70.667 0 127.333 22.667 170 68v-56h111v56c23.333 -22.667 50.333 -39.667 81 -51s64 -17 100 -17c32.667 0 63.5 5.66699 92.5 17s54.667 27 77 47s38.833 43 49.5 69l-106 52c-12.667 -20.667 -29.5 -37.5 -50.5 -50.5s-46.167 -19.5 -75.5 -19.5
c-40 0 -73.333 11.833 -100 35.5s-41.667 55.834 -45 96.501h392c4 15.333 6 33.666 6 54.999c0 48.667 -10.333 93 -31 133s-50.667 72.167 -90 96.5s-87 36.5 -143 36.5c-37.333 0 -72 -6.66699 -104 -20s-59.667 -31.666 -83 -54.999
c-20 23.333 -45.667 41.666 -77 54.999s-66.666 20 -105.999 20c-54.667 0 -103.334 -13 -146.001 -39s-72 -60.333 -88 -103l107 -52c10 24.667 25.667 44.5 47 59.5s46.333 22.5 75 22.5c30 0 54.167 -7.83301 72.5 -23.5s27.5 -35.167 27.5 -58.5v-18l-162 -26
c-64 -10.667 -111.333 -31 -142 -61s-46 -67.667 -46 -113c0 -48 17 -86 51 -114s79.333 -42 136 -42zM532.999 335c6.66699 36 22 63.833 46 83.5s52.333 29.5 85 29.5c34.667 0 63.5 -10.5 86.5 -31.5s35.833 -48.167 38.5 -81.5h-256zM249.999 88c-22 0 -40 5.5 -54 16.5
s-21 25.833 -21 44.5c0 38 25.667 62 77 72l137 23v-22c0 -37.333 -12.833 -69 -38.5 -95s-59.167 -39 -100.5 -39z" />
    <glyph glyph-name="ccedilla" unicode="&#xe7;" horiz-adv-x="608" 
d="M323 -12c39.333 0 75.667 6.83496 109 20.502s62 32.667 86 57s41.333 51.833 52 82.5l-115 52c-10.667 -28.667 -27.5 -51.167 -50.5 -67.5s-50.167 -24.5 -81.5 -24.5c-28.667 0 -54.167 7 -76.5 21s-39.833 33.5 -52.5 58.5s-19 53.167 -19 84.5
c0 32 6.33301 60.333 19 85s30.167 44 52.5 58s47.833 21 76.5 21c31.333 0 58.5 -8.33301 81.5 -25s39.833 -38.667 50.5 -66l115 50c-11.333 32 -29 60.167 -53 84.5s-52.667 43.166 -86 56.499s-69.333 20 -108 20c-54 0 -102.5 -12.333 -145.5 -37
s-76.833 -58.334 -101.5 -101.001s-37 -91 -37 -145s12.333 -102.5 37 -145.5s58.5 -77 101.5 -102s91.5 -37.5 145.5 -37.5zM318.001 -250.998c49.333 0 86.167 10.502 110.5 31.502s36.5 45.833 36.5 74.5c0 26 -8.5 46.5 -25.5 61.5s-38.167 22.5 -63.5 22.5
c-4.66699 0 -9.66699 -0.333008 -15 -1l5 62h-87l-15 -114l23 -11c3.33301 1.33301 8.83301 2.66602 16.5 3.99902s15.167 2 22.5 2c22 0 33 -9.66699 33 -29c0 -22 -17 -33 -51 -33c-8 0 -18 0.666992 -30 2s-22.667 3.66602 -32 6.99902l-12 -68
c13.333 -4 28 -6.83301 44 -8.5s29.333 -2.5 40 -2.5z" />
    <glyph glyph-name="egrave" unicode="&#xe8;" horiz-adv-x="612" 
d="M319 -12c55.333 0 103.832 12.499 145.499 37.499s70.834 56.833 87.501 95.5l-106 52c-12 -20.667 -28.5 -37.5 -49.5 -50.5s-46.5 -19.5 -76.5 -19.5c-39.333 0 -72.333 12 -99 36s-42 56 -46 96h392c2.66699 7.33301 4.5 15.833 5.5 25.5s1.5 19.5 1.5 29.5
c0 48.667 -10.333 93 -31 133s-50.667 72.167 -90 96.5s-87.333 36.5 -144 36.5c-50.667 0 -96.5 -12.333 -137.5 -37s-73.333 -58.167 -97 -100.5s-35.5 -90.833 -35.5 -145.5c0 -52.667 11.667 -100.667 35 -144s56 -77.666 98 -102.999s91 -38 147 -38zM308.999 447.999
c34.667 0 63.499 -10.5 86.499 -31.5s35.833 -48.167 38.5 -81.5h-256c7.33301 36 22.833 63.833 46.5 83.5s51.834 29.5 84.501 29.5zM248.998 639.999h115l-63 144h-147z" />
    <glyph glyph-name="eacute" unicode="&#xe9;" horiz-adv-x="612" 
d="M319 -12c55.333 0 103.832 12.499 145.499 37.499s70.834 56.833 87.501 95.5l-106 52c-12 -20.667 -28.5 -37.5 -49.5 -50.5s-46.5 -19.5 -76.5 -19.5c-39.333 0 -72.333 12 -99 36s-42 56 -46 96h392c2.66699 7.33301 4.5 15.833 5.5 25.5s1.5 19.5 1.5 29.5
c0 48.667 -10.333 93 -31 133s-50.667 72.167 -90 96.5s-87.333 36.5 -144 36.5c-50.667 0 -96.5 -12.333 -137.5 -37s-73.333 -58.167 -97 -100.5s-35.5 -90.833 -35.5 -145.5c0 -52.667 11.667 -100.667 35 -144s56 -77.666 98 -102.999s91 -38 147 -38zM308.999 447.999
c34.667 0 63.499 -10.5 86.499 -31.5s35.833 -48.167 38.5 -81.5h-256c7.33301 36 22.833 63.833 46.5 83.5s51.834 29.5 84.501 29.5zM249.998 639.999h114l96 144h-147z" />
    <glyph glyph-name="ecircumflex" unicode="&#xea;" horiz-adv-x="612" 
d="M319 -12c55.333 0 103.832 12.499 145.499 37.499s70.834 56.833 87.501 95.5l-106 52c-12 -20.667 -28.5 -37.5 -49.5 -50.5s-46.5 -19.5 -76.5 -19.5c-39.333 0 -72.333 12 -99 36s-42 56 -46 96h392c2.66699 7.33301 4.5 15.833 5.5 25.5s1.5 19.5 1.5 29.5
c0 48.667 -10.333 93 -31 133s-50.667 72.167 -90 96.5s-87.333 36.5 -144 36.5c-50.667 0 -96.5 -12.333 -137.5 -37s-73.333 -58.167 -97 -100.5s-35.5 -90.833 -35.5 -145.5c0 -52.667 11.667 -100.667 35 -144s56 -77.666 98 -102.999s91 -38 147 -38zM308.999 447.999
c34.667 0 63.499 -10.5 86.499 -31.5s35.833 -48.167 38.5 -81.5h-256c7.33301 36 22.833 63.833 46.5 83.5s51.834 29.5 84.501 29.5zM117.998 639.999h122l66 79l68 -79h119l-120 144h-136z" />
    <glyph glyph-name="edieresis" unicode="&#xeb;" horiz-adv-x="612" 
d="M319 -12c55.333 0 103.832 12.499 145.499 37.499s70.834 56.833 87.501 95.5l-106 52c-12 -20.667 -28.5 -37.5 -49.5 -50.5s-46.5 -19.5 -76.5 -19.5c-39.333 0 -72.333 12 -99 36s-42 56 -46 96h392c2.66699 7.33301 4.5 15.833 5.5 25.5s1.5 19.5 1.5 29.5
c0 48.667 -10.333 93 -31 133s-50.667 72.167 -90 96.5s-87.333 36.5 -144 36.5c-50.667 0 -96.5 -12.333 -137.5 -37s-73.333 -58.167 -97 -100.5s-35.5 -90.833 -35.5 -145.5c0 -52.667 11.667 -100.667 35 -144s56 -77.666 98 -102.999s91 -38 147 -38zM308.999 447.999
c34.667 0 63.499 -10.5 86.499 -31.5s35.833 -48.167 38.5 -81.5h-256c7.33301 36 22.833 63.833 46.5 83.5s51.834 29.5 84.501 29.5zM209.998 644.999c19.333 0 36.166 7 50.499 21s21.5 31.333 21.5 52c0 20 -7.16699 37 -21.5 51s-31.166 21 -50.499 21
c-20.667 0 -38 -7 -52 -21s-21 -31 -21 -51s7 -37.167 21 -51.5s31.333 -21.5 52 -21.5zM404.998 644.999c19.333 0 36.166 7 50.499 21s21.5 31.333 21.5 52c0 20 -7.16699 37 -21.5 51s-31.166 21 -50.499 21c-20.667 0 -38 -7 -52 -21s-21 -31 -21 -51
s7 -37.167 21 -51.5s31.333 -21.5 52 -21.5z" />
    <glyph glyph-name="igrave" unicode="&#xec;" horiz-adv-x="228" 
d="M49 0h131v544h-131v-544zM57 640h115l-63 144h-147z" />
    <glyph glyph-name="iacute" unicode="&#xed;" horiz-adv-x="228" 
d="M49 0h131v544h-131v-544zM57 640h114l96 144h-147z" />
    <glyph glyph-name="icircumflex" unicode="&#xee;" horiz-adv-x="228" 
d="M49 0h131v544h-131v-544zM-74 640h122l66 79l68 -79h119l-120 144h-136z" />
    <glyph glyph-name="idieresis" unicode="&#xef;" horiz-adv-x="228" 
d="M49 0h131v544h-131v-544zM18 645c19.333 0 36.166 7 50.499 21s21.5 31.333 21.5 52c0 20 -7.16699 37 -21.5 51s-31.166 21 -50.499 21c-20.667 0 -38 -7 -52 -21s-21 -31 -21 -51s7 -37.167 21 -51.5s31.333 -21.5 52 -21.5zM213 645c19.333 0 36.166 7 50.499 21
s21.5 31.333 21.5 52c0 20 -7.16699 37 -21.5 51s-31.166 21 -50.499 21c-20.667 0 -38 -7 -52 -21s-21 -31 -21 -51s7 -37.167 21 -51.5s31.333 -21.5 52 -21.5z" />
    <glyph glyph-name="eth" unicode="&#xf0;" horiz-adv-x="652" 
d="M328 -12c54.667 0 103.5 12.668 146.5 38.001s77 63.333 102 114s37.5 114 37.5 190c0 64.667 -10.167 126.334 -30.5 185.001s-49.166 110 -86.499 154l65 25v60l-109 -42c-31.333 26 -66.5 46.5 -105.5 61.5s-81.5 22.5 -127.5 22.5
c-45.333 0 -92.666 -8.33301 -141.999 -25l15 -107c36 11.333 70.667 17 104 17c41.333 0 80.333 -7.66699 117 -23l-92 -35v-60l154 59c19.333 -14.667 36.166 -32.334 50.499 -53.001s25.166 -43.667 32.499 -69c-39.333 30.667 -86 46 -140 46
c-52.667 0 -100.167 -12.167 -142.5 -36.5s-75.833 -57.333 -100.5 -99s-37 -88.834 -37 -141.501c0 -54.667 13 -103.167 39 -145.5s61 -75.5 105 -99.5s92.333 -36 145 -36zM327 108.001c-28.667 0 -54.5 6.83301 -77.5 20.5s-41.167 32.667 -54.5 57s-20 51.833 -20 82.5
c0 45.333 14 83 42 113s64.667 45 110 45c30.667 0 57.167 -7 79.5 -21s39.666 -33 51.999 -57s18.5 -50.667 18.5 -80c0 -30 -6.5 -57.167 -19.5 -81.5s-30.667 -43.5 -53 -57.5s-48.166 -21 -77.499 -21z" />
    <glyph glyph-name="ntilde" unicode="&#xf1;" 
d="M61 0l131 0.000976562v319c0 35.333 10.167 63.666 30.5 84.999s46.833 32 79.5 32s59.167 -10.5 79.5 -31.5s30.5 -49.5 30.5 -85.5v-319h131v350c0 40.667 -8.66699 76.5 -26 107.5s-41.5 55.167 -72.5 72.5s-66.5 26 -106.5 26c-34 0 -64.5 -6.66699 -91.5 -20
s-47.833 -33 -62.5 -59v67h-123v-544zM369 652.001c28 0 49.832 10.168 65.499 30.501s23.5 54.166 23.5 101.499h-84c0 -11.333 -2.5 -21.333 -7.5 -30s-12.5 -13 -22.5 -13c-12 0 -22.5 4 -31.5 12s-19.5 16 -31.5 24s-28.333 12 -49 12
c-26.667 0 -49.334 -10.167 -68.001 -30.5s-28 -54.5 -28 -102.5h83c1.33301 12.667 4.33301 23.167 9 31.5s12.334 12.5 23.001 12.5c12 0 22.833 -4 32.5 -12s20.834 -16 33.501 -24s30 -12 52 -12z" />
    <glyph glyph-name="ograve" unicode="&#xf2;" horiz-adv-x="652" 
d="M327 -12c52.667 0 100.665 12.1689 143.998 36.502s78 58 104 101s39 91.833 39 146.5s-12.833 103.334 -38.5 146.001s-60.167 76.334 -103.5 101.001s-91.666 37 -144.999 37c-54 0 -102.667 -12.333 -146 -37s-77.833 -58.334 -103.5 -101.001
s-38.5 -91.334 -38.5 -146.001s12.833 -103.334 38.5 -146.001s60.334 -76.334 104.001 -101.001s92.167 -37 145.5 -37zM326.998 108.002c-29.333 0 -55.5 7 -78.5 21s-41 33.5 -54 58.5s-19.5 53.167 -19.5 84.5s6.5 59.333 19.5 84s31 44.167 54 58.5
s49.167 21.5 78.5 21.5s55.166 -7.16699 77.499 -21.5s40 -33.833 53 -58.5s19.5 -52.667 19.5 -84s-6.5 -59.5 -19.5 -84.5s-30.667 -44.5 -53 -58.5s-48.166 -21 -77.499 -21zM268.998 640.002h115l-63 144h-147z" />
    <glyph glyph-name="oacute" unicode="&#xf3;" horiz-adv-x="652" 
d="M327 -12c52.667 0 100.665 12.1689 143.998 36.502s78 58 104 101s39 91.833 39 146.5s-12.833 103.334 -38.5 146.001s-60.167 76.334 -103.5 101.001s-91.666 37 -144.999 37c-54 0 -102.667 -12.333 -146 -37s-77.833 -58.334 -103.5 -101.001
s-38.5 -91.334 -38.5 -146.001s12.833 -103.334 38.5 -146.001s60.334 -76.334 104.001 -101.001s92.167 -37 145.5 -37zM326.998 108.002c-29.333 0 -55.5 7 -78.5 21s-41 33.5 -54 58.5s-19.5 53.167 -19.5 84.5s6.5 59.333 19.5 84s31 44.167 54 58.5
s49.167 21.5 78.5 21.5s55.166 -7.16699 77.499 -21.5s40 -33.833 53 -58.5s19.5 -52.667 19.5 -84s-6.5 -59.5 -19.5 -84.5s-30.667 -44.5 -53 -58.5s-48.166 -21 -77.499 -21zM269.998 640.002h114l96 144h-147z" />
    <glyph glyph-name="ocircumflex" unicode="&#xf4;" horiz-adv-x="652" 
d="M327 -12c52.667 0 100.665 12.1689 143.998 36.502s78 58 104 101s39 91.833 39 146.5s-12.833 103.334 -38.5 146.001s-60.167 76.334 -103.5 101.001s-91.666 37 -144.999 37c-54 0 -102.667 -12.333 -146 -37s-77.833 -58.334 -103.5 -101.001
s-38.5 -91.334 -38.5 -146.001s12.833 -103.334 38.5 -146.001s60.334 -76.334 104.001 -101.001s92.167 -37 145.5 -37zM326.998 108.002c-29.333 0 -55.5 7 -78.5 21s-41 33.5 -54 58.5s-19.5 53.167 -19.5 84.5s6.5 59.333 19.5 84s31 44.167 54 58.5
s49.167 21.5 78.5 21.5s55.166 -7.16699 77.499 -21.5s40 -33.833 53 -58.5s19.5 -52.667 19.5 -84s-6.5 -59.5 -19.5 -84.5s-30.667 -44.5 -53 -58.5s-48.166 -21 -77.499 -21zM137.998 640.002h122l66 79l68 -79h119l-120 144h-136z" />
    <glyph glyph-name="otilde" unicode="&#xf5;" horiz-adv-x="652" 
d="M327 -12c52.667 0 100.665 12.1689 143.998 36.502s78 58 104 101s39 91.833 39 146.5s-12.833 103.334 -38.5 146.001s-60.167 76.334 -103.5 101.001s-91.666 37 -144.999 37c-54 0 -102.667 -12.333 -146 -37s-77.833 -58.334 -103.5 -101.001
s-38.5 -91.334 -38.5 -146.001s12.833 -103.334 38.5 -146.001s60.334 -76.334 104.001 -101.001s92.167 -37 145.5 -37zM326.998 108.002c-29.333 0 -55.5 7 -78.5 21s-41 33.5 -54 58.5s-19.5 53.167 -19.5 84.5s6.5 59.333 19.5 84s31 44.167 54 58.5
s49.167 21.5 78.5 21.5s55.166 -7.16699 77.499 -21.5s40 -33.833 53 -58.5s19.5 -52.667 19.5 -84s-6.5 -59.5 -19.5 -84.5s-30.667 -44.5 -53 -58.5s-48.166 -21 -77.499 -21zM398.998 652.002c28 0 49.832 10.168 65.499 30.501s23.5 54.166 23.5 101.499h-84
c0 -11.333 -2.5 -21.333 -7.5 -30s-12.5 -13 -22.5 -13c-12 0 -22.5 4 -31.5 12s-19.5 16 -31.5 24s-28.333 12 -49 12c-26.667 0 -49.334 -10.167 -68.001 -30.5s-28 -54.5 -28 -102.5h83c1.33301 12.667 4.33301 23.167 9 31.5s12.334 12.5 23.001 12.5
c12 0 22.833 -4 32.5 -12s20.834 -16 33.501 -24s30 -12 52 -12z" />
    <glyph glyph-name="odieresis" unicode="&#xf6;" horiz-adv-x="652" 
d="M327 -12c52.667 0 100.665 12.1689 143.998 36.502s78 58 104 101s39 91.833 39 146.5s-12.833 103.334 -38.5 146.001s-60.167 76.334 -103.5 101.001s-91.666 37 -144.999 37c-54 0 -102.667 -12.333 -146 -37s-77.833 -58.334 -103.5 -101.001
s-38.5 -91.334 -38.5 -146.001s12.833 -103.334 38.5 -146.001s60.334 -76.334 104.001 -101.001s92.167 -37 145.5 -37zM326.998 108.002c-29.333 0 -55.5 7 -78.5 21s-41 33.5 -54 58.5s-19.5 53.167 -19.5 84.5s6.5 59.333 19.5 84s31 44.167 54 58.5
s49.167 21.5 78.5 21.5s55.166 -7.16699 77.499 -21.5s40 -33.833 53 -58.5s19.5 -52.667 19.5 -84s-6.5 -59.5 -19.5 -84.5s-30.667 -44.5 -53 -58.5s-48.166 -21 -77.499 -21zM229.998 645.002c19.333 0 36.166 7 50.499 21s21.5 31.333 21.5 52
c0 20 -7.16699 37 -21.5 51s-31.166 21 -50.499 21c-20.667 0 -38 -7 -52 -21s-21 -31 -21 -51s7 -37.167 21 -51.5s31.333 -21.5 52 -21.5zM424.998 645.002c19.333 0 36.166 7 50.499 21s21.5 31.333 21.5 52c0 20 -7.16699 37 -21.5 51s-31.166 21 -50.499 21
c-20.667 0 -38 -7 -52 -21s-21 -31 -21 -51s7 -37.167 21 -51.5s31.333 -21.5 52 -21.5z" />
    <glyph glyph-name="divide" unicode="&#xf7;" horiz-adv-x="662" 
d="M264 386h133v114h-133v-114zM81 194h500v113h-500v-113zM264 0h133v114h-133v-114z" />
    <glyph glyph-name="oslash" unicode="&#xf8;" horiz-adv-x="652" 
d="M36 0h133l18 22c42.667 -22.667 89.334 -34 140.001 -34c52.667 0 100.667 12.167 144 36.5s78 58 104 101s39 91.833 39 146.5c0 36.667 -6 70.834 -18 102.501s-28.667 59.834 -50 84.501l70 85h-133l-18 -22c-42 22.667 -88 34 -138 34
c-53.333 0 -101.833 -12.333 -145.5 -37s-78.334 -58.334 -104.001 -101.001s-38.5 -91.334 -38.5 -146.001c0 -36.667 6 -70.667 18 -102s28.667 -59.333 50 -84zM175 272c0 31.333 6.5 59.333 19.5 84s31 44.167 54 58.5s49.167 21.5 78.5 21.5
c20.667 0 40 -3.66699 58 -11l-192 -234c-12 24 -18 51 -18 81zM327 108c-21.333 0 -41.334 4 -60.001 12l192 233c12 -24.667 18 -51.667 18 -81c0 -31.333 -6.5 -59.5 -19.5 -84.5s-30.667 -44.5 -53 -58.5s-48.166 -21 -77.499 -21z" />
    <glyph glyph-name="ugrave" unicode="&#xf9;" 
d="M255 -12c34 0 64.168 6.49902 90.501 19.499s47.166 32.167 62.499 57.5v-65h124v544h-131v-319c0 -36 -10.333 -64.5 -31 -85.5s-47 -31.5 -79 -31.5c-32.667 0 -59.167 10.333 -79.5 31s-30.5 48.334 -30.5 83.001v322h-131v-333c0 -66.667 18.167 -120.5 54.5 -161.5
s86.5 -61.5 150.5 -61.5zM239.001 639.999h115l-63 144h-147z" />
    <glyph glyph-name="uacute" unicode="&#xfa;" 
d="M255 -12c34 0 64.168 6.49902 90.501 19.499s47.166 32.167 62.499 57.5v-65h124v544h-131v-319c0 -36 -10.333 -64.5 -31 -85.5s-47 -31.5 -79 -31.5c-32.667 0 -59.167 10.333 -79.5 31s-30.5 48.334 -30.5 83.001v322h-131v-333c0 -66.667 18.167 -120.5 54.5 -161.5
s86.5 -61.5 150.5 -61.5zM240.001 639.999h114l96 144h-147z" />
    <glyph glyph-name="ucircumflex" unicode="&#xfb;" 
d="M255 -12c34 0 64.168 6.49902 90.501 19.499s47.166 32.167 62.499 57.5v-65h124v544h-131v-319c0 -36 -10.333 -64.5 -31 -85.5s-47 -31.5 -79 -31.5c-32.667 0 -59.167 10.333 -79.5 31s-30.5 48.334 -30.5 83.001v322h-131v-333c0 -66.667 18.167 -120.5 54.5 -161.5
s86.5 -61.5 150.5 -61.5zM108.001 639.999h122l66 79l68 -79h119l-120 144h-136z" />
    <glyph glyph-name="udieresis" unicode="&#xfc;" 
d="M255 -12c34 0 64.168 6.49902 90.501 19.499s47.166 32.167 62.499 57.5v-65h124v544h-131v-319c0 -36 -10.333 -64.5 -31 -85.5s-47 -31.5 -79 -31.5c-32.667 0 -59.167 10.333 -79.5 31s-30.5 48.334 -30.5 83.001v322h-131v-333c0 -66.667 18.167 -120.5 54.5 -161.5
s86.5 -61.5 150.5 -61.5zM200.001 644.999c19.333 0 36.166 7 50.499 21s21.5 31.333 21.5 52c0 20 -7.16699 37 -21.5 51s-31.166 21 -50.499 21c-20.667 0 -38 -7 -52 -21s-21 -31 -21 -51s7 -37.167 21 -51.5s31.333 -21.5 52 -21.5zM395.001 644.999
c19.333 0 36.166 7 50.499 21s21.5 31.333 21.5 52c0 20 -7.16699 37 -21.5 51s-31.166 21 -50.499 21c-20.667 0 -38 -7 -52 -21s-21 -31 -21 -51s7 -37.167 21 -51.5s31.333 -21.5 52 -21.5z" />
    <glyph glyph-name="yacute" unicode="&#xfd;" horiz-adv-x="586" 
d="M127 -221c51.333 0 94.168 14.498 128.501 43.498s61.833 69.833 82.5 122.5l237 599h-142l-140 -375l-141 375h-141l215 -544l-12 -29c-10.667 -22.667 -22.834 -41 -36.501 -55s-35.5 -21 -65.5 -21c-10.667 0 -22 0.833008 -34 2.5s-22.667 3.83398 -32 6.50098v-110
c11.333 -5.33301 24 -9.16602 38 -11.499s28.333 -3.5 43 -3.5zM236.002 639.998h114l96 144h-147z" />
    <glyph glyph-name="thorn" unicode="&#xfe;" horiz-adv-x="672" 
d="M61 -200h131v252c20 -20.667 44.333 -36.5 73 -47.5s59.667 -16.5 93 -16.5c52.667 0 99.667 12.5 141 37.5s74 59 98 102s36 91.167 36 144.5s-12 101.5 -36 144.5s-56.667 77 -98 102s-88 37.5 -140 37.5c-37.333 0 -71 -6.66699 -101 -20s-54.667 -32 -74 -56v265
h-123v-945zM343 108c-28.667 0 -54.5 7 -77.5 21s-41 33.333 -54 58s-19.5 53 -19.5 85s6.5 60.333 19.5 85s31 44 54 58s48.833 21 77.5 21c30 0 56.5 -7.16699 79.5 -21.5s41.167 -33.833 54.5 -58.5s20 -52.667 20 -84s-6.66699 -59.5 -20 -84.5s-31.5 -44.5 -54.5 -58.5
s-49.5 -21 -79.5 -21z" />
    <glyph glyph-name="ydieresis" unicode="&#xff;" horiz-adv-x="586" 
d="M127 -221c51.333 0 94.168 14.498 128.501 43.498s61.833 69.833 82.5 122.5l237 599h-142l-140 -375l-141 375h-141l215 -544l-12 -29c-10.667 -22.667 -22.834 -41 -36.501 -55s-35.5 -21 -65.5 -21c-10.667 0 -22 0.833008 -34 2.5s-22.667 3.83398 -32 6.50098v-110
c11.333 -5.33301 24 -9.16602 38 -11.499s28.333 -3.5 43 -3.5zM196.002 644.998c19.333 0 36.166 7 50.499 21s21.5 31.333 21.5 52c0 20 -7.16699 37 -21.5 51s-31.166 21 -50.499 21c-20.667 0 -38 -7 -52 -21s-21 -31 -21 -51s7 -37.167 21 -51.5s31.333 -21.5 52 -21.5
zM391.002 644.998c19.333 0 36.166 7 50.499 21s21.5 31.333 21.5 52c0 20 -7.16699 37 -21.5 51s-31.166 21 -50.499 21c-20.667 0 -38 -7 -52 -21s-21 -31 -21 -51s7 -37.167 21 -51.5s31.333 -21.5 52 -21.5z" />
    <glyph glyph-name="Amacron" unicode="&#x100;" horiz-adv-x="712" 
d="M11 0h147l54 160h288l53 -160h148l-257 745h-176zM251 280l105 314l105 -314h-210zM216 861h281v97h-281v-97z" />
    <glyph glyph-name="amacron" unicode="&#x101;" horiz-adv-x="580" 
d="M226 -12c70.667 0 127.335 23.334 170.002 70.001v-58h124v362c0 38 -9.66699 71.667 -29 101s-45.833 52.166 -79.5 68.499s-72.834 24.5 -117.501 24.5c-54.667 0 -103.334 -13 -146.001 -39s-72 -60.333 -88 -103l107 -52c10 24.667 25.667 44.5 47 59.5
s46.333 22.5 75 22.5c30 0 54.167 -7.83301 72.5 -23.5s27.5 -35.167 27.5 -58.5v-18l-162 -26c-64 -10.667 -111.333 -31 -142 -61s-46 -67.667 -46 -113c0 -48 17 -86 51 -114s79.333 -42 136 -42zM175.001 149.001c0 38 25.667 62 77 72l137 23v-22
c0 -37.333 -12.833 -69 -38.5 -95s-59.167 -39 -100.5 -39c-22 0 -40 5.5 -54 16.5s-21 25.833 -21 44.5zM151.001 659.001h281v97h-281v-97z" />
    <glyph glyph-name="Abreve" unicode="&#x102;" horiz-adv-x="712" 
d="M11 0h147l54 160h288l53 -160h148l-257 745h-176zM251 280l105 314l105 -314h-210zM356 842c30 0 57.1689 6.66699 81.502 20s43.666 31.166 57.999 53.499s21.5 46.5 21.5 72.5h-103c0 -15.333 -5.5 -28.166 -16.5 -38.499s-24.833 -15.5 -41.5 -15.5
s-30.5 5.16699 -41.5 15.5s-16.5 23.166 -16.5 38.499h-103c0 -26 7.33301 -50.167 22 -72.5s34.167 -40.166 58.5 -53.499s51.166 -20 80.499 -20z" />
    <glyph glyph-name="abreve" unicode="&#x103;" horiz-adv-x="580" 
d="M226 -12c70.667 0 127.335 23.334 170.002 70.001v-58h124v362c0 38 -9.66699 71.667 -29 101s-45.833 52.166 -79.5 68.499s-72.834 24.5 -117.501 24.5c-54.667 0 -103.334 -13 -146.001 -39s-72 -60.333 -88 -103l107 -52c10 24.667 25.667 44.5 47 59.5
s46.333 22.5 75 22.5c30 0 54.167 -7.83301 72.5 -23.5s27.5 -35.167 27.5 -58.5v-18l-162 -26c-64 -10.667 -111.333 -31 -142 -61s-46 -67.667 -46 -113c0 -48 17 -86 51 -114s79.333 -42 136 -42zM175.001 149.001c0 38 25.667 62 77 72l137 23v-22
c0 -37.333 -12.833 -69 -38.5 -95s-59.167 -39 -100.5 -39c-22 0 -40 5.5 -54 16.5s-21 25.833 -21 44.5zM291.001 640.001c30 0 57.1689 6.66699 81.502 20s43.666 31.166 57.999 53.499s21.5 46.5 21.5 72.5h-103c0 -15.333 -5.5 -28.166 -16.5 -38.499
s-24.833 -15.5 -41.5 -15.5s-30.5 5.16699 -41.5 15.5s-16.5 23.166 -16.5 38.499h-103c0 -26 7.33301 -50.167 22 -72.5s34.167 -40.166 58.5 -53.499s51.166 -20 80.499 -20z" />
    <glyph glyph-name="Aogonek" unicode="&#x104;" horiz-adv-x="712" 
d="M11 0h147l54 160h288l53 -160h148l-257 745h-176zM251 280l105 314l105 -314h-210zM599 -202c22 0 44.667 3.66797 68 11.001s47.333 20.666 72 39.999l-40 68c-13.333 -8 -27.333 -14.667 -42 -20s-29.667 -8 -45 -8c-19.333 0 -34.166 4.33301 -44.499 13
s-15.5 19.667 -15.5 33c0 14 6.83301 27.833 20.5 41.5s38.834 25.5 75.501 35.5v33h-40c-28.667 -3.33301 -54.834 -11.166 -78.501 -23.499s-42.334 -28 -56.001 -47s-20.5 -40.833 -20.5 -65.5c0 -34.667 14 -61.834 42 -81.501s62.667 -29.5 104 -29.5z" />
    <glyph glyph-name="aogonek" unicode="&#x105;" horiz-adv-x="580" 
d="M226 -12c70.667 0 127.335 23.334 170.002 70.001v-58h124v362c0 38 -9.66699 71.667 -29 101s-45.833 52.166 -79.5 68.499s-72.834 24.5 -117.501 24.5c-54.667 0 -103.334 -13 -146.001 -39s-72 -60.333 -88 -103l107 -52c10 24.667 25.667 44.5 47 59.5
s46.333 22.5 75 22.5c30 0 54.167 -7.83301 72.5 -23.5s27.5 -35.167 27.5 -58.5v-18l-162 -26c-64 -10.667 -111.333 -31 -142 -61s-46 -67.667 -46 -113c0 -48 17 -86 51 -114s79.333 -42 136 -42zM175.001 149.001c0 38 25.667 62 77 72l137 23v-22
c0 -37.333 -12.833 -69 -38.5 -95s-59.167 -39 -100.5 -39c-22 0 -40 5.5 -54 16.5s-21 25.833 -21 44.5zM464.001 -205.999c22 0 44.667 3.66797 68 11.001s47.333 20.666 72 39.999l-40 68c-13.333 -8 -27.333 -14.667 -42 -20s-29.667 -8 -45 -8
c-19.333 0 -34.166 4.33301 -44.499 13s-15.5 19.667 -15.5 33c0 14 6.83301 27.833 20.5 41.5s38.834 25.5 75.501 35.5v33h-40c-28.667 -3.33301 -54.834 -11.166 -78.501 -23.499s-42.334 -28 -56.001 -47s-20.5 -40.833 -20.5 -65.5c0 -34.667 14 -61.834 42 -81.501
s62.667 -29.5 104 -29.5z" />
    <glyph glyph-name="Cacute" unicode="&#x106;" horiz-adv-x="774" 
d="M422 -12c53.333 0 101.166 8.99805 143.499 26.998s78.166 41.833 107.499 71.5s50.333 62.167 63 97.5l-122 57c-14.667 -37.333 -38.5 -68.166 -71.5 -92.499s-73.167 -36.5 -120.5 -36.5c-46.667 0 -87.667 11 -123 33s-63 52.5 -83 91.5s-30 84.5 -30 136.5
s10 97.5 30 136.5s47.667 69.333 83 91s76.333 32.5 123 32.5c47.333 0 87.5 -12.167 120.5 -36.5s56.833 -55.166 71.5 -92.499l122 57c-12.667 35.333 -33.667 67.833 -63 97.5s-65.166 53.5 -107.499 71.5s-90.166 27 -143.499 27s-102.666 -9.5 -147.999 -28.5
s-84.666 -45.667 -117.999 -80s-59.333 -75 -78 -122s-28 -98.167 -28 -153.5s9.33301 -106.5 28 -153.5s44.667 -87.833 78 -122.5s72.666 -61.5 117.999 -80.5s94.666 -28.5 147.999 -28.5zM330 841.998h114l96 144h-147z" />
    <glyph glyph-name="cacute" unicode="&#x107;" horiz-adv-x="608" 
d="M323 -12c39.333 0 75.667 6.83496 109 20.502s62 32.667 86 57s41.333 51.833 52 82.5l-115 52c-10.667 -28.667 -27.5 -51.167 -50.5 -67.5s-50.167 -24.5 -81.5 -24.5c-28.667 0 -54.167 7 -76.5 21s-39.833 33.5 -52.5 58.5s-19 53.167 -19 84.5
c0 32 6.33301 60.333 19 85s30.167 44 52.5 58s47.833 21 76.5 21c31.333 0 58.5 -8.33301 81.5 -25s39.833 -38.667 50.5 -66l115 50c-11.333 32 -29 60.167 -53 84.5s-52.667 43.166 -86 56.499s-69.333 20 -108 20c-54 0 -102.5 -12.333 -145.5 -37
s-76.833 -58.334 -101.5 -101.001s-37 -91 -37 -145s12.333 -102.5 37 -145.5s58.5 -77 101.5 -102s91.5 -37.5 145.5 -37.5zM266.001 640.002h114l96 144h-147z" />
    <glyph glyph-name="Ccircumflex" unicode="&#x108;" horiz-adv-x="774" 
d="M422 -12c53.333 0 101.166 8.99805 143.499 26.998s78.166 41.833 107.499 71.5s50.333 62.167 63 97.5l-122 57c-14.667 -37.333 -38.5 -68.166 -71.5 -92.499s-73.167 -36.5 -120.5 -36.5c-46.667 0 -87.667 11 -123 33s-63 52.5 -83 91.5s-30 84.5 -30 136.5
s10 97.5 30 136.5s47.667 69.333 83 91s76.333 32.5 123 32.5c47.333 0 87.5 -12.167 120.5 -36.5s56.833 -55.166 71.5 -92.499l122 57c-12.667 35.333 -33.667 67.833 -63 97.5s-65.166 53.5 -107.499 71.5s-90.166 27 -143.499 27s-102.666 -9.5 -147.999 -28.5
s-84.666 -45.667 -117.999 -80s-59.333 -75 -78 -122s-28 -98.167 -28 -153.5s9.33301 -106.5 28 -153.5s44.667 -87.833 78 -122.5s72.666 -61.5 117.999 -80.5s94.666 -28.5 147.999 -28.5zM199 841.998h122l66 79l68 -79h119l-120 144h-136z" />
    <glyph glyph-name="ccircumflex" unicode="&#x109;" horiz-adv-x="608" 
d="M323 -12c39.333 0 75.667 6.83496 109 20.502s62 32.667 86 57s41.333 51.833 52 82.5l-115 52c-10.667 -28.667 -27.5 -51.167 -50.5 -67.5s-50.167 -24.5 -81.5 -24.5c-28.667 0 -54.167 7 -76.5 21s-39.833 33.5 -52.5 58.5s-19 53.167 -19 84.5
c0 32 6.33301 60.333 19 85s30.167 44 52.5 58s47.833 21 76.5 21c31.333 0 58.5 -8.33301 81.5 -25s39.833 -38.667 50.5 -66l115 50c-11.333 32 -29 60.167 -53 84.5s-52.667 43.166 -86 56.499s-69.333 20 -108 20c-54 0 -102.5 -12.333 -145.5 -37
s-76.833 -58.334 -101.5 -101.001s-37 -91 -37 -145s12.333 -102.5 37 -145.5s58.5 -77 101.5 -102s91.5 -37.5 145.5 -37.5zM134.001 640.002h122l66 79l68 -79h119l-120 144h-136z" />
    <glyph glyph-name="Cdotaccent" unicode="&#x10a;" horiz-adv-x="774" 
d="M422 -12c53.333 0 101.166 8.99805 143.499 26.998s78.166 41.833 107.499 71.5s50.333 62.167 63 97.5l-122 57c-14.667 -37.333 -38.5 -68.166 -71.5 -92.499s-73.167 -36.5 -120.5 -36.5c-46.667 0 -87.667 11 -123 33s-63 52.5 -83 91.5s-30 84.5 -30 136.5
s10 97.5 30 136.5s47.667 69.333 83 91s76.333 32.5 123 32.5c47.333 0 87.5 -12.167 120.5 -36.5s56.833 -55.166 71.5 -92.499l122 57c-12.667 35.333 -33.667 67.833 -63 97.5s-65.166 53.5 -107.499 71.5s-90.166 27 -143.499 27s-102.666 -9.5 -147.999 -28.5
s-84.666 -45.667 -117.999 -80s-59.333 -75 -78 -122s-28 -98.167 -28 -153.5s9.33301 -106.5 28 -153.5s44.667 -87.833 78 -122.5s72.666 -61.5 117.999 -80.5s94.666 -28.5 147.999 -28.5zM388 846.998c19.333 0 36.166 7 50.499 21s21.5 31.333 21.5 52
c0 20 -7.16699 37 -21.5 51s-31.166 21 -50.499 21c-20.667 0 -38 -7 -52 -21s-21 -31 -21 -51s7 -37.167 21 -51.5s31.333 -21.5 52 -21.5z" />
    <glyph glyph-name="cdotaccent" unicode="&#x10b;" horiz-adv-x="608" 
d="M323 -12c39.333 0 75.667 6.83496 109 20.502s62 32.667 86 57s41.333 51.833 52 82.5l-115 52c-10.667 -28.667 -27.5 -51.167 -50.5 -67.5s-50.167 -24.5 -81.5 -24.5c-28.667 0 -54.167 7 -76.5 21s-39.833 33.5 -52.5 58.5s-19 53.167 -19 84.5
c0 32 6.33301 60.333 19 85s30.167 44 52.5 58s47.833 21 76.5 21c31.333 0 58.5 -8.33301 81.5 -25s39.833 -38.667 50.5 -66l115 50c-11.333 32 -29 60.167 -53 84.5s-52.667 43.166 -86 56.499s-69.333 20 -108 20c-54 0 -102.5 -12.333 -145.5 -37
s-76.833 -58.334 -101.5 -101.001s-37 -91 -37 -145s12.333 -102.5 37 -145.5s58.5 -77 101.5 -102s91.5 -37.5 145.5 -37.5zM323.001 645.002c19.333 0 36.166 7 50.499 21s21.5 31.333 21.5 52c0 20 -7.16699 37 -21.5 51s-31.166 21 -50.499 21c-20.667 0 -38 -7 -52 -21
s-21 -31 -21 -51s7 -37.167 21 -51.5s31.333 -21.5 52 -21.5z" />
    <glyph glyph-name="Ccaron" unicode="&#x10c;" horiz-adv-x="774" 
d="M422 -12c53.333 0 101.166 8.99805 143.499 26.998s78.166 41.833 107.499 71.5s50.333 62.167 63 97.5l-122 57c-14.667 -37.333 -38.5 -68.166 -71.5 -92.499s-73.167 -36.5 -120.5 -36.5c-46.667 0 -87.667 11 -123 33s-63 52.5 -83 91.5s-30 84.5 -30 136.5
s10 97.5 30 136.5s47.667 69.333 83 91s76.333 32.5 123 32.5c47.333 0 87.5 -12.167 120.5 -36.5s56.833 -55.166 71.5 -92.499l122 57c-12.667 35.333 -33.667 67.833 -63 97.5s-65.166 53.5 -107.499 71.5s-90.166 27 -143.499 27s-102.666 -9.5 -147.999 -28.5
s-84.666 -45.667 -117.999 -80s-59.333 -75 -78 -122s-28 -98.167 -28 -153.5s9.33301 -106.5 28 -153.5s44.667 -87.833 78 -122.5s72.666 -61.5 117.999 -80.5s94.666 -28.5 147.999 -28.5zM319 841.998h136l120 144h-119l-68 -79l-66 79h-122z" />
    <glyph glyph-name="ccaron" unicode="&#x10d;" horiz-adv-x="608" 
d="M323 -12c39.333 0 75.667 6.83496 109 20.502s62 32.667 86 57s41.333 51.833 52 82.5l-115 52c-10.667 -28.667 -27.5 -51.167 -50.5 -67.5s-50.167 -24.5 -81.5 -24.5c-28.667 0 -54.167 7 -76.5 21s-39.833 33.5 -52.5 58.5s-19 53.167 -19 84.5
c0 32 6.33301 60.333 19 85s30.167 44 52.5 58s47.833 21 76.5 21c31.333 0 58.5 -8.33301 81.5 -25s39.833 -38.667 50.5 -66l115 50c-11.333 32 -29 60.167 -53 84.5s-52.667 43.166 -86 56.499s-69.333 20 -108 20c-54 0 -102.5 -12.333 -145.5 -37
s-76.833 -58.334 -101.5 -101.001s-37 -91 -37 -145s12.333 -102.5 37 -145.5s58.5 -77 101.5 -102s91.5 -37.5 145.5 -37.5zM254.001 640.002h136l120 144h-119l-68 -79l-66 79h-122z" />
    <glyph glyph-name="Dcaron" unicode="&#x10e;" horiz-adv-x="740" 
d="M72 0l243 -0.000976562c78.667 0 147.167 16 205.5 48s103.5 76 135.5 132s48 120.333 48 193c0 73.333 -16 137.833 -48 193.5s-77 99.334 -135 131.001s-126.667 47.5 -206 47.5h-243v-745zM208 119.999l-0.000976562 505.001h110c50.667 0 94.5 -10.333 131.5 -31
s65.833 -49.834 86.5 -87.501s31 -82.167 31 -133.5s-10.167 -96 -30.5 -134s-49.166 -67.333 -86.499 -88s-81.333 -31 -132 -31h-110zM307.999 842h136l120 144h-119l-68 -79l-66 79h-122z" />
    <glyph glyph-name="dcaron" unicode="&#x10f;" horiz-adv-x="845" 
d="M314 -12c35.333 0 68.001 6.16797 98.001 18.501s55 30.166 75 53.499v-60h124v757h-131v-268c-40.667 44.667 -96.334 67 -167.001 67c-51.333 0 -97.833 -12.5 -139.5 -37.5s-74.5 -59 -98.5 -102s-36 -91.167 -36 -144.5s12 -101.5 36 -144.5s56.667 -77 98 -102
s88.333 -37.5 141 -37.5zM328.001 108.001c-29.333 0 -55.666 7 -78.999 21s-41.5 33.5 -54.5 58.5s-19.5 53.167 -19.5 84.5s6.5 59.333 19.5 84s31.167 44.167 54.5 58.5s49.666 21.5 78.999 21.5s55.5 -7 78.5 -21s41 -33.333 54 -58s19.5 -53 19.5 -85
s-6.5 -60.333 -19.5 -85s-31 -44 -54 -58s-49.167 -21 -78.5 -21zM711.001 646.001h103l19 184h-141z" />
    <glyph glyph-name="Dcroat" unicode="&#x110;" horiz-adv-x="740" 
d="M72 0l243 -0.000976562c78.667 0 147.167 16 205.5 48s103.5 76 135.5 132s48 120.333 48 193c0 73.333 -16 137.833 -48 193.5s-77 99.334 -135 131.001s-126.667 47.5 -206 47.5h-243v-330h-94v-84h94v-331zM208 119.999l-0.000976562 211.001h195v84h-195v210h110
c50.667 0 94.5 -10.333 131.5 -31s65.833 -49.834 86.5 -87.501s31 -82.167 31 -133.5s-10.167 -96 -30.5 -134s-49.166 -67.333 -86.499 -88s-81.333 -31 -132 -31h-110z" />
    <glyph glyph-name="dcroat" unicode="&#x111;" horiz-adv-x="672" 
d="M314 -12c35.333 0 68.001 6.16797 98.001 18.501s55 30.166 75 53.499v-60h124v598h98v84h-98v75h-131v-75h-96v-84h96v-109c-40.667 44.667 -96.334 67 -167.001 67c-51.333 0 -97.833 -12.5 -139.5 -37.5s-74.5 -59 -98.5 -102s-36 -91.167 -36 -144.5
s12 -101.5 36 -144.5s56.667 -77 98 -102s88.333 -37.5 141 -37.5zM328.001 108.001c-29.333 0 -55.666 7 -78.999 21s-41.5 33.5 -54.5 58.5s-19.5 53.167 -19.5 84.5s6.5 59.333 19.5 84s31.167 44.167 54.5 58.5s49.666 21.5 78.999 21.5s55.5 -7 78.5 -21
s41 -33.333 54 -58s19.5 -53 19.5 -85s-6.5 -60.333 -19.5 -85s-31 -44 -54 -58s-49.167 -21 -78.5 -21z" />
    <glyph glyph-name="Emacron" unicode="&#x112;" horiz-adv-x="595" 
d="M72 0h495v120h-359v194h339v120h-339v191h359v120h-495v-745zM180 861h281v97h-281v-97z" />
    <glyph glyph-name="emacron" unicode="&#x113;" horiz-adv-x="612" 
d="M319 -12c55.333 0 103.832 12.499 145.499 37.499s70.834 56.833 87.501 95.5l-106 52c-12 -20.667 -28.5 -37.5 -49.5 -50.5s-46.5 -19.5 -76.5 -19.5c-39.333 0 -72.333 12 -99 36s-42 56 -46 96h392c2.66699 7.33301 4.5 15.833 5.5 25.5s1.5 19.5 1.5 29.5
c0 48.667 -10.333 93 -31 133s-50.667 72.167 -90 96.5s-87.333 36.5 -144 36.5c-50.667 0 -96.5 -12.333 -137.5 -37s-73.333 -58.167 -97 -100.5s-35.5 -90.833 -35.5 -145.5c0 -52.667 11.667 -100.667 35 -144s56 -77.666 98 -102.999s91 -38 147 -38zM308.999 447.999
c34.667 0 63.499 -10.5 86.499 -31.5s35.833 -48.167 38.5 -81.5h-256c7.33301 36 22.833 63.833 46.5 83.5s51.834 29.5 84.501 29.5zM166.998 658.999h281v97h-281v-97z" />
    <glyph glyph-name="Ebreve" unicode="&#x114;" horiz-adv-x="595" 
d="M72 0h495v120h-359v194h339v120h-339v191h359v120h-495v-745zM320 842c30 0 57.1689 6.66699 81.502 20s43.666 31.166 57.999 53.499s21.5 46.5 21.5 72.5h-103c0 -15.333 -5.5 -28.166 -16.5 -38.499s-24.833 -15.5 -41.5 -15.5s-30.5 5.16699 -41.5 15.5
s-16.5 23.166 -16.5 38.499h-103c0 -26 7.33301 -50.167 22 -72.5s34.167 -40.166 58.5 -53.499s51.166 -20 80.499 -20z" />
    <glyph glyph-name="ebreve" unicode="&#x115;" horiz-adv-x="612" 
d="M319 -12c55.333 0 103.832 12.499 145.499 37.499s70.834 56.833 87.501 95.5l-106 52c-12 -20.667 -28.5 -37.5 -49.5 -50.5s-46.5 -19.5 -76.5 -19.5c-39.333 0 -72.333 12 -99 36s-42 56 -46 96h392c2.66699 7.33301 4.5 15.833 5.5 25.5s1.5 19.5 1.5 29.5
c0 48.667 -10.333 93 -31 133s-50.667 72.167 -90 96.5s-87.333 36.5 -144 36.5c-50.667 0 -96.5 -12.333 -137.5 -37s-73.333 -58.167 -97 -100.5s-35.5 -90.833 -35.5 -145.5c0 -52.667 11.667 -100.667 35 -144s56 -77.666 98 -102.999s91 -38 147 -38zM308.999 447.999
c34.667 0 63.499 -10.5 86.499 -31.5s35.833 -48.167 38.5 -81.5h-256c7.33301 36 22.833 63.833 46.5 83.5s51.834 29.5 84.501 29.5zM306.998 639.999c30 0 57.1689 6.66699 81.502 20s43.666 31.166 57.999 53.499s21.5 46.5 21.5 72.5h-103
c0 -15.333 -5.5 -28.166 -16.5 -38.499s-24.833 -15.5 -41.5 -15.5s-30.5 5.16699 -41.5 15.5s-16.5 23.166 -16.5 38.499h-103c0 -26 7.33301 -50.167 22 -72.5s34.167 -40.166 58.5 -53.499s51.166 -20 80.499 -20z" />
    <glyph glyph-name="Edotaccent" unicode="&#x116;" horiz-adv-x="595" 
d="M72 0h495v120h-359v194h339v120h-339v191h359v120h-495v-745zM320 847c19.333 0 36.166 7 50.499 21s21.5 31.333 21.5 52c0 20 -7.16699 37 -21.5 51s-31.166 21 -50.499 21c-20.667 0 -38 -7 -52 -21s-21 -31 -21 -51s7 -37.167 21 -51.5s31.333 -21.5 52 -21.5z" />
    <glyph glyph-name="edotaccent" unicode="&#x117;" horiz-adv-x="612" 
d="M319 -12c55.333 0 103.832 12.499 145.499 37.499s70.834 56.833 87.501 95.5l-106 52c-12 -20.667 -28.5 -37.5 -49.5 -50.5s-46.5 -19.5 -76.5 -19.5c-39.333 0 -72.333 12 -99 36s-42 56 -46 96h392c2.66699 7.33301 4.5 15.833 5.5 25.5s1.5 19.5 1.5 29.5
c0 48.667 -10.333 93 -31 133s-50.667 72.167 -90 96.5s-87.333 36.5 -144 36.5c-50.667 0 -96.5 -12.333 -137.5 -37s-73.333 -58.167 -97 -100.5s-35.5 -90.833 -35.5 -145.5c0 -52.667 11.667 -100.667 35 -144s56 -77.666 98 -102.999s91 -38 147 -38zM308.999 447.999
c34.667 0 63.499 -10.5 86.499 -31.5s35.833 -48.167 38.5 -81.5h-256c7.33301 36 22.833 63.833 46.5 83.5s51.834 29.5 84.501 29.5zM306.998 644.999c19.333 0 36.166 7 50.499 21s21.5 31.333 21.5 52c0 20 -7.16699 37 -21.5 51s-31.166 21 -50.499 21
c-20.667 0 -38 -7 -52 -21s-21 -31 -21 -51s7 -37.167 21 -51.5s31.333 -21.5 52 -21.5z" />
    <glyph glyph-name="Eogonek" unicode="&#x118;" horiz-adv-x="595" 
d="M72 0h495v120h-359v194h339v120h-339v191h359v120h-495v-745zM438 -202c22 0 44.667 3.66797 68 11.001s47.333 20.666 72 39.999l-40 68c-13.333 -8 -27.333 -14.667 -42 -20s-29.667 -8 -45 -8c-19.333 0 -34.166 4.33301 -44.499 13s-15.5 19.667 -15.5 33
c0 14 6.83301 27.833 20.5 41.5s38.834 25.5 75.501 35.5v33h-40c-28.667 -3.33301 -54.834 -11.166 -78.501 -23.499s-42.334 -28 -56.001 -47s-20.5 -40.833 -20.5 -65.5c0 -34.667 14 -61.834 42 -81.501s62.667 -29.5 104 -29.5z" />
    <glyph glyph-name="eogonek" unicode="&#x119;" horiz-adv-x="612" 
d="M319 -12c55.333 0 103.832 12.499 145.499 37.499s70.834 56.833 87.501 95.5l-106 52c-12 -20.667 -28.5 -37.5 -49.5 -50.5s-46.5 -19.5 -76.5 -19.5c-39.333 0 -72.333 12 -99 36s-42 56 -46 96h392c2.66699 7.33301 4.5 15.833 5.5 25.5s1.5 19.5 1.5 29.5
c0 48.667 -10.333 93 -31 133s-50.667 72.167 -90 96.5s-87.333 36.5 -144 36.5c-50.667 0 -96.5 -12.333 -137.5 -37s-73.333 -58.167 -97 -100.5s-35.5 -90.833 -35.5 -145.5c0 -52.667 11.667 -100.667 35 -144s56 -77.666 98 -102.999s91 -38 147 -38zM308.999 447.999
c34.667 0 63.499 -10.5 86.499 -31.5s35.833 -48.167 38.5 -81.5h-256c7.33301 36 22.833 63.833 46.5 83.5s51.834 29.5 84.501 29.5zM289.998 -206.001c22 0 44.667 3.66797 68 11.001s47.333 20.666 72 39.999l-40 68c-13.333 -8 -27.333 -14.667 -42 -20
s-29.667 -8 -45 -8c-19.333 0 -34.166 4.33301 -44.499 13s-15.5 19.667 -15.5 33c0 14 6.83301 27.833 20.5 41.5s38.834 25.5 75.501 35.5v33h-40c-28.667 -3.33301 -54.834 -11.166 -78.501 -23.499s-42.334 -28 -56.001 -47s-20.5 -40.833 -20.5 -65.5
c0 -34.667 14 -61.834 42 -81.501s62.667 -29.5 104 -29.5z" />
    <glyph glyph-name="Ecaron" unicode="&#x11a;" horiz-adv-x="595" 
d="M72 0h495v120h-359v194h339v120h-339v191h359v120h-495v-745zM251 842h136l120 144h-119l-68 -79l-66 79h-122z" />
    <glyph glyph-name="ecaron" unicode="&#x11b;" horiz-adv-x="612" 
d="M319 -12c55.333 0 103.832 12.499 145.499 37.499s70.834 56.833 87.501 95.5l-106 52c-12 -20.667 -28.5 -37.5 -49.5 -50.5s-46.5 -19.5 -76.5 -19.5c-39.333 0 -72.333 12 -99 36s-42 56 -46 96h392c2.66699 7.33301 4.5 15.833 5.5 25.5s1.5 19.5 1.5 29.5
c0 48.667 -10.333 93 -31 133s-50.667 72.167 -90 96.5s-87.333 36.5 -144 36.5c-50.667 0 -96.5 -12.333 -137.5 -37s-73.333 -58.167 -97 -100.5s-35.5 -90.833 -35.5 -145.5c0 -52.667 11.667 -100.667 35 -144s56 -77.666 98 -102.999s91 -38 147 -38zM308.999 447.999
c34.667 0 63.499 -10.5 86.499 -31.5s35.833 -48.167 38.5 -81.5h-256c7.33301 36 22.833 63.833 46.5 83.5s51.834 29.5 84.501 29.5zM237.998 639.999h136l120 144h-119l-68 -79l-66 79h-122z" />
    <glyph glyph-name="Gcircumflex" unicode="&#x11c;" horiz-adv-x="808" 
d="M425 -12c44 0 86.665 7.49902 127.998 22.499s78.5 37.333 111.5 67s59.167 66.334 78.5 110.001s29 94.5 29 152.5v75h-350v-115h214v-3c0 -38 -9.66699 -70.833 -29 -98.5s-45 -49 -77 -64s-67 -22.5 -105 -22.5c-46.667 0 -88 11 -124 33s-64.167 52.5 -84.5 91.5
s-30.5 84.5 -30.5 136.5s10 97.5 30 136.5s47.667 69.333 83 91s76.333 32.5 123 32.5c47.333 0 87.666 -12 120.999 -36s57.333 -55.333 72 -94l121 58c-12.667 35.333 -33.667 67.833 -63 97.5s-65.166 53.5 -107.499 71.5s-90.166 27 -143.499 27
s-102.666 -9.5 -147.999 -28.5s-84.666 -45.667 -117.999 -80s-59.333 -75 -78 -122s-28 -98.167 -28 -153.5s9.5 -106.5 28.5 -153.5s45.5 -87.833 79.5 -122.5s73.667 -61.5 119 -80.5s94.666 -28.5 147.999 -28.5zM215.998 841.999h122l66 79l68 -79h119l-120 144h-136z
" />
    <glyph glyph-name="gcircumflex" unicode="&#x11d;" horiz-adv-x="652" 
d="M325 -220c52 0 98.002 10.6699 138.002 32.0029s71.333 50.666 94 87.999s34 79.666 34 126.999v517h-124v-63c-41.333 50 -97 75 -167 75c-50 0 -94.667 -11.5 -134 -34.5s-70.333 -54.5 -93 -94.5s-34 -85.667 -34 -137c0 -50.667 11.333 -96.334 34 -137.001
s54 -72.667 94 -96s85.333 -35 136 -35c66 0 118.333 21.333 157 64v-59c0 -40 -12.667 -71.167 -38 -93.5s-57.666 -33.5 -96.999 -33.5c-34.667 0 -63.834 7.83301 -87.501 23.5s-39.5 36.167 -47.5 61.5l-122 -46c17.333 -48 49.166 -86.5 95.499 -115.5
s100.166 -43.5 161.499 -43.5zM319.002 143.003c-42 0 -76.5 13.834 -103.5 41.501s-40.5 62.5 -40.5 104.5c0 28 6.16699 53.167 18.5 75.5s29.5 39.833 51.5 52.5s46.667 19 74 19c41.333 0 75.166 -13.833 101.499 -41.5s39.5 -62.834 39.5 -105.501
s-13.167 -77.667 -39.5 -105s-60.166 -41 -101.499 -41zM137.002 640.004h122l66 79l68 -79h119l-120 144h-136z" />
    <glyph glyph-name="Gbreve" unicode="&#x11e;" horiz-adv-x="808" 
d="M425 -12c44 0 86.665 7.49902 127.998 22.499s78.5 37.333 111.5 67s59.167 66.334 78.5 110.001s29 94.5 29 152.5v75h-350v-115h214v-3c0 -38 -9.66699 -70.833 -29 -98.5s-45 -49 -77 -64s-67 -22.5 -105 -22.5c-46.667 0 -88 11 -124 33s-64.167 52.5 -84.5 91.5
s-30.5 84.5 -30.5 136.5s10 97.5 30 136.5s47.667 69.333 83 91s76.333 32.5 123 32.5c47.333 0 87.666 -12 120.999 -36s57.333 -55.333 72 -94l121 58c-12.667 35.333 -33.667 67.833 -63 97.5s-65.166 53.5 -107.499 71.5s-90.166 27 -143.499 27
s-102.666 -9.5 -147.999 -28.5s-84.666 -45.667 -117.999 -80s-59.333 -75 -78 -122s-28 -98.167 -28 -153.5s9.5 -106.5 28.5 -153.5s45.5 -87.833 79.5 -122.5s73.667 -61.5 119 -80.5s94.666 -28.5 147.999 -28.5zM404.998 841.999c30 0 57.1689 6.66699 81.502 20
s43.666 31.166 57.999 53.499s21.5 46.5 21.5 72.5h-103c0 -15.333 -5.5 -28.166 -16.5 -38.499s-24.833 -15.5 -41.5 -15.5s-30.5 5.16699 -41.5 15.5s-16.5 23.166 -16.5 38.499h-103c0 -26 7.33301 -50.167 22 -72.5s34.167 -40.166 58.5 -53.499s51.166 -20 80.499 -20z
" />
    <glyph glyph-name="gbreve" unicode="&#x11f;" horiz-adv-x="652" 
d="M325 -220c52 0 98.002 10.6699 138.002 32.0029s71.333 50.666 94 87.999s34 79.666 34 126.999v517h-124v-63c-41.333 50 -97 75 -167 75c-50 0 -94.667 -11.5 -134 -34.5s-70.333 -54.5 -93 -94.5s-34 -85.667 -34 -137c0 -50.667 11.333 -96.334 34 -137.001
s54 -72.667 94 -96s85.333 -35 136 -35c66 0 118.333 21.333 157 64v-59c0 -40 -12.667 -71.167 -38 -93.5s-57.666 -33.5 -96.999 -33.5c-34.667 0 -63.834 7.83301 -87.501 23.5s-39.5 36.167 -47.5 61.5l-122 -46c17.333 -48 49.166 -86.5 95.499 -115.5
s100.166 -43.5 161.499 -43.5zM319.002 143.003c-42 0 -76.5 13.834 -103.5 41.501s-40.5 62.5 -40.5 104.5c0 28 6.16699 53.167 18.5 75.5s29.5 39.833 51.5 52.5s46.667 19 74 19c41.333 0 75.166 -13.833 101.499 -41.5s39.5 -62.834 39.5 -105.501
s-13.167 -77.667 -39.5 -105s-60.166 -41 -101.499 -41zM326.002 640.004c30 0 57.1689 6.66699 81.502 20s43.666 31.166 57.999 53.499s21.5 46.5 21.5 72.5h-103c0 -15.333 -5.5 -28.166 -16.5 -38.499s-24.833 -15.5 -41.5 -15.5s-30.5 5.16699 -41.5 15.5
s-16.5 23.166 -16.5 38.499h-103c0 -26 7.33301 -50.167 22 -72.5s34.167 -40.166 58.5 -53.499s51.166 -20 80.499 -20z" />
    <glyph glyph-name="Gdotaccent" unicode="&#x120;" horiz-adv-x="808" 
d="M425 -12c44 0 86.665 7.49902 127.998 22.499s78.5 37.333 111.5 67s59.167 66.334 78.5 110.001s29 94.5 29 152.5v75h-350v-115h214v-3c0 -38 -9.66699 -70.833 -29 -98.5s-45 -49 -77 -64s-67 -22.5 -105 -22.5c-46.667 0 -88 11 -124 33s-64.167 52.5 -84.5 91.5
s-30.5 84.5 -30.5 136.5s10 97.5 30 136.5s47.667 69.333 83 91s76.333 32.5 123 32.5c47.333 0 87.666 -12 120.999 -36s57.333 -55.333 72 -94l121 58c-12.667 35.333 -33.667 67.833 -63 97.5s-65.166 53.5 -107.499 71.5s-90.166 27 -143.499 27
s-102.666 -9.5 -147.999 -28.5s-84.666 -45.667 -117.999 -80s-59.333 -75 -78 -122s-28 -98.167 -28 -153.5s9.5 -106.5 28.5 -153.5s45.5 -87.833 79.5 -122.5s73.667 -61.5 119 -80.5s94.666 -28.5 147.999 -28.5zM404.998 846.999c19.333 0 36.166 7 50.499 21
s21.5 31.333 21.5 52c0 20 -7.16699 37 -21.5 51s-31.166 21 -50.499 21c-20.667 0 -38 -7 -52 -21s-21 -31 -21 -51s7 -37.167 21 -51.5s31.333 -21.5 52 -21.5z" />
    <glyph glyph-name="gdotaccent" unicode="&#x121;" horiz-adv-x="652" 
d="M325 -220c52 0 98.002 10.6699 138.002 32.0029s71.333 50.666 94 87.999s34 79.666 34 126.999v517h-124v-63c-41.333 50 -97 75 -167 75c-50 0 -94.667 -11.5 -134 -34.5s-70.333 -54.5 -93 -94.5s-34 -85.667 -34 -137c0 -50.667 11.333 -96.334 34 -137.001
s54 -72.667 94 -96s85.333 -35 136 -35c66 0 118.333 21.333 157 64v-59c0 -40 -12.667 -71.167 -38 -93.5s-57.666 -33.5 -96.999 -33.5c-34.667 0 -63.834 7.83301 -87.501 23.5s-39.5 36.167 -47.5 61.5l-122 -46c17.333 -48 49.166 -86.5 95.499 -115.5
s100.166 -43.5 161.499 -43.5zM319.002 143.003c-42 0 -76.5 13.834 -103.5 41.501s-40.5 62.5 -40.5 104.5c0 28 6.16699 53.167 18.5 75.5s29.5 39.833 51.5 52.5s46.667 19 74 19c41.333 0 75.166 -13.833 101.499 -41.5s39.5 -62.834 39.5 -105.501
s-13.167 -77.667 -39.5 -105s-60.166 -41 -101.499 -41zM326.002 645.004c19.333 0 36.166 7 50.499 21s21.5 31.333 21.5 52c0 20 -7.16699 37 -21.5 51s-31.166 21 -50.499 21c-20.667 0 -38 -7 -52 -21s-21 -31 -21 -51s7 -37.167 21 -51.5s31.333 -21.5 52 -21.5z" />
    <glyph glyph-name="uni0122" unicode="&#x122;" horiz-adv-x="808" 
d="M425 -12c44 0 86.665 7.49902 127.998 22.499s78.5 37.333 111.5 67s59.167 66.334 78.5 110.001s29 94.5 29 152.5v75h-350v-115h214v-3c0 -38 -9.66699 -70.833 -29 -98.5s-45 -49 -77 -64s-67 -22.5 -105 -22.5c-46.667 0 -88 11 -124 33s-64.167 52.5 -84.5 91.5
s-30.5 84.5 -30.5 136.5s10 97.5 30 136.5s47.667 69.333 83 91s76.333 32.5 123 32.5c47.333 0 87.666 -12 120.999 -36s57.333 -55.333 72 -94l121 58c-12.667 35.333 -33.667 67.833 -63 97.5s-65.166 53.5 -107.499 71.5s-90.166 27 -143.499 27
s-102.666 -9.5 -147.999 -28.5s-84.666 -45.667 -117.999 -80s-59.333 -75 -78 -122s-28 -98.167 -28 -153.5s9.5 -106.5 28.5 -153.5s45.5 -87.833 79.5 -122.5s73.667 -61.5 119 -80.5s94.666 -28.5 147.999 -28.5zM328.998 -376.001c101.333 21.333 152 91.333 152 210
v86h-132v-140h61c-8 -50 -35 -80.667 -81 -92v-64z" />
    <glyph glyph-name="uni0123" unicode="&#x123;" horiz-adv-x="652" 
d="M325 -220c52 0 98.002 10.6699 138.002 32.0029s71.333 50.666 94 87.999s34 79.666 34 126.999v517h-124v-63c-41.333 50 -97 75 -167 75c-50 0 -94.667 -11.5 -134 -34.5s-70.333 -54.5 -93 -94.5s-34 -85.667 -34 -137c0 -50.667 11.333 -96.334 34 -137.001
s54 -72.667 94 -96s85.333 -35 136 -35c66 0 118.333 21.333 157 64v-59c0 -40 -12.667 -71.167 -38 -93.5s-57.666 -33.5 -96.999 -33.5c-34.667 0 -63.834 7.83301 -87.501 23.5s-39.5 36.167 -47.5 61.5l-122 -46c17.333 -48 49.166 -86.5 95.499 -115.5
s100.166 -43.5 161.499 -43.5zM319.002 143.003c-42 0 -76.5 13.834 -103.5 41.501s-40.5 62.5 -40.5 104.5c0 28 6.16699 53.167 18.5 75.5s29.5 39.833 51.5 52.5s46.667 19 74 19c41.333 0 75.166 -13.833 101.499 -41.5s39.5 -62.834 39.5 -105.501
s-13.167 -77.667 -39.5 -105s-60.166 -41 -101.499 -41zM260.002 611.004l132 0.000976562v140h-61c3.33301 20 12 37.333 26 52s32.333 24.667 55 30v64c-50 -10.667 -87.833 -33.334 -113.5 -68.001s-38.5 -78.667 -38.5 -132v-86z" />
    <glyph glyph-name="Hcircumflex" unicode="&#x124;" horiz-adv-x="733" 
d="M72 0h136v300h317v-300h137v745h-137v-325h-317v325h-136v-745zM178 842h122l66 79l68 -79h119l-120 144h-136z" />
    <glyph glyph-name="hcircumflex" unicode="&#x125;" 
d="M61 0l130.998 0.000976562v319c0 35.333 10.333 63.666 31 84.999s47 32 79 32s58.333 -10.5 79 -31.5s31 -49.5 31 -85.5v-319h131v350c0 40.667 -8.66699 76.5 -26 107.5s-41.5 55.167 -72.5 72.5s-66.5 26 -106.5 26c-31.333 0 -59.666 -5.5 -84.999 -16.5
s-45.666 -27.5 -60.999 -49.5v267h-131v-757zM-62.002 851.001h122l66 79l68 -79h119l-120 144h-136z" />
    <glyph glyph-name="Hbar" unicode="&#x126;" horiz-adv-x="733" 
d="M72 0h136v300h317v-300h137v553h85v84h-85v108h-137v-108h-317v108h-136v-108h-85v-84h85v-553zM208 420v133h317v-133h-317z" />
    <glyph glyph-name="hbar" unicode="&#x127;" 
d="M61 0l130.998 0.000976562v319c0 35.333 10.333 63.666 31 84.999s47 32 79 32s58.333 -10.5 79 -31.5s31 -49.5 31 -85.5v-319h131v350c0 40.667 -8.66699 76.5 -26 107.5s-41.5 55.167 -72.5 72.5s-66.5 26 -106.5 26c-31.333 0 -59.666 -5.5 -84.999 -16.5
s-45.666 -27.5 -60.999 -49.5v108h97v84h-97v75h-131v-75h-97v-84h97v-598z" />
    <glyph glyph-name="Itilde" unicode="&#x128;" horiz-adv-x="279" 
d="M72 0h136v745h-136v-745zM213 854c28 0 49.832 10.168 65.499 30.501s23.5 54.166 23.5 101.499h-84c0 -11.333 -2.5 -21.333 -7.5 -30s-12.5 -13 -22.5 -13c-12 0 -22.5 4 -31.5 12s-19.5 16 -31.5 24s-28.333 12 -49 12c-26.667 0 -49.334 -10.167 -68.001 -30.5
s-28 -54.5 -28 -102.5h83c1.33301 12.667 4.33301 23.167 9 31.5s12.334 12.5 23.001 12.5c12 0 22.833 -4 32.5 -12s20.834 -16 33.501 -24s30 -12 52 -12z" />
    <glyph glyph-name="itilde" unicode="&#x129;" horiz-adv-x="228" 
d="M49 0h131v544h-131v-544zM187 652c28 0 49.832 10.168 65.499 30.501s23.5 54.166 23.5 101.499h-84c0 -11.333 -2.5 -21.333 -7.5 -30s-12.5 -13 -22.5 -13c-12 0 -22.5 4 -31.5 12s-19.5 16 -31.5 24s-28.333 12 -49 12c-26.667 0 -49.334 -10.167 -68.001 -30.5
s-28 -54.5 -28 -102.5h83c1.33301 12.667 4.33301 23.167 9 31.5s12.334 12.5 23.001 12.5c12 0 22.833 -4 32.5 -12s20.834 -16 33.501 -24s30 -12 52 -12z" />
    <glyph glyph-name="Imacron" unicode="&#x12a;" horiz-adv-x="279" 
d="M72 0h136v745h-136v-745zM0 861h281v97h-281v-97z" />
    <glyph glyph-name="imacron" unicode="&#x12b;" horiz-adv-x="228" 
d="M49 0h131v544h-131v-544zM-26 659h281v97h-281v-97z" />
    <glyph glyph-name="Ibreve" unicode="&#x12c;" horiz-adv-x="279" 
d="M72 0h136v745h-136v-745zM140 842c30 0 57.1689 6.66699 81.502 20s43.666 31.166 57.999 53.499s21.5 46.5 21.5 72.5h-103c0 -15.333 -5.5 -28.166 -16.5 -38.499s-24.833 -15.5 -41.5 -15.5s-30.5 5.16699 -41.5 15.5s-16.5 23.166 -16.5 38.499h-103
c0 -26 7.33301 -50.167 22 -72.5s34.167 -40.166 58.5 -53.499s51.166 -20 80.499 -20z" />
    <glyph glyph-name="ibreve" unicode="&#x12d;" horiz-adv-x="228" 
d="M49 0h131v544h-131v-544zM114 640c30 0 57.1689 6.66699 81.502 20s43.666 31.166 57.999 53.499s21.5 46.5 21.5 72.5h-103c0 -15.333 -5.5 -28.166 -16.5 -38.499s-24.833 -15.5 -41.5 -15.5s-30.5 5.16699 -41.5 15.5s-16.5 23.166 -16.5 38.499h-103
c0 -26 7.33301 -50.167 22 -72.5s34.167 -40.166 58.5 -53.499s51.166 -20 80.499 -20z" />
    <glyph glyph-name="Iogonek" unicode="&#x12e;" horiz-adv-x="279" 
d="M72 0h136v745h-136v-745zM111 -202c22 0 44.667 3.66797 68 11.001s47.333 20.666 72 39.999l-40 68c-13.333 -8 -27.333 -14.667 -42 -20s-29.667 -8 -45 -8c-19.333 0 -34.166 4.33301 -44.499 13s-15.5 19.667 -15.5 33c0 14 6.83301 27.833 20.5 41.5
s38.834 25.5 75.501 35.5v33h-40c-28.667 -3.33301 -54.834 -11.166 -78.501 -23.499s-42.334 -28 -56.001 -47s-20.5 -40.833 -20.5 -65.5c0 -34.667 14 -61.834 42 -81.501s62.667 -29.5 104 -29.5z" />
    <glyph glyph-name="iogonek" unicode="&#x12f;" horiz-adv-x="228" 
d="M49 0h131v544h-131v-544zM115 645c19.333 0 36.166 7 50.499 21s21.5 31.333 21.5 52c0 20 -7.16699 37 -21.5 51s-31.166 21 -50.499 21c-20.667 0 -38 -7 -52 -21s-21 -31 -21 -51s7 -37.167 21 -51.5s31.333 -21.5 52 -21.5zM85 -206c22 0 44.667 3.66797 68 11.001
s47.333 20.666 72 39.999l-40 68c-13.333 -8 -27.333 -14.667 -42 -20s-29.667 -8 -45 -8c-19.333 0 -34.166 4.33301 -44.499 13s-15.5 19.667 -15.5 33c0 14 6.83301 27.833 20.5 41.5s38.834 25.5 75.501 35.5v33h-40c-28.667 -3.33301 -54.834 -11.166 -78.501 -23.499
s-42.334 -28 -56.001 -47s-20.5 -40.833 -20.5 -65.5c0 -34.667 14 -61.834 42 -81.501s62.667 -29.5 104 -29.5z" />
    <glyph glyph-name="Idotaccent" unicode="&#x130;" horiz-adv-x="279" 
d="M72 0h136v745h-136v-745zM141 847c19.333 0 36.166 7 50.499 21s21.5 31.333 21.5 52c0 20 -7.16699 37 -21.5 51s-31.166 21 -50.499 21c-20.667 0 -38 -7 -52 -21s-21 -31 -21 -51s7 -37.167 21 -51.5s31.333 -21.5 52 -21.5z" />
    <glyph glyph-name="dotlessi" unicode="&#x131;" horiz-adv-x="228" 
d="M49 0h131v544h-131v-544z" />
    <glyph glyph-name="Jcircumflex" unicode="&#x134;" horiz-adv-x="393" 
d="M39 0h43.001c49.333 0 92.166 9.66699 128.499 29s64.333 46.333 84 81s29.5 75 29.5 121v514h-137v-519c0 -30.667 -9.5 -55.167 -28.5 -73.5s-44.5 -27.5 -76.5 -27.5h-43v-125zM67.001 842h122l66 79l68 -79h119l-120 144h-136z" />
    <glyph glyph-name="jcircumflex" unicode="&#x135;" horiz-adv-x="252" 
d="M-14 -221c63.333 0 113.5 16.667 150.5 50s55.5 81 55.5 143v572h-131v-572c0 -26 -7.83301 -45.5 -23.5 -58.5s-37.5 -19.5 -65.5 -19.5c-12.667 0 -24.667 1 -36 3v-114c6 -1.33301 13.667 -2.33301 23 -3s18.333 -1 27 -1zM-62 640h122l66 79l68 -79h119l-120 144
h-136z" />
    <glyph glyph-name="uni0136" unicode="&#x136;" horiz-adv-x="679" 
d="M72 0h136v209l100 119l200 -328h160l-267 439l258 306h-171l-280 -331v331h-136v-745zM264 -376c101.333 21.333 152 91.333 152 210v86h-132v-140h61c-8 -50 -35 -80.667 -81 -92v-64z" />
    <glyph glyph-name="uni0137" unicode="&#x137;" horiz-adv-x="577" 
d="M61 0h131v166l70 76l153 -242h150l-205 325l201 219h-163l-206 -216v429h-131v-757zM213 -376c101.333 21.333 152 91.333 152 210v86h-132v-140h61c-8 -50 -35 -80.667 -81 -92v-64z" />
    <glyph glyph-name="kgreenlandic" unicode="&#x138;" horiz-adv-x="577" 
d="M61 0h131v225h67l157 -225h150l-192 278l168 266h-146l-130 -202h-74v202h-131v-544z" />
    <glyph glyph-name="Lacute" unicode="&#x139;" horiz-adv-x="543" 
d="M72 0h455v120h-319v625h-136v-745zM83 842h114l96 144h-147z" />
    <glyph glyph-name="lacute" unicode="&#x13a;" horiz-adv-x="252" 
d="M61 0h131v757h-131v-757zM69 842h114l96 144h-147z" />
    <glyph glyph-name="uni013B" unicode="&#x13b;" horiz-adv-x="543" 
d="M72 0h455v120h-319v625h-136v-745zM223 -376c101.333 21.333 152 91.333 152 210v86h-132v-140h61c-8 -50 -35 -80.667 -81 -92v-64z" />
    <glyph glyph-name="uni013C" unicode="&#x13c;" horiz-adv-x="252" 
d="M61 0h131v757h-131v-757zM51 -376c101.333 21.333 152 91.333 152 210v86h-132v-140h61c-8 -50 -35 -80.667 -81 -92v-64z" />
    <glyph glyph-name="Lcaron" unicode="&#x13d;" horiz-adv-x="631" 
d="M72 0h455v120h-319v625h-136v-745zM382 561h103l19 184h-141z" />
    <glyph glyph-name="lcaron" unicode="&#x13e;" horiz-adv-x="426" 
d="M61 0h131v757h-131v-757zM292 646h103l19 184h-141z" />
    <glyph glyph-name="Ldot" unicode="&#x13f;" horiz-adv-x="543" 
d="M72 0h455v120h-319v625h-136v-745zM368 299c20 0 37 7 51 21s21 31.333 21 52c0 20 -7 37 -21 51s-31 21 -51 21s-37.167 -7 -51.5 -21s-21.5 -31 -21.5 -51s7.16699 -37.167 21.5 -51.5s31.5 -21.5 51.5 -21.5z" />
    <glyph glyph-name="ldot" unicode="&#x140;" horiz-adv-x="428" 
d="M61 0h131v757h-131v-757zM325 299c20 0 37 7 51 21s21 31.333 21 52c0 20 -7 37 -21 51s-31 21 -51 21s-37.167 -7 -51.5 -21s-21.5 -31 -21.5 -51s7.16699 -37.167 21.5 -51.5s31.5 -21.5 51.5 -21.5z" />
    <glyph glyph-name="Lslash" unicode="&#x141;" horiz-adv-x="543" 
d="M72 0h455v120h-319v229l101 30v88l-101 -30v308h-136v-348l-100 -30v-88l100 30v-309z" />
    <glyph glyph-name="lslash" unicode="&#x142;" horiz-adv-x="252" 
d="M61 0h131v370l78 27v89l-78 -27v298h-131v-344l-78 -27v-89l78 27v-324z" />
    <glyph glyph-name="Nacute" unicode="&#x143;" horiz-adv-x="741" 
d="M72 0h136v487l354 -487h107v745h-136v-478l-355 478h-106v-745zM313 842h114l96 144h-147z" />
    <glyph glyph-name="nacute" unicode="&#x144;" 
d="M61 0l131 0.000976562v319c0 35.333 10.167 63.666 30.5 84.999s46.833 32 79.5 32s59.167 -10.5 79.5 -31.5s30.5 -49.5 30.5 -85.5v-319h131v350c0 40.667 -8.66699 76.5 -26 107.5s-41.5 55.167 -72.5 72.5s-66.5 26 -106.5 26c-34 0 -64.5 -6.66699 -91.5 -20
s-47.833 -33 -62.5 -59v67h-123v-544zM240 640.001h114l96 144h-147z" />
    <glyph glyph-name="uni0145" unicode="&#x145;" horiz-adv-x="741" 
d="M72 0h136v487l354 -487h107v745h-136v-478l-355 478h-106v-745zM295 -376c101.333 21.333 152 91.333 152 210v86h-132v-140h61c-8 -50 -35 -80.667 -81 -92v-64z" />
    <glyph glyph-name="uni0146" unicode="&#x146;" 
d="M61 0l131 0.000976562v319c0 35.333 10.167 63.666 30.5 84.999s46.833 32 79.5 32s59.167 -10.5 79.5 -31.5s30.5 -49.5 30.5 -85.5v-319h131v350c0 40.667 -8.66699 76.5 -26 107.5s-41.5 55.167 -72.5 72.5s-66.5 26 -106.5 26c-34 0 -64.5 -6.66699 -91.5 -20
s-47.833 -33 -62.5 -59v67h-123v-544zM221 -375.999c101.333 21.333 152 91.333 152 210v86h-132v-140h61c-8 -50 -35 -80.667 -81 -92v-64z" />
    <glyph glyph-name="Ncaron" unicode="&#x147;" horiz-adv-x="741" 
d="M72 0h136v487l354 -487h107v745h-136v-478l-355 478h-106v-745zM302 842h136l120 144h-119l-68 -79l-66 79h-122z" />
    <glyph glyph-name="ncaron" unicode="&#x148;" 
d="M61 0l131 0.000976562v319c0 35.333 10.167 63.666 30.5 84.999s46.833 32 79.5 32s59.167 -10.5 79.5 -31.5s30.5 -49.5 30.5 -85.5v-319h131v350c0 40.667 -8.66699 76.5 -26 107.5s-41.5 55.167 -72.5 72.5s-66.5 26 -106.5 26c-34 0 -64.5 -6.66699 -91.5 -20
s-47.833 -33 -62.5 -59v67h-123v-544zM228 640.001h136l120 144h-119l-68 -79l-66 79h-122z" />
    <glyph glyph-name="Eng" unicode="&#x14a;" horiz-adv-x="741" 
d="M463 -221c63.333 0 113.5 16.667 150.5 50s55.5 81 55.5 143v773h-136v-478l-355 478h-106v-745h136v488l329 -454v-62c0 -26 -7.66699 -45.333 -23 -58s-37 -19 -65 -19c-12 0 -24 1 -36 3v-115c6 -1.33301 13.667 -2.33301 23 -3s18.333 -1 27 -1z" />
    <glyph glyph-name="eng" unicode="&#x14b;" horiz-adv-x="600" 
d="M331 -221c62.667 0 112.498 16.668 149.498 50.001s55.5 81 55.5 143v378c0 40.667 -8.66699 76.5 -26 107.5s-41.5 55.167 -72.5 72.5s-66.5 26 -106.5 26c-34 0 -64.167 -6.5 -90.5 -19.5s-47.166 -32.167 -62.499 -57.5v65h-124v-544h131v319
c0 35.333 10.333 63.666 31 84.999s47 32 79 32c32.667 0 59.167 -10.5 79.5 -31.5s30.5 -49.5 30.5 -85.5v-347c0 -26 -7.83301 -45.5 -23.5 -58.5s-37.5 -19.5 -65.5 -19.5c-12 0 -24 1 -36 3v-114c6 -1.33301 13.833 -2.33301 23.5 -3s18.834 -1 27.501 -1z" />
    <glyph glyph-name="Omacron" unicode="&#x14c;" horiz-adv-x="878" 
d="M439 -12c55.333 0 106.666 9.66699 153.999 29s88.666 46.333 123.999 81s62.833 75.5 82.5 122.5s29.5 97.833 29.5 152.5c0 55.333 -9.83301 106.333 -29.5 153s-47.167 87.167 -82.5 121.5s-76.666 61.166 -123.999 80.499s-98.666 29 -153.999 29
s-106.666 -9.66699 -153.999 -29s-88.5 -46.166 -123.5 -80.499s-62.333 -74.833 -82 -121.5s-29.5 -97.667 -29.5 -153c0 -54.667 9.83301 -105.5 29.5 -152.5s47.167 -87.833 82.5 -122.5s76.666 -61.667 123.999 -81s98.333 -29 153 -29zM439 112
c-48 0 -91.167 11.333 -129.5 34s-68.5 53.667 -90.5 93s-33 84 -33 134s11 94.5 33 133.5s52.167 69.833 90.5 92.5s81.5 34 129.5 34c48.667 0 92 -11.333 130 -34s68 -53.5 90 -92.5s33 -83.5 33 -133.5s-11 -94.667 -33 -134s-52 -70.333 -90 -93s-81.333 -34 -130 -34z
M299 861h281v97h-281v-97z" />
    <glyph glyph-name="omacron" unicode="&#x14d;" horiz-adv-x="652" 
d="M327 -12c52.667 0 100.665 12.1689 143.998 36.502s78 58 104 101s39 91.833 39 146.5s-12.833 103.334 -38.5 146.001s-60.167 76.334 -103.5 101.001s-91.666 37 -144.999 37c-54 0 -102.667 -12.333 -146 -37s-77.833 -58.334 -103.5 -101.001
s-38.5 -91.334 -38.5 -146.001s12.833 -103.334 38.5 -146.001s60.334 -76.334 104.001 -101.001s92.167 -37 145.5 -37zM326.998 108.002c-29.333 0 -55.5 7 -78.5 21s-41 33.5 -54 58.5s-19.5 53.167 -19.5 84.5s6.5 59.333 19.5 84s31 44.167 54 58.5
s49.167 21.5 78.5 21.5s55.166 -7.16699 77.499 -21.5s40 -33.833 53 -58.5s19.5 -52.667 19.5 -84s-6.5 -59.5 -19.5 -84.5s-30.667 -44.5 -53 -58.5s-48.166 -21 -77.499 -21zM186.998 659.002h281v97h-281v-97z" />
    <glyph glyph-name="Obreve" unicode="&#x14e;" horiz-adv-x="878" 
d="M439 -12c55.333 0 106.666 9.66699 153.999 29s88.666 46.333 123.999 81s62.833 75.5 82.5 122.5s29.5 97.833 29.5 152.5c0 55.333 -9.83301 106.333 -29.5 153s-47.167 87.167 -82.5 121.5s-76.666 61.166 -123.999 80.499s-98.666 29 -153.999 29
s-106.666 -9.66699 -153.999 -29s-88.5 -46.166 -123.5 -80.499s-62.333 -74.833 -82 -121.5s-29.5 -97.667 -29.5 -153c0 -54.667 9.83301 -105.5 29.5 -152.5s47.167 -87.833 82.5 -122.5s76.666 -61.667 123.999 -81s98.333 -29 153 -29zM439 112
c-48 0 -91.167 11.333 -129.5 34s-68.5 53.667 -90.5 93s-33 84 -33 134s11 94.5 33 133.5s52.167 69.833 90.5 92.5s81.5 34 129.5 34c48.667 0 92 -11.333 130 -34s68 -53.5 90 -92.5s33 -83.5 33 -133.5s-11 -94.667 -33 -134s-52 -70.333 -90 -93s-81.333 -34 -130 -34z
M439 842c30 0 57.1689 6.66699 81.502 20s43.666 31.166 57.999 53.499s21.5 46.5 21.5 72.5h-103c0 -15.333 -5.5 -28.166 -16.5 -38.499s-24.833 -15.5 -41.5 -15.5s-30.5 5.16699 -41.5 15.5s-16.5 23.166 -16.5 38.499h-103c0 -26 7.33301 -50.167 22 -72.5
s34.167 -40.166 58.5 -53.499s51.166 -20 80.499 -20z" />
    <glyph glyph-name="obreve" unicode="&#x14f;" horiz-adv-x="652" 
d="M327 -12c52.667 0 100.665 12.1689 143.998 36.502s78 58 104 101s39 91.833 39 146.5s-12.833 103.334 -38.5 146.001s-60.167 76.334 -103.5 101.001s-91.666 37 -144.999 37c-54 0 -102.667 -12.333 -146 -37s-77.833 -58.334 -103.5 -101.001
s-38.5 -91.334 -38.5 -146.001s12.833 -103.334 38.5 -146.001s60.334 -76.334 104.001 -101.001s92.167 -37 145.5 -37zM326.998 108.002c-29.333 0 -55.5 7 -78.5 21s-41 33.5 -54 58.5s-19.5 53.167 -19.5 84.5s6.5 59.333 19.5 84s31 44.167 54 58.5
s49.167 21.5 78.5 21.5s55.166 -7.16699 77.499 -21.5s40 -33.833 53 -58.5s19.5 -52.667 19.5 -84s-6.5 -59.5 -19.5 -84.5s-30.667 -44.5 -53 -58.5s-48.166 -21 -77.499 -21zM326.998 640.002c30 0 57.1689 6.66699 81.502 20s43.666 31.166 57.999 53.499
s21.5 46.5 21.5 72.5h-103c0 -15.333 -5.5 -28.166 -16.5 -38.499s-24.833 -15.5 -41.5 -15.5s-30.5 5.16699 -41.5 15.5s-16.5 23.166 -16.5 38.499h-103c0 -26 7.33301 -50.167 22 -72.5s34.167 -40.166 58.5 -53.499s51.166 -20 80.499 -20z" />
    <glyph glyph-name="Ohungarumlaut" unicode="&#x150;" horiz-adv-x="878" 
d="M439 -12c55.333 0 106.666 9.66699 153.999 29s88.666 46.333 123.999 81s62.833 75.5 82.5 122.5s29.5 97.833 29.5 152.5c0 55.333 -9.83301 106.333 -29.5 153s-47.167 87.167 -82.5 121.5s-76.666 61.166 -123.999 80.499s-98.666 29 -153.999 29
s-106.666 -9.66699 -153.999 -29s-88.5 -46.166 -123.5 -80.499s-62.333 -74.833 -82 -121.5s-29.5 -97.667 -29.5 -153c0 -54.667 9.83301 -105.5 29.5 -152.5s47.167 -87.833 82.5 -122.5s76.666 -61.667 123.999 -81s98.333 -29 153 -29zM439 112
c-48 0 -91.167 11.333 -129.5 34s-68.5 53.667 -90.5 93s-33 84 -33 134s11 94.5 33 133.5s52.167 69.833 90.5 92.5s81.5 34 129.5 34c48.667 0 92 -11.333 130 -34s68 -53.5 90 -92.5s33 -83.5 33 -133.5s-11 -94.667 -33 -134s-52 -70.333 -90 -93s-81.333 -34 -130 -34z
M289 842h114l96 144h-147zM475 842h115l95 144h-147z" />
    <glyph glyph-name="ohungarumlaut" unicode="&#x151;" horiz-adv-x="652" 
d="M327 -12c52.667 0 100.665 12.1689 143.998 36.502s78 58 104 101s39 91.833 39 146.5s-12.833 103.334 -38.5 146.001s-60.167 76.334 -103.5 101.001s-91.666 37 -144.999 37c-54 0 -102.667 -12.333 -146 -37s-77.833 -58.334 -103.5 -101.001
s-38.5 -91.334 -38.5 -146.001s12.833 -103.334 38.5 -146.001s60.334 -76.334 104.001 -101.001s92.167 -37 145.5 -37zM326.998 108.002c-29.333 0 -55.5 7 -78.5 21s-41 33.5 -54 58.5s-19.5 53.167 -19.5 84.5s6.5 59.333 19.5 84s31 44.167 54 58.5
s49.167 21.5 78.5 21.5s55.166 -7.16699 77.499 -21.5s40 -33.833 53 -58.5s19.5 -52.667 19.5 -84s-6.5 -59.5 -19.5 -84.5s-30.667 -44.5 -53 -58.5s-48.166 -21 -77.499 -21zM175.998 640.002h114l96 144h-147zM361.998 640.002h115l95 144h-147z" />
    <glyph glyph-name="OE" unicode="&#x152;" horiz-adv-x="1221" 
d="M439 -12c102.667 0 188.666 33.332 257.999 99.999v-88h495l1 120h-359v194h339v120h-339v191h359v120h-496v-86c-33.333 31.333 -72.166 55.5 -116.499 72.5s-91.5 25.5 -141.5 25.5c-55.333 0 -106.666 -9.66699 -153.999 -29s-88.5 -46.166 -123.5 -80.499
s-62.333 -74.833 -82 -121.5s-29.5 -97.667 -29.5 -153c0 -54.667 9.83301 -105.5 29.5 -152.5s47.167 -87.833 82.5 -122.5s76.666 -61.667 123.999 -81s98.333 -29 153 -29zM438.999 111.999c-48 0 -91.167 11.333 -129.5 34s-68.5 53.667 -90.5 93s-33 84 -33 134
s11 94.5 33 133.5s52.167 69.833 90.5 92.5s81.5 34 129.5 34c48.667 0 92 -11.333 130 -34s68 -53.5 90 -92.5s33 -83.5 33 -133.5s-11 -94.667 -33 -134s-52 -70.333 -90 -93s-81.333 -34 -130 -34z" />
    <glyph glyph-name="oe" unicode="&#x153;" horiz-adv-x="1055" 
d="M327 -12c44 0 84.832 8.66992 122.499 26.0029s69.5 41.333 95.5 72c25.333 -30 56.333 -53.833 93 -71.5s78 -26.5 124 -26.5c55.333 0 103.833 12.5 145.5 37.5s70.834 56.833 87.501 95.5l-106 52c-12 -20.667 -28.5 -37.5 -49.5 -50.5s-46.5 -19.5 -76.5 -19.5
c-39.333 0 -72.333 11.833 -99 35.5s-42 55.834 -46 96.501h392c2.66699 7.33301 4.5 15.833 5.5 25.5s1.5 19.5 1.5 29.5c0 48.667 -10.333 93 -31 133s-50.667 72.167 -90 96.5s-87.333 36.5 -144 36.5c-42.667 0 -81.834 -8.66699 -117.501 -26s-65.5 -41.333 -89.5 -72
c-26 30 -57.833 53.833 -95.5 71.5s-78.5 26.5 -122.5 26.5c-54 0 -102.667 -12.333 -146 -37s-77.833 -58.334 -103.5 -101.001s-38.5 -91.334 -38.5 -146.001s12.833 -103.334 38.5 -146.001s60.334 -76.334 104.001 -101.001s92.167 -37 145.5 -37zM620.999 335.003
c6.66699 36 22 63.833 46 83.5s52.333 29.5 85 29.5c34.667 0 63.667 -10.5 87 -31.5s36 -48.167 38 -81.5h-256zM326.999 108.003c-29.333 0 -55.5 7 -78.5 21s-41 33.5 -54 58.5s-19.5 53.167 -19.5 84.5s6.5 59.333 19.5 84s31 44.167 54 58.5s49.167 21.5 78.5 21.5
s55.166 -7.16699 77.499 -21.5s40 -33.833 53 -58.5s19.5 -52.667 19.5 -84s-6.5 -59.5 -19.5 -84.5s-30.667 -44.5 -53 -58.5s-48.166 -21 -77.499 -21z" />
    <glyph glyph-name="Racute" unicode="&#x154;" horiz-adv-x="661" 
d="M72 0l136.001 -0.000976562v275h128l154 -275h154l-171 299c41.333 17.333 74.166 44 98.499 80s36.5 79.667 36.5 131c0 50.667 -11 93.334 -33 128.001s-52.5 61.167 -91.5 79.5s-83.833 27.5 -134.5 27.5h-277v-745zM208.001 394.999v230h143
c36.667 0 66 -10.333 88 -31s33 -48.667 33 -84c0 -34.667 -11 -62.5 -33 -83.5s-51.333 -31.5 -88 -31.5h-143zM272.001 841.999h114l96 144h-147z" />
    <glyph glyph-name="racute" unicode="&#x155;" horiz-adv-x="374" 
d="M61 0h130.999v303c0 41.333 11.5 73.5 34.5 96.5s52.833 34.5 89.5 34.5h47v116h-32c-33.333 0 -62.666 -6 -87.999 -18s-45 -33.667 -59 -65v77h-123v-544zM154.999 640h114l96 144h-147z" />
    <glyph glyph-name="uni0156" unicode="&#x156;" horiz-adv-x="661" 
d="M72 0l136.001 -0.000976562v275h128l154 -275h154l-171 299c41.333 17.333 74.166 44 98.499 80s36.5 79.667 36.5 131c0 50.667 -11 93.334 -33 128.001s-52.5 61.167 -91.5 79.5s-83.833 27.5 -134.5 27.5h-277v-745zM208.001 394.999v230h143
c36.667 0 66 -10.333 88 -31s33 -48.667 33 -84c0 -34.667 -11 -62.5 -33 -83.5s-51.333 -31.5 -88 -31.5h-143zM254.001 -376.001c101.333 21.333 152 91.333 152 210v86h-132v-140h61c-8 -50 -35 -80.667 -81 -92v-64z" />
    <glyph glyph-name="uni0157" unicode="&#x157;" horiz-adv-x="374" 
d="M61 0h130.999v303c0 41.333 11.5 73.5 34.5 96.5s52.833 34.5 89.5 34.5h47v116h-32c-33.333 0 -62.666 -6 -87.999 -18s-45 -33.667 -59 -65v77h-123v-544zM50.999 -376c101.333 21.333 152 91.333 152 210v86h-132v-140h61c-8 -50 -35 -80.667 -81 -92v-64z" />
    <glyph glyph-name="Rcaron" unicode="&#x158;" horiz-adv-x="661" 
d="M72 0l136.001 -0.000976562v275h128l154 -275h154l-171 299c41.333 17.333 74.166 44 98.499 80s36.5 79.667 36.5 131c0 50.667 -11 93.334 -33 128.001s-52.5 61.167 -91.5 79.5s-83.833 27.5 -134.5 27.5h-277v-745zM208.001 394.999v230h143
c36.667 0 66 -10.333 88 -31s33 -48.667 33 -84c0 -34.667 -11 -62.5 -33 -83.5s-51.333 -31.5 -88 -31.5h-143zM261.001 841.999h136l120 144h-119l-68 -79l-66 79h-122z" />
    <glyph glyph-name="rcaron" unicode="&#x159;" horiz-adv-x="374" 
d="M61 0h130.999v303c0 41.333 11.5 73.5 34.5 96.5s52.833 34.5 89.5 34.5h47v116h-32c-33.333 0 -62.666 -6 -87.999 -18s-45 -33.667 -59 -65v77h-123v-544zM142.999 640h136l120 144h-119l-68 -79l-66 79h-122z" />
    <glyph glyph-name="Sacute" unicode="&#x15a;" horiz-adv-x="647" 
d="M338 -12c51.333 0 96.3359 9.33105 135.003 27.998s69 44.334 91 77.001s33 70.334 33 113.001c0 99.333 -59.333 168 -178 206l-137 43c-26.667 8.66699 -46.834 20.834 -60.501 36.501s-20.5 33.834 -20.5 54.501c0 27.333 10.5 49.5 31.5 66.5s48.833 25.5 83.5 25.5
c38.667 0 72.667 -10.167 102 -30.5s51.333 -49.166 66 -86.499l112 50c-20 56 -54.833 101 -104.5 135s-108.167 51 -175.5 51c-48.667 0 -91.834 -9.16699 -129.501 -27.5s-67 -43.833 -88 -76.5s-31.5 -70.334 -31.5 -113.001c0 -48.667 14.667 -90.834 44 -126.501
s73 -62.834 131 -81.501l143 -46c26 -8.66699 45.5 -20 58.5 -34s19.5 -32 19.5 -54c0 -27.333 -10.833 -49.333 -32.5 -66s-50.167 -25 -85.5 -25c-42.667 0 -81 12.167 -115 36.5s-60 57.833 -78 100.5l-113 -49c13.333 -41.333 34.5 -77.5 63.5 -108.5
s63.667 -55.167 104 -72.5s84.166 -26 131.499 -26zM267.003 841.998h114l96 144h-147z" />
    <glyph glyph-name="sacute" unicode="&#x15b;" horiz-adv-x="514" 
d="M268 -12c41.333 0 77.334 6.99902 108.001 20.999s54.667 33.5 72 58.5s26 53.833 26 86.5c0 38 -12 70.667 -36 98s-58.667 47.333 -104 60l-87 26c-18.667 5.33301 -34 12.333 -46 21s-18 20.667 -18 36c0 16 6.33301 29 19 39s30 15 52 15
c27.333 0 52.166 -7.33301 74.499 -22s37.833 -34.334 46.5 -59.001l100 47c-16.667 44 -44.667 78.5 -84 103.5s-84.666 37.5 -135.999 37.5c-39.333 0 -74.166 -7 -104.499 -21s-54 -33.5 -71 -58.5s-25.5 -54.167 -25.5 -87.5c0 -37.333 11.833 -69.666 35.5 -96.999
s58.5 -47.666 104.5 -60.999l89 -25c17.333 -4.66699 32.166 -11.5 44.499 -20.5s18.5 -21.167 18.5 -36.5c0 -18 -7.16699 -32.167 -21.5 -42.5s-33.166 -15.5 -56.499 -15.5c-30.667 0 -58.334 8.66699 -83.001 26s-44.334 41.333 -59.001 72l-98 -47
c16 -46.667 45.5 -84 88.5 -112s93.5 -42 151.5 -42zM200.001 639.999h114l96 144h-147z" />
    <glyph glyph-name="Scircumflex" unicode="&#x15c;" horiz-adv-x="647" 
d="M338 -12c51.333 0 96.3359 9.33105 135.003 27.998s69 44.334 91 77.001s33 70.334 33 113.001c0 99.333 -59.333 168 -178 206l-137 43c-26.667 8.66699 -46.834 20.834 -60.501 36.501s-20.5 33.834 -20.5 54.501c0 27.333 10.5 49.5 31.5 66.5s48.833 25.5 83.5 25.5
c38.667 0 72.667 -10.167 102 -30.5s51.333 -49.166 66 -86.499l112 50c-20 56 -54.833 101 -104.5 135s-108.167 51 -175.5 51c-48.667 0 -91.834 -9.16699 -129.501 -27.5s-67 -43.833 -88 -76.5s-31.5 -70.334 -31.5 -113.001c0 -48.667 14.667 -90.834 44 -126.501
s73 -62.834 131 -81.501l143 -46c26 -8.66699 45.5 -20 58.5 -34s19.5 -32 19.5 -54c0 -27.333 -10.833 -49.333 -32.5 -66s-50.167 -25 -85.5 -25c-42.667 0 -81 12.167 -115 36.5s-60 57.833 -78 100.5l-113 -49c13.333 -41.333 34.5 -77.5 63.5 -108.5
s63.667 -55.167 104 -72.5s84.166 -26 131.499 -26zM135.003 841.998h122l66 79l68 -79h119l-120 144h-136z" />
    <glyph glyph-name="scircumflex" unicode="&#x15d;" horiz-adv-x="514" 
d="M268 -12c41.333 0 77.334 6.99902 108.001 20.999s54.667 33.5 72 58.5s26 53.833 26 86.5c0 38 -12 70.667 -36 98s-58.667 47.333 -104 60l-87 26c-18.667 5.33301 -34 12.333 -46 21s-18 20.667 -18 36c0 16 6.33301 29 19 39s30 15 52 15
c27.333 0 52.166 -7.33301 74.499 -22s37.833 -34.334 46.5 -59.001l100 47c-16.667 44 -44.667 78.5 -84 103.5s-84.666 37.5 -135.999 37.5c-39.333 0 -74.166 -7 -104.499 -21s-54 -33.5 -71 -58.5s-25.5 -54.167 -25.5 -87.5c0 -37.333 11.833 -69.666 35.5 -96.999
s58.5 -47.666 104.5 -60.999l89 -25c17.333 -4.66699 32.166 -11.5 44.499 -20.5s18.5 -21.167 18.5 -36.5c0 -18 -7.16699 -32.167 -21.5 -42.5s-33.166 -15.5 -56.499 -15.5c-30.667 0 -58.334 8.66699 -83.001 26s-44.334 41.333 -59.001 72l-98 -47
c16 -46.667 45.5 -84 88.5 -112s93.5 -42 151.5 -42zM69.001 639.999h122l66 79l68 -79h119l-120 144h-136z" />
    <glyph glyph-name="Scedilla" unicode="&#x15e;" horiz-adv-x="647" 
d="M338 -12c51.333 0 96.3359 9.33105 135.003 27.998s69 44.334 91 77.001s33 70.334 33 113.001c0 99.333 -59.333 168 -178 206l-137 43c-26.667 8.66699 -46.834 20.834 -60.501 36.501s-20.5 33.834 -20.5 54.501c0 27.333 10.5 49.5 31.5 66.5s48.833 25.5 83.5 25.5
c38.667 0 72.667 -10.167 102 -30.5s51.333 -49.166 66 -86.499l112 50c-20 56 -54.833 101 -104.5 135s-108.167 51 -175.5 51c-48.667 0 -91.834 -9.16699 -129.501 -27.5s-67 -43.833 -88 -76.5s-31.5 -70.334 -31.5 -113.001c0 -48.667 14.667 -90.834 44 -126.501
s73 -62.834 131 -81.501l143 -46c26 -8.66699 45.5 -20 58.5 -34s19.5 -32 19.5 -54c0 -27.333 -10.833 -49.333 -32.5 -66s-50.167 -25 -85.5 -25c-42.667 0 -81 12.167 -115 36.5s-60 57.833 -78 100.5l-113 -49c13.333 -41.333 34.5 -77.5 63.5 -108.5
s63.667 -55.167 104 -72.5s84.166 -26 131.499 -26zM319.003 -251.002c49.333 0 86.167 10.502 110.5 31.502s36.5 45.833 36.5 74.5c0 26 -8.5 46.5 -25.5 61.5s-38.167 22.5 -63.5 22.5c-4.66699 0 -9.66699 -0.333008 -15 -1l5 62h-87l-15 -114l23 -11
c3.33301 1.33301 8.83301 2.66602 16.5 3.99902s15.167 2 22.5 2c22 0 33 -9.66699 33 -29c0 -22 -17 -33 -51 -33c-8 0 -18 0.666992 -30 2s-22.667 3.66602 -32 6.99902l-12 -68c13.333 -4 28 -6.83301 44 -8.5s29.333 -2.5 40 -2.5z" />
    <glyph glyph-name="scedilla" unicode="&#x15f;" horiz-adv-x="514" 
d="M268 -12c41.333 0 77.334 6.99902 108.001 20.999s54.667 33.5 72 58.5s26 53.833 26 86.5c0 38 -12 70.667 -36 98s-58.667 47.333 -104 60l-87 26c-18.667 5.33301 -34 12.333 -46 21s-18 20.667 -18 36c0 16 6.33301 29 19 39s30 15 52 15
c27.333 0 52.166 -7.33301 74.499 -22s37.833 -34.334 46.5 -59.001l100 47c-16.667 44 -44.667 78.5 -84 103.5s-84.666 37.5 -135.999 37.5c-39.333 0 -74.166 -7 -104.499 -21s-54 -33.5 -71 -58.5s-25.5 -54.167 -25.5 -87.5c0 -37.333 11.833 -69.666 35.5 -96.999
s58.5 -47.666 104.5 -60.999l89 -25c17.333 -4.66699 32.166 -11.5 44.499 -20.5s18.5 -21.167 18.5 -36.5c0 -18 -7.16699 -32.167 -21.5 -42.5s-33.166 -15.5 -56.499 -15.5c-30.667 0 -58.334 8.66699 -83.001 26s-44.334 41.333 -59.001 72l-98 -47
c16 -46.667 45.5 -84 88.5 -112s93.5 -42 151.5 -42zM252.001 -251.001c49.333 0 86.167 10.502 110.5 31.502s36.5 45.833 36.5 74.5c0 26 -8.5 46.5 -25.5 61.5s-38.167 22.5 -63.5 22.5c-4.66699 0 -9.66699 -0.333008 -15 -1l5 62h-87l-15 -114l23 -11
c3.33301 1.33301 8.83301 2.66602 16.5 3.99902s15.167 2 22.5 2c22 0 33 -9.66699 33 -29c0 -22 -17 -33 -51 -33c-8 0 -18 0.666992 -30 2s-22.667 3.66602 -32 6.99902l-12 -68c13.333 -4 28 -6.83301 44 -8.5s29.333 -2.5 40 -2.5z" />
    <glyph glyph-name="Scaron" unicode="&#x160;" horiz-adv-x="647" 
d="M338 -12c51.333 0 96.3359 9.33105 135.003 27.998s69 44.334 91 77.001s33 70.334 33 113.001c0 99.333 -59.333 168 -178 206l-137 43c-26.667 8.66699 -46.834 20.834 -60.501 36.501s-20.5 33.834 -20.5 54.501c0 27.333 10.5 49.5 31.5 66.5s48.833 25.5 83.5 25.5
c38.667 0 72.667 -10.167 102 -30.5s51.333 -49.166 66 -86.499l112 50c-20 56 -54.833 101 -104.5 135s-108.167 51 -175.5 51c-48.667 0 -91.834 -9.16699 -129.501 -27.5s-67 -43.833 -88 -76.5s-31.5 -70.334 -31.5 -113.001c0 -48.667 14.667 -90.834 44 -126.501
s73 -62.834 131 -81.501l143 -46c26 -8.66699 45.5 -20 58.5 -34s19.5 -32 19.5 -54c0 -27.333 -10.833 -49.333 -32.5 -66s-50.167 -25 -85.5 -25c-42.667 0 -81 12.167 -115 36.5s-60 57.833 -78 100.5l-113 -49c13.333 -41.333 34.5 -77.5 63.5 -108.5
s63.667 -55.167 104 -72.5s84.166 -26 131.499 -26zM255.003 841.998h136l120 144h-119l-68 -79l-66 79h-122z" />
    <glyph glyph-name="scaron" unicode="&#x161;" horiz-adv-x="514" 
d="M268 -12c41.333 0 77.334 6.99902 108.001 20.999s54.667 33.5 72 58.5s26 53.833 26 86.5c0 38 -12 70.667 -36 98s-58.667 47.333 -104 60l-87 26c-18.667 5.33301 -34 12.333 -46 21s-18 20.667 -18 36c0 16 6.33301 29 19 39s30 15 52 15
c27.333 0 52.166 -7.33301 74.499 -22s37.833 -34.334 46.5 -59.001l100 47c-16.667 44 -44.667 78.5 -84 103.5s-84.666 37.5 -135.999 37.5c-39.333 0 -74.166 -7 -104.499 -21s-54 -33.5 -71 -58.5s-25.5 -54.167 -25.5 -87.5c0 -37.333 11.833 -69.666 35.5 -96.999
s58.5 -47.666 104.5 -60.999l89 -25c17.333 -4.66699 32.166 -11.5 44.499 -20.5s18.5 -21.167 18.5 -36.5c0 -18 -7.16699 -32.167 -21.5 -42.5s-33.166 -15.5 -56.499 -15.5c-30.667 0 -58.334 8.66699 -83.001 26s-44.334 41.333 -59.001 72l-98 -47
c16 -46.667 45.5 -84 88.5 -112s93.5 -42 151.5 -42zM189.001 639.999h136l120 144h-119l-68 -79l-66 79h-122z" />
    <glyph glyph-name="uni0162" unicode="&#x162;" horiz-adv-x="542" 
d="M204 0h137v625h190v120h-520v-120h193v-625zM266 -251c49.333 0 86.167 10.502 110.5 31.502s36.5 45.833 36.5 74.5c0 26 -8.5 46.5 -25.5 61.5s-38.167 22.5 -63.5 22.5c-4.66699 0 -9.66699 -0.333008 -15 -1l5 62h-87l-15 -114l23 -11
c3.33301 1.33301 8.83301 2.66602 16.5 3.99902s15.167 2 22.5 2c22 0 33 -9.66699 33 -29c0 -22 -17 -33 -51 -33c-8 0 -18 0.666992 -30 2s-22.667 3.66602 -32 6.99902l-12 -68c13.333 -4 28 -6.83301 44 -8.5s29.333 -2.5 40 -2.5z" />
    <glyph glyph-name="uni0163" unicode="&#x163;" horiz-adv-x="413" 
d="M309 -6c22 0 43.6689 1.66699 65.002 5v113c-12.667 -2 -24.334 -3 -35.001 -3c-32 0 -55.333 7.33301 -70 22s-22 35.667 -22 63v233h125v117h-125v124h-131v-42c0 -26.667 -7.33301 -47 -22 -61s-35.334 -21 -62.001 -21h-10v-117h94v-240
c0 -60.667 16.833 -108 50.5 -142s81.167 -51 142.5 -51zM297.002 -251c49.333 0 86.167 10.502 110.5 31.502s36.5 45.833 36.5 74.5c0 26 -8.5 46.5 -25.5 61.5s-38.167 22.5 -63.5 22.5c-4.66699 0 -9.66699 -0.333008 -15 -1l5 62h-87l-15 -114l23 -11
c3.33301 1.33301 8.83301 2.66602 16.5 3.99902s15.167 2 22.5 2c22 0 33 -9.66699 33 -29c0 -22 -17 -33 -51 -33c-8 0 -18 0.666992 -30 2s-22.667 3.66602 -32 6.99902l-12 -68c13.333 -4 28 -6.83301 44 -8.5s29.333 -2.5 40 -2.5z" />
    <glyph glyph-name="Tcaron" unicode="&#x164;" horiz-adv-x="542" 
d="M204 0h137v625h190v120h-520v-120h193v-625zM202 842h136l120 144h-119l-68 -79l-66 79h-122z" />
    <glyph glyph-name="tcaron" unicode="&#x165;" horiz-adv-x="491" 
d="M309 -6c22 0 43.6689 1.66699 65.002 5v113c-12.667 -2 -24.334 -3 -35.001 -3c-32 0 -55.333 7.33301 -70 22s-22 35.667 -22 63v233h125v117h-125v124h-131v-42c0 -26.667 -7.33301 -47 -22 -61s-35.334 -21 -62.001 -21h-10v-117h94v-240
c0 -60.667 16.833 -108 50.5 -142s81.167 -51 142.5 -51zM349.002 646h103l19 184h-141z" />
    <glyph glyph-name="Tbar" unicode="&#x166;" horiz-adv-x="542" 
d="M204 0h137v331h143v84h-143v210h190v120h-520v-120h193v-210h-145v-84h145v-331z" />
    <glyph glyph-name="tbar" unicode="&#x167;" horiz-adv-x="413" 
d="M24 214h92.002v-27c0 -60.667 16.833 -108 50.5 -142s81.167 -51 142.5 -51c22 0 43.667 1.66699 65 5v113c-12.667 -2 -24.334 -3 -35.001 -3c-32 0 -55.333 7.33301 -70 22s-22 35.667 -22 63v20h127v116h-127v97h125v117h-125v124h-131v-42
c0 -26.667 -7.33301 -47 -22 -61s-35.334 -21 -62.001 -21h-10v-117h94v-97h-92v-116z" />
    <glyph glyph-name="Utilde" unicode="&#x168;" horiz-adv-x="718" 
d="M359 -12c57.333 0 108.171 12 152.504 36s79.166 57 104.499 99s38 89.667 38 143v479h-136v-472c0 -31.333 -6.83301 -59.166 -20.5 -83.499s-32.334 -43.333 -56.001 -57s-51.167 -20.5 -82.5 -20.5c-30.667 0 -58 6.83301 -82 20.5s-42.833 32.667 -56.5 57
s-20.5 52.166 -20.5 83.499v472h-136v-479c0 -53.333 12.667 -101 38 -143s60.166 -75 104.499 -99s95.166 -36 152.499 -36zM432.005 854c28 0 49.832 10.168 65.499 30.501s23.5 54.166 23.5 101.499h-84c0 -11.333 -2.5 -21.333 -7.5 -30s-12.5 -13 -22.5 -13
c-12 0 -22.5 4 -31.5 12s-19.5 16 -31.5 24s-28.333 12 -49 12c-26.667 0 -49.334 -10.167 -68.001 -30.5s-28 -54.5 -28 -102.5h83c1.33301 12.667 4.33301 23.167 9 31.5s12.334 12.5 23.001 12.5c12 0 22.833 -4 32.5 -12s20.834 -16 33.501 -24s30 -12 52 -12z" />
    <glyph glyph-name="utilde" unicode="&#x169;" 
d="M255 -12c34 0 64.168 6.49902 90.501 19.499s47.166 32.167 62.499 57.5v-65h124v544h-131v-319c0 -36 -10.333 -64.5 -31 -85.5s-47 -31.5 -79 -31.5c-32.667 0 -59.167 10.333 -79.5 31s-30.5 48.334 -30.5 83.001v322h-131v-333c0 -66.667 18.167 -120.5 54.5 -161.5
s86.5 -61.5 150.5 -61.5zM369.001 651.999c28 0 49.832 10.168 65.499 30.501s23.5 54.166 23.5 101.499h-84c0 -11.333 -2.5 -21.333 -7.5 -30s-12.5 -13 -22.5 -13c-12 0 -22.5 4 -31.5 12s-19.5 16 -31.5 24s-28.333 12 -49 12c-26.667 0 -49.334 -10.167 -68.001 -30.5
s-28 -54.5 -28 -102.5h83c1.33301 12.667 4.33301 23.167 9 31.5s12.334 12.5 23.001 12.5c12 0 22.833 -4 32.5 -12s20.834 -16 33.501 -24s30 -12 52 -12z" />
    <glyph glyph-name="Umacron" unicode="&#x16a;" horiz-adv-x="718" 
d="M359 -12c57.333 0 108.171 12 152.504 36s79.166 57 104.499 99s38 89.667 38 143v479h-136v-472c0 -31.333 -6.83301 -59.166 -20.5 -83.499s-32.334 -43.333 -56.001 -57s-51.167 -20.5 -82.5 -20.5c-30.667 0 -58 6.83301 -82 20.5s-42.833 32.667 -56.5 57
s-20.5 52.166 -20.5 83.499v472h-136v-479c0 -53.333 12.667 -101 38 -143s60.166 -75 104.499 -99s95.166 -36 152.499 -36zM219.005 861h281v97h-281v-97z" />
    <glyph glyph-name="umacron" unicode="&#x16b;" 
d="M255 -12c34 0 64.168 6.49902 90.501 19.499s47.166 32.167 62.499 57.5v-65h124v544h-131v-319c0 -36 -10.333 -64.5 -31 -85.5s-47 -31.5 -79 -31.5c-32.667 0 -59.167 10.333 -79.5 31s-30.5 48.334 -30.5 83.001v322h-131v-333c0 -66.667 18.167 -120.5 54.5 -161.5
s86.5 -61.5 150.5 -61.5zM157.001 658.999h281v97h-281v-97z" />
    <glyph glyph-name="Ubreve" unicode="&#x16c;" horiz-adv-x="718" 
d="M359 -12c57.333 0 108.171 12 152.504 36s79.166 57 104.499 99s38 89.667 38 143v479h-136v-472c0 -31.333 -6.83301 -59.166 -20.5 -83.499s-32.334 -43.333 -56.001 -57s-51.167 -20.5 -82.5 -20.5c-30.667 0 -58 6.83301 -82 20.5s-42.833 32.667 -56.5 57
s-20.5 52.166 -20.5 83.499v472h-136v-479c0 -53.333 12.667 -101 38 -143s60.166 -75 104.499 -99s95.166 -36 152.499 -36zM359.005 842c30 0 57.1689 6.66699 81.502 20s43.666 31.166 57.999 53.499s21.5 46.5 21.5 72.5h-103c0 -15.333 -5.5 -28.166 -16.5 -38.499
s-24.833 -15.5 -41.5 -15.5s-30.5 5.16699 -41.5 15.5s-16.5 23.166 -16.5 38.499h-103c0 -26 7.33301 -50.167 22 -72.5s34.167 -40.166 58.5 -53.499s51.166 -20 80.499 -20z" />
    <glyph glyph-name="ubreve" unicode="&#x16d;" 
d="M255 -12c34 0 64.168 6.49902 90.501 19.499s47.166 32.167 62.499 57.5v-65h124v544h-131v-319c0 -36 -10.333 -64.5 -31 -85.5s-47 -31.5 -79 -31.5c-32.667 0 -59.167 10.333 -79.5 31s-30.5 48.334 -30.5 83.001v322h-131v-333c0 -66.667 18.167 -120.5 54.5 -161.5
s86.5 -61.5 150.5 -61.5zM297.001 639.999c30 0 57.1689 6.66699 81.502 20s43.666 31.166 57.999 53.499s21.5 46.5 21.5 72.5h-103c0 -15.333 -5.5 -28.166 -16.5 -38.499s-24.833 -15.5 -41.5 -15.5s-30.5 5.16699 -41.5 15.5s-16.5 23.166 -16.5 38.499h-103
c0 -26 7.33301 -50.167 22 -72.5s34.167 -40.166 58.5 -53.499s51.166 -20 80.499 -20z" />
    <glyph glyph-name="Uring" unicode="&#x16e;" horiz-adv-x="718" 
d="M359 -12c57.333 0 108.171 12 152.504 36s79.166 57 104.499 99s38 89.667 38 143v479h-136v-472c0 -31.333 -6.83301 -59.166 -20.5 -83.499s-32.334 -43.333 -56.001 -57s-51.167 -20.5 -82.5 -20.5c-30.667 0 -58 6.83301 -82 20.5s-42.833 32.667 -56.5 57
s-20.5 52.166 -20.5 83.499v472h-136v-479c0 -53.333 12.667 -101 38 -143s60.166 -75 104.499 -99s95.166 -36 152.499 -36zM360.005 785c24 0 45.501 5.49902 64.501 16.499s34.167 26 45.5 45s17 40.167 17 63.5c0 24 -5.66699 45.5 -17 64.5s-26.5 34 -45.5 45
s-40.5 16.5 -64.5 16.5c-36.667 0 -67.167 -12.167 -91.5 -36.5s-36.5 -54.166 -36.5 -89.499c0 -23.333 5.66699 -44.5 17 -63.5s26.666 -34 45.999 -45s41 -16.5 65 -16.5zM360.006 855.999c-16 0 -29.167 5.33301 -39.5 16s-15.5 23.334 -15.5 38.001
c0 15.333 5.16699 28.333 15.5 39s23.5 16 39.5 16c15.333 0 28 -5.33301 38 -16s15 -23.667 15 -39c0 -14.667 -5 -27.334 -15 -38.001s-22.667 -16 -38 -16z" />
    <glyph glyph-name="uring" unicode="&#x16f;" 
d="M255 -12c34 0 64.168 6.49902 90.501 19.499s47.166 32.167 62.499 57.5v-65h124v544h-131v-319c0 -36 -10.333 -64.5 -31 -85.5s-47 -31.5 -79 -31.5c-32.667 0 -59.167 10.333 -79.5 31s-30.5 48.334 -30.5 83.001v322h-131v-333c0 -66.667 18.167 -120.5 54.5 -161.5
s86.5 -61.5 150.5 -61.5zM298.001 582.999c24 0 45.501 5.49902 64.501 16.499s34.167 26 45.5 45s17 40.167 17 63.5c0 24 -5.66699 45.5 -17 64.5s-26.5 34 -45.5 45s-40.5 16.5 -64.5 16.5c-36.667 0 -67.167 -12.167 -91.5 -36.5s-36.5 -54.166 -36.5 -89.499
c0 -23.333 5.66699 -44.5 17 -63.5s26.666 -34 45.999 -45s41 -16.5 65 -16.5zM298.002 653.998c-16 0 -29.167 5.33301 -39.5 16s-15.5 23.334 -15.5 38.001c0 15.333 5.16699 28.333 15.5 39s23.5 16 39.5 16c15.333 0 28 -5.33301 38 -16s15 -23.667 15 -39
c0 -14.667 -5 -27.334 -15 -38.001s-22.667 -16 -38 -16z" />
    <glyph glyph-name="Uhungarumlaut" unicode="&#x170;" horiz-adv-x="718" 
d="M359 -12c57.333 0 108.171 12 152.504 36s79.166 57 104.499 99s38 89.667 38 143v479h-136v-472c0 -31.333 -6.83301 -59.166 -20.5 -83.499s-32.334 -43.333 -56.001 -57s-51.167 -20.5 -82.5 -20.5c-30.667 0 -58 6.83301 -82 20.5s-42.833 32.667 -56.5 57
s-20.5 52.166 -20.5 83.499v472h-136v-479c0 -53.333 12.667 -101 38 -143s60.166 -75 104.499 -99s95.166 -36 152.499 -36zM209.005 842h114l96 144h-147zM395.005 842h115l95 144h-147z" />
    <glyph glyph-name="uhungarumlaut" unicode="&#x171;" 
d="M255 -12c34 0 64.168 6.49902 90.501 19.499s47.166 32.167 62.499 57.5v-65h124v544h-131v-319c0 -36 -10.333 -64.5 -31 -85.5s-47 -31.5 -79 -31.5c-32.667 0 -59.167 10.333 -79.5 31s-30.5 48.334 -30.5 83.001v322h-131v-333c0 -66.667 18.167 -120.5 54.5 -161.5
s86.5 -61.5 150.5 -61.5zM147.001 639.999h114l96 144h-147zM333.001 639.999h115l95 144h-147z" />
    <glyph glyph-name="Uogonek" unicode="&#x172;" horiz-adv-x="718" 
d="M359 -12c57.333 0 108.171 12 152.504 36s79.166 57 104.499 99s38 89.667 38 143v479h-136v-472c0 -31.333 -6.83301 -59.166 -20.5 -83.499s-32.334 -43.333 -56.001 -57s-51.167 -20.5 -82.5 -20.5c-30.667 0 -58 6.83301 -82 20.5s-42.833 32.667 -56.5 57
s-20.5 52.166 -20.5 83.499v472h-136v-479c0 -53.333 12.667 -101 38 -143s60.166 -75 104.499 -99s95.166 -36 152.499 -36zM380.005 -202c22 0 44.667 3.66797 68 11.001s47.333 20.666 72 39.999l-40 68c-13.333 -8 -27.333 -14.667 -42 -20s-29.667 -8 -45 -8
c-19.333 0 -34.166 4.33301 -44.499 13s-15.5 19.667 -15.5 33c0 14 6.83301 27.833 20.5 41.5s38.834 25.5 75.501 35.5v33h-40c-28.667 -3.33301 -54.834 -11.166 -78.501 -23.499s-42.334 -28 -56.001 -47s-20.5 -40.833 -20.5 -65.5c0 -34.667 14 -61.834 42 -81.501
s62.667 -29.5 104 -29.5z" />
    <glyph glyph-name="uogonek" unicode="&#x173;" 
d="M255 -12c34 0 64.168 6.49902 90.501 19.499s47.166 32.167 62.499 57.5v-65h124v544h-131v-319c0 -36 -10.333 -64.5 -31 -85.5s-47 -31.5 -79 -31.5c-32.667 0 -59.167 10.333 -79.5 31s-30.5 48.334 -30.5 83.001v322h-131v-333c0 -66.667 18.167 -120.5 54.5 -161.5
s86.5 -61.5 150.5 -61.5zM464.001 -206.001c22 0 44.667 3.66797 68 11.001s47.333 20.666 72 39.999l-40 68c-13.333 -8 -27.333 -14.667 -42 -20s-29.667 -8 -45 -8c-19.333 0 -34.166 4.33301 -44.499 13s-15.5 19.667 -15.5 33c0 14 6.83301 27.833 20.5 41.5
s38.834 25.5 75.501 35.5v33h-40c-28.667 -3.33301 -54.834 -11.166 -78.501 -23.499s-42.334 -28 -56.001 -47s-20.5 -40.833 -20.5 -65.5c0 -34.667 14 -61.834 42 -81.501s62.667 -29.5 104 -29.5z" />
    <glyph glyph-name="Wcircumflex" unicode="&#x174;" horiz-adv-x="1020" 
d="M211 0h156l143 536l143 -536h156l200 745h-146l-138 -560l-144 560h-141l-145 -560l-138 560h-146zM322 842h122l66 79l68 -79h119l-120 144h-136z" />
    <glyph glyph-name="wcircumflex" unicode="&#x175;" horiz-adv-x="883" 
d="M198 0h116l128 367l126 -367h117l187 544h-138l-114 -342l-120 342h-116l-121 -343l-114 343h-138zM253 640h122l66 79l68 -79h119l-120 144h-136z" />
    <glyph glyph-name="Ycircumflex" unicode="&#x176;" horiz-adv-x="660" 
d="M262 0h137v331l250 414h-155l-164 -277l-164 277h-155l251 -415v-330zM142 842h122l66 79l68 -79h119l-120 144h-136z" />
    <glyph glyph-name="ycircumflex" unicode="&#x177;" horiz-adv-x="586" 
d="M127 -221c51.333 0 94.168 14.498 128.501 43.498s61.833 69.833 82.5 122.5l237 599h-142l-140 -375l-141 375h-141l215 -544l-12 -29c-10.667 -22.667 -22.834 -41 -36.501 -55s-35.5 -21 -65.5 -21c-10.667 0 -22 0.833008 -34 2.5s-22.667 3.83398 -32 6.50098v-110
c11.333 -5.33301 24 -9.16602 38 -11.499s28.333 -3.5 43 -3.5zM104.002 639.998h122l66 79l68 -79h119l-120 144h-136z" />
    <glyph glyph-name="Ydieresis" unicode="&#x178;" horiz-adv-x="660" 
d="M262 0h137v331l250 414h-155l-164 -277l-164 277h-155l251 -415v-330zM234 847c19.333 0 36.166 7 50.499 21s21.5 31.333 21.5 52c0 20 -7.16699 37 -21.5 51s-31.166 21 -50.499 21c-20.667 0 -38 -7 -52 -21s-21 -31 -21 -51s7 -37.167 21 -51.5
s31.333 -21.5 52 -21.5zM429 847c19.333 0 36.166 7 50.499 21s21.5 31.333 21.5 52c0 20 -7.16699 37 -21.5 51s-31.166 21 -50.499 21c-20.667 0 -38 -7 -52 -21s-21 -31 -21 -51s7 -37.167 21 -51.5s31.333 -21.5 52 -21.5z" />
    <glyph glyph-name="Zacute" unicode="&#x179;" horiz-adv-x="571" 
d="M14 0h544v120h-370l360 518v107h-513v-120h340l-361 -518v-107zM229 842h114l96 144h-147z" />
    <glyph glyph-name="zacute" unicode="&#x17a;" horiz-adv-x="481" 
d="M14 0h454v116h-274l272 321v107h-438v-117h263l-277 -321v-106zM187 640h114l96 144h-147z" />
    <glyph glyph-name="Zdotaccent" unicode="&#x17b;" horiz-adv-x="571" 
d="M14 0h544v120h-370l360 518v107h-513v-120h340l-361 -518v-107zM287 847c19.333 0 36.166 7 50.499 21s21.5 31.333 21.5 52c0 20 -7.16699 37 -21.5 51s-31.166 21 -50.499 21c-20.667 0 -38 -7 -52 -21s-21 -31 -21 -51s7 -37.167 21 -51.5s31.333 -21.5 52 -21.5z" />
    <glyph glyph-name="zdotaccent" unicode="&#x17c;" horiz-adv-x="481" 
d="M14 0h454v116h-274l272 321v107h-438v-117h263l-277 -321v-106zM244 645c19.333 0 36.166 7 50.499 21s21.5 31.333 21.5 52c0 20 -7.16699 37 -21.5 51s-31.166 21 -50.499 21c-20.667 0 -38 -7 -52 -21s-21 -31 -21 -51s7 -37.167 21 -51.5s31.333 -21.5 52 -21.5z" />
    <glyph glyph-name="Zcaron" unicode="&#x17d;" horiz-adv-x="571" 
d="M14 0h544v120h-370l360 518v107h-513v-120h340l-361 -518v-107zM217 842h136l120 144h-119l-68 -79l-66 79h-122z" />
    <glyph glyph-name="zcaron" unicode="&#x17e;" horiz-adv-x="481" 
d="M14 0h454v116h-274l272 321v107h-438v-117h263l-277 -321v-106zM175 640h136l120 144h-119l-68 -79l-66 79h-122z" />
    <glyph glyph-name="uni018F" unicode="&#x18f;" horiz-adv-x="814" 
d="M399 -12c54 0 103.331 9.66699 147.998 29s83.334 46.333 116.001 81s57.834 75.167 75.501 121.5s26.5 96.5 26.5 150.5s-9.16699 104.5 -27.5 151.5s-44.333 88.167 -78 123.5s-73.5 62.833 -119.5 82.5s-97 29.5 -153 29.5c-46.667 0 -90.667 -7.33301 -132 -22
s-77.5 -35.167 -108.5 -61.5s-54.5 -57.5 -70.5 -93.5l113 -55c19.333 34 46 60.5 80 79.5s73 28.5 117 28.5s83.5 -9.33301 118.5 -28s63.167 -44.5 84.5 -77.5s34 -71.167 38 -114.5h-571c-4 -22 -6 -44.667 -6 -68c0 -70 15 -131.833 45 -185.5s71.333 -95.667 124 -126
s112.667 -45.5 180 -45.5zM402.998 112c-38.667 0 -73.167 8.16699 -103.5 24.5s-54.5 39 -72.5 68s-28 62.167 -30 99.5h427c-10 -60 -35.333 -107 -76 -141s-89 -51 -145 -51z" />
    <glyph glyph-name="florin" unicode="&#x192;" horiz-adv-x="570" 
d="M145 -12c61.333 0 110.999 17 148.999 51s57 85.333 57 154v123h120v114h-120v114c0 36.667 8.16699 62.167 24.5 76.5s38.833 21.5 67.5 21.5c10 0 21 -1 33 -3v113c-6.66699 1.33301 -14.667 2.5 -24 3.5s-18 1.5 -26 1.5c-62 0 -111.833 -17 -149.5 -51
s-56.5 -85.333 -56.5 -154v-122h-121v-114h121v-115c0 -36 -8 -61.333 -24 -76s-38.667 -22 -68 -22c-10.667 0 -22 1 -34 3v-113c6.66699 -1.33301 14.834 -2.5 24.501 -3.5s18.5 -1.5 26.5 -1.5z" />
    <glyph glyph-name="Ohorn" unicode="&#x1a0;" horiz-adv-x="878" 
d="M439 -12c55.333 0 106.669 9.66895 154.002 29.002s88.666 46.333 123.999 81s62.833 75.5 82.5 122.5s29.5 97.833 29.5 152.5c0 59.333 -11.667 114 -35 164s-55 92.333 -95 127c33.333 5.33301 60.166 18.666 80.499 39.999s30.5 51.666 30.5 90.999
c0 18 -2.16699 33.833 -6.5 47.5s-9.83301 27.5 -16.5 41.5h-118c5.33301 -12.667 10.166 -25.834 14.499 -39.501s6.5 -26.167 6.5 -37.5c0 -16.667 -3 -28.5 -9 -35.5s-12.667 -11.167 -20 -12.5s-13.666 -2 -18.999 -2h-203c-55.333 0 -106.666 -9.66699 -153.999 -29
s-88.5 -46.166 -123.5 -80.499s-62.333 -74.833 -82 -121.5s-29.5 -97.667 -29.5 -153c0 -54.667 9.83301 -105.5 29.5 -152.5s47.167 -87.833 82.5 -122.5s76.666 -61.667 123.999 -81s98.333 -29 153 -29zM439.003 112.002c-48 0 -91.167 11.333 -129.5 34
s-68.5 53.667 -90.5 93s-33 84 -33 134s11 94.5 33 133.5s52.167 69.833 90.5 92.5s81.5 34 129.5 34c48.667 0 92 -11.333 130 -34s68 -53.5 90 -92.5s33 -83.5 33 -133.5s-11 -94.667 -33 -134s-52 -70.333 -90 -93s-81.333 -34 -130 -34z" />
    <glyph glyph-name="ohorn" unicode="&#x1a1;" horiz-adv-x="652" 
d="M327 -12c52.667 0 100.666 12.1719 143.999 36.5049s78 58 104 101s39 91.833 39 146.5c0 41.333 -7.66699 79.5 -23 114.5s-36.333 65.167 -63 90.5c21.333 10 38 24.5 50 43.5s18 43.5 18 73.5c0 17.333 -2.16699 33 -6.5 47s-9.83301 28 -16.5 42h-113
c5.33301 -12.667 10.166 -25.834 14.499 -39.501s6.5 -26.167 6.5 -37.5c0 -16.667 -3 -28.5 -9 -35.5s-12.667 -11.167 -20 -12.5s-13.666 -2 -18.999 -2h-106c-54 0 -102.667 -12.333 -146 -37s-77.833 -58.334 -103.5 -101.001s-38.5 -91.334 -38.5 -146.001
s12.833 -103.334 38.5 -146.001s60.334 -76.334 104.001 -101.001s92.167 -37 145.5 -37zM326.999 108.005c-29.333 0 -55.5 7 -78.5 21s-41 33.5 -54 58.5s-19.5 53.167 -19.5 84.5s6.5 59.333 19.5 84s31 44.167 54 58.5s49.167 21.5 78.5 21.5
s55.166 -7.16699 77.499 -21.5s40 -33.833 53 -58.5s19.5 -52.667 19.5 -84s-6.5 -59.5 -19.5 -84.5s-30.667 -44.5 -53 -58.5s-48.166 -21 -77.499 -21z" />
    <glyph glyph-name="Uhorn" unicode="&#x1af;" horiz-adv-x="718" 
d="M359 -12c57.333 0 108.171 12.001 152.504 36.001s79.166 57 104.499 99s38 89.667 38 143v383c43.333 0 78.666 10.833 105.999 32.5s41 55.5 41 101.5c0 18 -2.16699 33.833 -6.5 47.5s-10.166 27.5 -17.499 41.5h-117c5.33301 -12.667 10.166 -25.834 14.499 -39.501
s6.5 -26.167 6.5 -37.5c0 -16.667 -3 -28.5 -9 -35.5s-12.667 -11.167 -20 -12.5s-13.666 -2 -18.999 -2h-115v-472c0 -31.333 -6.83301 -59.166 -20.5 -83.499s-32.334 -43.333 -56.001 -57s-51.167 -20.5 -82.5 -20.5c-30.667 0 -58 6.83301 -82 20.5
s-42.833 32.667 -56.5 57s-20.5 52.166 -20.5 83.499v472h-136v-479c0 -53.333 12.667 -101 38 -143s60.166 -75 104.499 -99s95.166 -36 152.499 -36z" />
    <glyph glyph-name="uhorn" unicode="&#x1b0;" horiz-adv-x="660" 
d="M255 -12c34 0 64.1689 6.5 90.502 19.5s47.166 32.167 62.499 57.5v-65h124v452c36 4 65 16.5 87 37.5s33 51.833 33 92.5c0 17.333 -2.16699 33 -6.5 47s-9.83301 28 -16.5 42h-113c5.33301 -12.667 10 -25.834 14 -39.501s6 -26.167 6 -37.5
c0 -16.667 -2.83301 -28.5 -8.5 -35.5s-12.334 -11.167 -20.001 -12.5s-14.167 -2 -19.5 -2h-87v-319c0 -36 -10.333 -64.5 -31 -85.5s-47 -31.5 -79 -31.5c-32.667 0 -59.167 10.333 -79.5 31s-30.5 48.334 -30.5 83.001v322h-131v-333
c0 -66.667 18.167 -120.5 54.5 -161.5s86.5 -61.5 150.5 -61.5z" />
    <glyph glyph-name="uni01C4" unicode="&#x1c4;" horiz-adv-x="1311" 
d="M957 842h136l120 144h-119l-68 -79l-66 79h-122zM72 0l243 -0.000976562c78.667 0 147.167 16 205.5 48s103.5 76 135.5 132s48 120.333 48 193c0 73.333 -16 137.833 -48 193.5s-77 99.334 -135 131.001s-126.667 47.5 -206 47.5h-243v-745zM754 -0.000976562h543v120
h-369l360 518v107h-513v-120h339l-360 -518v-107zM208 119.999l-0.000976562 505.001h110c50.667 0 94.5 -10.333 131.5 -31s65.833 -49.834 86.5 -87.501s31 -82.167 31 -133.5s-10.167 -96 -30.5 -134s-49.166 -67.333 -86.499 -88s-81.333 -31 -132 -31h-110z" />
    <glyph glyph-name="uni01C5" unicode="&#x1c5;" horiz-adv-x="1221" 
d="M915 640h136l120 144h-120l-67 -79l-67 79h-122zM72 0l243 -0.000976562c78.667 0 147.167 16 205.5 48s103.5 76 135.5 132s48 120.333 48 193c0 73.333 -16 137.833 -48 193.5s-77 99.334 -135 131.001s-126.667 47.5 -206 47.5h-243v-745zM208 119.999
l-0.000976562 505.001h110c50.667 0 94.5 -10.333 131.5 -31s65.833 -49.834 86.5 -87.501s31 -82.167 31 -133.5s-10.167 -96 -30.5 -134s-49.166 -67.333 -86.499 -88s-81.333 -31 -132 -31h-110zM753.999 0h453v116h-273l272 321v107h-438v-117h263l-277 -321v-106z" />
    <glyph glyph-name="uni01C6" unicode="&#x1c6;" horiz-adv-x="1153" 
d="M847 640h136l120 144h-120l-67 -79l-67 79h-122zM314 -12c35.333 0 68.001 6.16797 98.001 18.501s55 30.166 75 53.499v-60h124v745h-131v-256c-40.667 44.667 -96.334 67 -167.001 67c-51.333 0 -97.833 -12.5 -139.5 -37.5s-74.5 -59 -98.5 -102
s-36 -91.167 -36 -144.5s12 -101.5 36 -144.5s56.667 -77 98 -102s88.333 -37.5 141 -37.5zM685.001 0.000976562h454v116h-273l272 321v107h-439v-117h264l-278 -321v-106zM328.001 108.001c-29.333 0 -55.666 7 -78.999 21s-41.5 33.5 -54.5 58.5s-19.5 53.167 -19.5 84.5
s6.5 59.333 19.5 84s31.167 44.167 54.5 58.5s49.666 21.5 78.999 21.5s55.5 -7 78.5 -21s41 -33.333 54 -58s19.5 -53 19.5 -85s-6.5 -60.333 -19.5 -85s-31 -44 -54 -58s-49.167 -21 -78.5 -21z" />
    <glyph glyph-name="uni01C7" unicode="&#x1c7;" horiz-adv-x="1156" 
d="M72 0h455v120h-319v625h-136v-745zM833 -12c53.333 0 99.001 10.668 137.001 32.001s67 50.5 87 87.5s30 78.833 30 125.5v512h-136v-512c0 -36.667 -10.333 -66 -31 -88s-49.334 -33 -86.001 -33c-33.333 0 -62 9.16699 -86 27.5s-40.667 44.166 -50 77.499l-126 -34
c12.667 -60 42.167 -107.5 88.5 -142.5s103.833 -52.5 172.5 -52.5z" />
    <glyph glyph-name="uni01C8" unicode="&#x1c8;" horiz-adv-x="795" 
d="M72 0h455v120h-319v625h-136v-745zM604 605h131v140h-131v-140zM529 -221c63.333 0 113.5 16.667 150.5 50s55.5 81 55.5 143v572h-131v-572c0 -26 -7.83301 -45.5 -23.5 -58.5s-37.5 -19.5 -65.5 -19.5c-12.667 0 -24.667 1 -36 3v-114
c6 -1.33301 13.667 -2.33301 23 -3s18.333 -1 27 -1z" />
    <glyph glyph-name="uni01C9" unicode="&#x1c9;" horiz-adv-x="505" 
d="M61 0h131v757h-131v-757zM313 605h131v140h-131v-140zM238 -221c63.333 0 113.5 16.667 150.5 50s55.5 81 55.5 143v572h-131v-572c0 -26 -7.83301 -45.5 -23.5 -58.5s-37.5 -19.5 -65.5 -19.5c-12.667 0 -24.667 1 -36 3v-114c6 -1.33301 13.667 -2.33301 23 -3
s18.333 -1 27 -1z" />
    <glyph glyph-name="uni01CA" unicode="&#x1ca;" horiz-adv-x="1133" 
d="M72 0h136v487l354 -487h107v745h-136v-478l-355 478h-106v-745zM780 0h43.001c49.333 0 92.166 9.66699 128.499 29s64.333 46.333 84 81s29.5 75 29.5 121v514h-137v-519c0 -30.667 -9.5 -55.167 -28.5 -73.5s-44.5 -27.5 -76.5 -27.5h-43v-125z" />
    <glyph glyph-name="uni01CB" unicode="&#x1cb;" horiz-adv-x="993" 
d="M72 0h136v487l354 -487h107v745h-136v-478l-355 478h-106v-745zM802 605h131v140h-131v-140zM727 -221c63.333 0 113.5 16.667 150.5 50s55.5 81 55.5 143v572h-131v-572c0 -26 -7.83301 -45.5 -23.5 -58.5s-37.5 -19.5 -65.5 -19.5c-12.667 0 -24.667 1 -36 3v-114
c6 -1.33301 13.667 -2.33301 23 -3s18.333 -1 27 -1z" />
    <glyph glyph-name="uni01CC" unicode="&#x1cc;" horiz-adv-x="845" 
d="M61 0l131 0.000976562v319c0 35.333 10.167 63.666 30.5 84.999s46.833 32 79.5 32s59.167 -10.5 79.5 -31.5s30.5 -49.5 30.5 -85.5v-319h131v350c0 40.667 -8.66699 76.5 -26 107.5s-41.5 55.167 -72.5 72.5s-66.5 26 -106.5 26c-34 0 -64.5 -6.66699 -91.5 -20
s-47.833 -33 -62.5 -59v67h-123v-544zM654 605.001h131v140h-131v-140zM579 -220.999c63.333 0 113.5 16.667 150.5 50s55.5 81 55.5 143v572h-131v-572c0 -26 -7.83301 -45.5 -23.5 -58.5s-37.5 -19.5 -65.5 -19.5c-12.667 0 -24.667 1 -36 3v-114
c6 -1.33301 13.667 -2.33301 23 -3s18.333 -1 27 -1z" />
    <glyph glyph-name="Gcaron" unicode="&#x1e6;" horiz-adv-x="808" 
d="M425 -12c44 0 86.665 7.49902 127.998 22.499s78.5 37.333 111.5 67s59.167 66.334 78.5 110.001s29 94.5 29 152.5v75h-350v-115h214v-3c0 -38 -9.66699 -70.833 -29 -98.5s-45 -49 -77 -64s-67 -22.5 -105 -22.5c-46.667 0 -88 11 -124 33s-64.167 52.5 -84.5 91.5
s-30.5 84.5 -30.5 136.5s10 97.5 30 136.5s47.667 69.333 83 91s76.333 32.5 123 32.5c47.333 0 87.666 -12 120.999 -36s57.333 -55.333 72 -94l121 58c-12.667 35.333 -33.667 67.833 -63 97.5s-65.166 53.5 -107.499 71.5s-90.166 27 -143.499 27
s-102.666 -9.5 -147.999 -28.5s-84.666 -45.667 -117.999 -80s-59.333 -75 -78 -122s-28 -98.167 -28 -153.5s9.5 -106.5 28.5 -153.5s45.5 -87.833 79.5 -122.5s73.667 -61.5 119 -80.5s94.666 -28.5 147.999 -28.5zM335.998 841.999h136l120 144h-119l-68 -79l-66 79h-122
z" />
    <glyph glyph-name="gcaron" unicode="&#x1e7;" horiz-adv-x="652" 
d="M325 -220c52 0 98.002 10.6699 138.002 32.0029s71.333 50.666 94 87.999s34 79.666 34 126.999v517h-124v-63c-41.333 50 -97 75 -167 75c-50 0 -94.667 -11.5 -134 -34.5s-70.333 -54.5 -93 -94.5s-34 -85.667 -34 -137c0 -50.667 11.333 -96.334 34 -137.001
s54 -72.667 94 -96s85.333 -35 136 -35c66 0 118.333 21.333 157 64v-59c0 -40 -12.667 -71.167 -38 -93.5s-57.666 -33.5 -96.999 -33.5c-34.667 0 -63.834 7.83301 -87.501 23.5s-39.5 36.167 -47.5 61.5l-122 -46c17.333 -48 49.166 -86.5 95.499 -115.5
s100.166 -43.5 161.499 -43.5zM319.002 143.003c-42 0 -76.5 13.834 -103.5 41.501s-40.5 62.5 -40.5 104.5c0 28 6.16699 53.167 18.5 75.5s29.5 39.833 51.5 52.5s46.667 19 74 19c41.333 0 75.166 -13.833 101.499 -41.5s39.5 -62.834 39.5 -105.501
s-13.167 -77.667 -39.5 -105s-60.166 -41 -101.499 -41zM257.002 640.004h136l120 144h-119l-68 -79l-66 79h-122z" />
    <glyph glyph-name="uni01EA" unicode="&#x1ea;" horiz-adv-x="878" 
d="M439 -12c55.333 0 106.666 9.66699 153.999 29s88.666 46.333 123.999 81s62.833 75.5 82.5 122.5s29.5 97.833 29.5 152.5c0 55.333 -9.83301 106.333 -29.5 153s-47.167 87.167 -82.5 121.5s-76.666 61.166 -123.999 80.499s-98.666 29 -153.999 29
s-106.666 -9.66699 -153.999 -29s-88.5 -46.166 -123.5 -80.499s-62.333 -74.833 -82 -121.5s-29.5 -97.667 -29.5 -153c0 -54.667 9.83301 -105.5 29.5 -152.5s47.167 -87.833 82.5 -122.5s76.666 -61.667 123.999 -81s98.333 -29 153 -29zM439 112
c-48 0 -91.167 11.333 -129.5 34s-68.5 53.667 -90.5 93s-33 84 -33 134s11 94.5 33 133.5s52.167 69.833 90.5 92.5s81.5 34 129.5 34c48.667 0 92 -11.333 130 -34s68 -53.5 90 -92.5s33 -83.5 33 -133.5s-11 -94.667 -33 -134s-52 -70.333 -90 -93s-81.333 -34 -130 -34z
M498 -202c22 0 44.667 3.66797 68 11.001s47.333 20.666 72 39.999l-40 68c-13.333 -8 -27.333 -14.667 -42 -20s-29.667 -8 -45 -8c-19.333 0 -34.166 4.33301 -44.499 13s-15.5 19.667 -15.5 33c0 14 6.83301 27.833 20.5 41.5s38.834 25.5 75.501 35.5v33h-40
c-28.667 -3.33301 -54.834 -11.166 -78.501 -23.499s-42.334 -28 -56.001 -47s-20.5 -40.833 -20.5 -65.5c0 -34.667 14 -61.834 42 -81.501s62.667 -29.5 104 -29.5z" />
    <glyph glyph-name="uni01EB" unicode="&#x1eb;" horiz-adv-x="652" 
d="M327 -12c52.667 0 100.665 12.1689 143.998 36.502s78 58 104 101s39 91.833 39 146.5s-12.833 103.334 -38.5 146.001s-60.167 76.334 -103.5 101.001s-91.666 37 -144.999 37c-54 0 -102.667 -12.333 -146 -37s-77.833 -58.334 -103.5 -101.001
s-38.5 -91.334 -38.5 -146.001s12.833 -103.334 38.5 -146.001s60.334 -76.334 104.001 -101.001s92.167 -37 145.5 -37zM326.998 108.002c-29.333 0 -55.5 7 -78.5 21s-41 33.5 -54 58.5s-19.5 53.167 -19.5 84.5s6.5 59.333 19.5 84s31 44.167 54 58.5
s49.167 21.5 78.5 21.5s55.166 -7.16699 77.499 -21.5s40 -33.833 53 -58.5s19.5 -52.667 19.5 -84s-6.5 -59.5 -19.5 -84.5s-30.667 -44.5 -53 -58.5s-48.166 -21 -77.499 -21zM309.998 -205.998c22 0 44.667 3.66797 68 11.001s47.333 20.666 72 39.999l-40 68
c-13.333 -8 -27.333 -14.667 -42 -20s-29.667 -8 -45 -8c-19.333 0 -34.166 4.33301 -44.499 13s-15.5 19.667 -15.5 33c0 14 6.83301 27.833 20.5 41.5s38.834 25.5 75.501 35.5v33h-40c-28.667 -3.33301 -54.834 -11.166 -78.501 -23.499s-42.334 -28 -56.001 -47
s-20.5 -40.833 -20.5 -65.5c0 -34.667 14 -61.834 42 -81.501s62.667 -29.5 104 -29.5z" />
    <glyph glyph-name="Aringacute" unicode="&#x1fa;" horiz-adv-x="712" 
d="M11 0h147l54 160h288l53 -160h148l-257 745h-176zM251 280l105 314l105 -314h-210zM301 1064h114l75 111h-139zM356 785c24 0 45.501 5.49902 64.501 16.499s34.167 26 45.5 45s17 40.167 17 63.5c0 24 -5.66699 45.5 -17 64.5s-26.5 34 -45.5 45s-40.5 16.5 -64.5 16.5
c-36.667 0 -67.167 -12.167 -91.5 -36.5s-36.5 -54.166 -36.5 -89.499c0 -23.333 5.66699 -44.5 17 -63.5s26.666 -34 45.999 -45s41 -16.5 65 -16.5zM356.001 855.999c-16 0 -29.167 5.33301 -39.5 16s-15.5 23.334 -15.5 38.001c0 15.333 5.16699 28.333 15.5 39
s23.5 16 39.5 16c15.333 0 28 -5.33301 38 -16s15 -23.667 15 -39c0 -14.667 -5 -27.334 -15 -38.001s-22.667 -16 -38 -16z" />
    <glyph glyph-name="aringacute" unicode="&#x1fb;" horiz-adv-x="580" 
d="M226 -12c70.667 0 127.335 23.334 170.002 70.001v-58h124v362c0 38 -9.66699 71.667 -29 101s-45.833 52.166 -79.5 68.499s-72.834 24.5 -117.501 24.5c-54.667 0 -103.334 -13 -146.001 -39s-72 -60.333 -88 -103l107 -52c10 24.667 25.667 44.5 47 59.5
s46.333 22.5 75 22.5c30 0 54.167 -7.83301 72.5 -23.5s27.5 -35.167 27.5 -58.5v-18l-162 -26c-64 -10.667 -111.333 -31 -142 -61s-46 -67.667 -46 -113c0 -48 17 -86 51 -114s79.333 -42 136 -42zM175.001 149.001c0 38 25.667 62 77 72l137 23v-22
c0 -37.333 -12.833 -69 -38.5 -95s-59.167 -39 -100.5 -39c-22 0 -40 5.5 -54 16.5s-21 25.833 -21 44.5zM236.001 862.001h114l75 111h-139zM291.001 583.001c24 0 45.501 5.49902 64.501 16.499s34.167 26 45.5 45s17 40.167 17 63.5c0 24 -5.66699 45.5 -17 64.5
s-26.5 34 -45.5 45s-40.5 16.5 -64.5 16.5c-36.667 0 -67.167 -12.167 -91.5 -36.5s-36.5 -54.166 -36.5 -89.499c0 -23.333 5.66699 -44.5 17 -63.5s26.666 -34 45.999 -45s41 -16.5 65 -16.5zM291.002 654c-16 0 -29.167 5.33301 -39.5 16s-15.5 23.334 -15.5 38.001
c0 15.333 5.16699 28.333 15.5 39s23.5 16 39.5 16c15.333 0 28 -5.33301 38 -16s15 -23.667 15 -39c0 -14.667 -5 -27.334 -15 -38.001s-22.667 -16 -38 -16z" />
    <glyph glyph-name="AEacute" unicode="&#x1fc;" horiz-adv-x="991" 
d="M11 0h147l54 160h256v-160h495l1 120h-360v194h340v120h-340v191h360v120h-696zM251 280l116 345h101v-345h-217zM439 842h114l96 144h-147z" />
    <glyph glyph-name="aeacute" unicode="&#x1fd;" horiz-adv-x="967" 
d="M226 -12c70.667 0 127.333 22.667 170 68v-56h111v56c23.333 -22.667 50.333 -39.667 81 -51s64 -17 100 -17c32.667 0 63.5 5.66699 92.5 17s54.667 27 77 47s38.833 43 49.5 69l-106 52c-12.667 -20.667 -29.5 -37.5 -50.5 -50.5s-46.167 -19.5 -75.5 -19.5
c-40 0 -73.333 11.833 -100 35.5s-41.667 55.834 -45 96.501h392c4 15.333 6 33.666 6 54.999c0 48.667 -10.333 93 -31 133s-50.667 72.167 -90 96.5s-87 36.5 -143 36.5c-37.333 0 -72 -6.66699 -104 -20s-59.667 -31.666 -83 -54.999
c-20 23.333 -45.667 41.666 -77 54.999s-66.666 20 -105.999 20c-54.667 0 -103.334 -13 -146.001 -39s-72 -60.333 -88 -103l107 -52c10 24.667 25.667 44.5 47 59.5s46.333 22.5 75 22.5c30 0 54.167 -7.83301 72.5 -23.5s27.5 -35.167 27.5 -58.5v-18l-162 -26
c-64 -10.667 -111.333 -31 -142 -61s-46 -67.667 -46 -113c0 -48 17 -86 51 -114s79.333 -42 136 -42zM532.999 335c6.66699 36 22 63.833 46 83.5s52.333 29.5 85 29.5c34.667 0 63.5 -10.5 86.5 -31.5s35.833 -48.167 38.5 -81.5h-256zM249.999 88c-22 0 -40 5.5 -54 16.5
s-21 25.833 -21 44.5c0 38 25.667 62 77 72l137 23v-22c0 -37.333 -12.833 -69 -38.5 -95s-59.167 -39 -100.5 -39zM426.999 640h114l96 144h-147z" />
    <glyph glyph-name="Oslashacute" unicode="&#x1fe;" horiz-adv-x="878" 
d="M60 0l144.001 -0.000976562l33 41c29.333 -17.333 61 -30.5 95 -39.5s69.667 -13.5 107 -13.5c55.333 0 106.666 9.66699 153.999 29s88.666 46.333 123.999 81s62.833 75.5 82.5 122.5s29.5 97.833 29.5 152.5c0 52 -9 100.333 -27 145s-42.667 84 -74 118l90 109h-144
l-33 -40c-29.333 16.667 -61 29.5 -95 38.5s-69.667 13.5 -107 13.5c-55.333 0 -106.666 -9.66699 -153.999 -29s-88.5 -46.166 -123.5 -80.499s-62.333 -74.833 -82 -121.5s-29.5 -97.667 -29.5 -153c0 -52 8.83301 -100.333 26.5 -145s42.5 -84 74.5 -118z
M186.001 372.999c0 50 11 94.501 33 133.501s52.167 69.833 90.5 92.5s81.5 34 129.5 34c43.333 0 83 -9.33301 119 -28l-323 -392c-15.333 21.333 -27.333 45.666 -36 72.999s-13 56.333 -13 87zM439.001 112c-43.333 0 -83 9.33301 -119 28l323 392
c15.333 -21.333 27.333 -45.5 36 -72.5s13 -55.833 13 -86.5c0 -50 -11 -94.667 -33 -134s-52 -70.333 -90 -93s-81.333 -34 -130 -34zM382.001 842h114l96 144h-147z" />
    <glyph glyph-name="oslashacute" unicode="&#x1ff;" horiz-adv-x="652" 
d="M36 0h133l18 22c42.667 -22.667 89.334 -34 140.001 -34c52.667 0 100.667 12.167 144 36.5s78 58 104 101s39 91.833 39 146.5c0 36.667 -6 70.834 -18 102.501s-28.667 59.834 -50 84.501l70 85h-133l-18 -22c-42 22.667 -88 34 -138 34
c-53.333 0 -101.833 -12.333 -145.5 -37s-78.334 -58.334 -104.001 -101.001s-38.5 -91.334 -38.5 -146.001c0 -36.667 6 -70.667 18 -102s28.667 -59.333 50 -84zM175 272c0 31.333 6.5 59.333 19.5 84s31 44.167 54 58.5s49.167 21.5 78.5 21.5
c20.667 0 40 -3.66699 58 -11l-192 -234c-12 24 -18 51 -18 81zM327 108c-21.333 0 -41.334 4 -60.001 12l192 233c12 -24.667 18 -51.667 18 -81c0 -31.333 -6.5 -59.5 -19.5 -84.5s-30.667 -44.5 -53 -58.5s-48.166 -21 -77.499 -21zM269.999 640h114l96 144h-147z" />
    <glyph glyph-name="uni0200" unicode="&#x200;" horiz-adv-x="712" 
d="M11 0h147l54 160h288l53 -160h148l-257 745h-176zM251 280l105 314l105 -314h-210zM392 842h114l-63 144h-147zM205 842h115l-63 144h-147z" />
    <glyph glyph-name="uni0201" unicode="&#x201;" horiz-adv-x="580" 
d="M226 -12c70.667 0 127.335 23.334 170.002 70.001v-58h124v362c0 38 -9.66699 71.667 -29 101s-45.833 52.166 -79.5 68.499s-72.834 24.5 -117.501 24.5c-54.667 0 -103.334 -13 -146.001 -39s-72 -60.333 -88 -103l107 -52c10 24.667 25.667 44.5 47 59.5
s46.333 22.5 75 22.5c30 0 54.167 -7.83301 72.5 -23.5s27.5 -35.167 27.5 -58.5v-18l-162 -26c-64 -10.667 -111.333 -31 -142 -61s-46 -67.667 -46 -113c0 -48 17 -86 51 -114s79.333 -42 136 -42zM175.001 149.001c0 38 25.667 62 77 72l137 23v-22
c0 -37.333 -12.833 -69 -38.5 -95s-59.167 -39 -100.5 -39c-22 0 -40 5.5 -54 16.5s-21 25.833 -21 44.5zM327.001 640.001h114l-63 144h-147zM140.001 640.001h115l-63 144h-147z" />
    <glyph glyph-name="uni0202" unicode="&#x202;" horiz-adv-x="712" 
d="M11 0h147l54 160h288l53 -160h148l-257 745h-176zM251 280l105 314l105 -314h-210zM195 842h102.998c0 15.333 5.5 28.166 16.5 38.499s24.833 15.5 41.5 15.5s30.5 -5.16699 41.5 -15.5s16.5 -23.166 16.5 -38.499h103c0 26 -7.16699 50.167 -21.5 72.5
s-33.666 40.166 -57.999 53.499s-51.5 20 -81.5 20c-29.333 0 -56.166 -6.66699 -80.499 -20s-43.833 -31.166 -58.5 -53.499s-22 -46.5 -22 -72.5z" />
    <glyph glyph-name="uni0203" unicode="&#x203;" horiz-adv-x="580" 
d="M226 -12c70.667 0 127.335 23.334 170.002 70.001v-58h124v362c0 38 -9.66699 71.667 -29 101s-45.833 52.166 -79.5 68.499s-72.834 24.5 -117.501 24.5c-54.667 0 -103.334 -13 -146.001 -39s-72 -60.333 -88 -103l107 -52c10 24.667 25.667 44.5 47 59.5
s46.333 22.5 75 22.5c30 0 54.167 -7.83301 72.5 -23.5s27.5 -35.167 27.5 -58.5v-18l-162 -26c-64 -10.667 -111.333 -31 -142 -61s-46 -67.667 -46 -113c0 -48 17 -86 51 -114s79.333 -42 136 -42zM175.001 149.001c0 38 25.667 62 77 72l137 23v-22
c0 -37.333 -12.833 -69 -38.5 -95s-59.167 -39 -100.5 -39c-22 0 -40 5.5 -54 16.5s-21 25.833 -21 44.5zM130.001 640.001h102.998c0 15.333 5.5 28.166 16.5 38.499s24.833 15.5 41.5 15.5s30.5 -5.16699 41.5 -15.5s16.5 -23.166 16.5 -38.499h103
c0 26 -7.16699 50.167 -21.5 72.5s-33.666 40.166 -57.999 53.499s-51.5 20 -81.5 20c-29.333 0 -56.166 -6.66699 -80.499 -20s-43.833 -31.166 -58.5 -53.499s-22 -46.5 -22 -72.5z" />
    <glyph glyph-name="uni0204" unicode="&#x204;" horiz-adv-x="595" 
d="M72 0h495v120h-359v194h339v120h-339v191h359v120h-495v-745zM356 842h114l-63 144h-147zM169 842h115l-63 144h-147z" />
    <glyph glyph-name="uni0205" unicode="&#x205;" horiz-adv-x="612" 
d="M319 -12c55.333 0 103.832 12.499 145.499 37.499s70.834 56.833 87.501 95.5l-106 52c-12 -20.667 -28.5 -37.5 -49.5 -50.5s-46.5 -19.5 -76.5 -19.5c-39.333 0 -72.333 12 -99 36s-42 56 -46 96h392c2.66699 7.33301 4.5 15.833 5.5 25.5s1.5 19.5 1.5 29.5
c0 48.667 -10.333 93 -31 133s-50.667 72.167 -90 96.5s-87.333 36.5 -144 36.5c-50.667 0 -96.5 -12.333 -137.5 -37s-73.333 -58.167 -97 -100.5s-35.5 -90.833 -35.5 -145.5c0 -52.667 11.667 -100.667 35 -144s56 -77.666 98 -102.999s91 -38 147 -38zM308.999 447.999
c34.667 0 63.499 -10.5 86.499 -31.5s35.833 -48.167 38.5 -81.5h-256c7.33301 36 22.833 63.833 46.5 83.5s51.834 29.5 84.501 29.5zM342.998 639.999h114l-63 144h-147zM155.998 639.999h115l-63 144h-147z" />
    <glyph glyph-name="uni0206" unicode="&#x206;" horiz-adv-x="595" 
d="M72 0h495v120h-359v194h339v120h-339v191h359v120h-495v-745zM159 842h102.998c0 15.333 5.5 28.166 16.5 38.499s24.833 15.5 41.5 15.5s30.5 -5.16699 41.5 -15.5s16.5 -23.166 16.5 -38.499h103c0 26 -7.16699 50.167 -21.5 72.5s-33.666 40.166 -57.999 53.499
s-51.5 20 -81.5 20c-29.333 0 -56.166 -6.66699 -80.499 -20s-43.833 -31.166 -58.5 -53.499s-22 -46.5 -22 -72.5z" />
    <glyph glyph-name="uni0207" unicode="&#x207;" horiz-adv-x="612" 
d="M319 -12c55.333 0 103.832 12.499 145.499 37.499s70.834 56.833 87.501 95.5l-106 52c-12 -20.667 -28.5 -37.5 -49.5 -50.5s-46.5 -19.5 -76.5 -19.5c-39.333 0 -72.333 12 -99 36s-42 56 -46 96h392c2.66699 7.33301 4.5 15.833 5.5 25.5s1.5 19.5 1.5 29.5
c0 48.667 -10.333 93 -31 133s-50.667 72.167 -90 96.5s-87.333 36.5 -144 36.5c-50.667 0 -96.5 -12.333 -137.5 -37s-73.333 -58.167 -97 -100.5s-35.5 -90.833 -35.5 -145.5c0 -52.667 11.667 -100.667 35 -144s56 -77.666 98 -102.999s91 -38 147 -38zM308.999 447.999
c34.667 0 63.499 -10.5 86.499 -31.5s35.833 -48.167 38.5 -81.5h-256c7.33301 36 22.833 63.833 46.5 83.5s51.834 29.5 84.501 29.5zM145.998 639.999h102.998c0 15.333 5.5 28.166 16.5 38.499s24.833 15.5 41.5 15.5s30.5 -5.16699 41.5 -15.5
s16.5 -23.166 16.5 -38.499h103c0 26 -7.16699 50.167 -21.5 72.5s-33.666 40.166 -57.999 53.499s-51.5 20 -81.5 20c-29.333 0 -56.166 -6.66699 -80.499 -20s-43.833 -31.166 -58.5 -53.499s-22 -46.5 -22 -72.5z" />
    <glyph glyph-name="uni0208" unicode="&#x208;" horiz-adv-x="279" 
d="M72 0h136v745h-136v-745zM176 842h114l-63 144h-147zM-11 842h115l-63 144h-147z" />
    <glyph glyph-name="uni0209" unicode="&#x209;" horiz-adv-x="228" 
d="M49 0h131v544h-131v-544zM150 640h114l-63 144h-147zM-37 640h115l-63 144h-147z" />
    <glyph glyph-name="uni020A" unicode="&#x20a;" horiz-adv-x="279" 
d="M72 0h136v745h-136v-745zM-21 842h102.998c0 15.333 5.5 28.166 16.5 38.499s24.833 15.5 41.5 15.5s30.5 -5.16699 41.5 -15.5s16.5 -23.166 16.5 -38.499h103c0 26 -7.16699 50.167 -21.5 72.5s-33.666 40.166 -57.999 53.499s-51.5 20 -81.5 20
c-29.333 0 -56.166 -6.66699 -80.499 -20s-43.833 -31.166 -58.5 -53.499s-22 -46.5 -22 -72.5z" />
    <glyph glyph-name="uni020B" unicode="&#x20b;" horiz-adv-x="228" 
d="M49 0h131v544h-131v-544zM-47 640h102.998c0 15.333 5.5 28.166 16.5 38.499s24.833 15.5 41.5 15.5s30.5 -5.16699 41.5 -15.5s16.5 -23.166 16.5 -38.499h103c0 26 -7.16699 50.167 -21.5 72.5s-33.666 40.166 -57.999 53.499s-51.5 20 -81.5 20
c-29.333 0 -56.166 -6.66699 -80.499 -20s-43.833 -31.166 -58.5 -53.499s-22 -46.5 -22 -72.5z" />
    <glyph glyph-name="uni020C" unicode="&#x20c;" horiz-adv-x="878" 
d="M439 -12c55.333 0 106.666 9.66699 153.999 29s88.666 46.333 123.999 81s62.833 75.5 82.5 122.5s29.5 97.833 29.5 152.5c0 55.333 -9.83301 106.333 -29.5 153s-47.167 87.167 -82.5 121.5s-76.666 61.166 -123.999 80.499s-98.666 29 -153.999 29
s-106.666 -9.66699 -153.999 -29s-88.5 -46.166 -123.5 -80.499s-62.333 -74.833 -82 -121.5s-29.5 -97.667 -29.5 -153c0 -54.667 9.83301 -105.5 29.5 -152.5s47.167 -87.833 82.5 -122.5s76.666 -61.667 123.999 -81s98.333 -29 153 -29zM439 112
c-48 0 -91.167 11.333 -129.5 34s-68.5 53.667 -90.5 93s-33 84 -33 134s11 94.5 33 133.5s52.167 69.833 90.5 92.5s81.5 34 129.5 34c48.667 0 92 -11.333 130 -34s68 -53.5 90 -92.5s33 -83.5 33 -133.5s-11 -94.667 -33 -134s-52 -70.333 -90 -93s-81.333 -34 -130 -34z
M475 842h114l-63 144h-147zM288 842h115l-63 144h-147z" />
    <glyph glyph-name="uni020D" unicode="&#x20d;" horiz-adv-x="652" 
d="M327 -12c52.667 0 100.665 12.1689 143.998 36.502s78 58 104 101s39 91.833 39 146.5s-12.833 103.334 -38.5 146.001s-60.167 76.334 -103.5 101.001s-91.666 37 -144.999 37c-54 0 -102.667 -12.333 -146 -37s-77.833 -58.334 -103.5 -101.001
s-38.5 -91.334 -38.5 -146.001s12.833 -103.334 38.5 -146.001s60.334 -76.334 104.001 -101.001s92.167 -37 145.5 -37zM326.998 108.002c-29.333 0 -55.5 7 -78.5 21s-41 33.5 -54 58.5s-19.5 53.167 -19.5 84.5s6.5 59.333 19.5 84s31 44.167 54 58.5
s49.167 21.5 78.5 21.5s55.166 -7.16699 77.499 -21.5s40 -33.833 53 -58.5s19.5 -52.667 19.5 -84s-6.5 -59.5 -19.5 -84.5s-30.667 -44.5 -53 -58.5s-48.166 -21 -77.499 -21zM362.998 640.002h114l-63 144h-147zM175.998 640.002h115l-63 144h-147z" />
    <glyph glyph-name="uni020E" unicode="&#x20e;" horiz-adv-x="878" 
d="M439 -12c55.333 0 106.666 9.66699 153.999 29s88.666 46.333 123.999 81s62.833 75.5 82.5 122.5s29.5 97.833 29.5 152.5c0 55.333 -9.83301 106.333 -29.5 153s-47.167 87.167 -82.5 121.5s-76.666 61.166 -123.999 80.499s-98.666 29 -153.999 29
s-106.666 -9.66699 -153.999 -29s-88.5 -46.166 -123.5 -80.499s-62.333 -74.833 -82 -121.5s-29.5 -97.667 -29.5 -153c0 -54.667 9.83301 -105.5 29.5 -152.5s47.167 -87.833 82.5 -122.5s76.666 -61.667 123.999 -81s98.333 -29 153 -29zM439 112
c-48 0 -91.167 11.333 -129.5 34s-68.5 53.667 -90.5 93s-33 84 -33 134s11 94.5 33 133.5s52.167 69.833 90.5 92.5s81.5 34 129.5 34c48.667 0 92 -11.333 130 -34s68 -53.5 90 -92.5s33 -83.5 33 -133.5s-11 -94.667 -33 -134s-52 -70.333 -90 -93s-81.333 -34 -130 -34z
M278 842h102.998c0 15.333 5.5 28.166 16.5 38.499s24.833 15.5 41.5 15.5s30.5 -5.16699 41.5 -15.5s16.5 -23.166 16.5 -38.499h103c0 26 -7.16699 50.167 -21.5 72.5s-33.666 40.166 -57.999 53.499s-51.5 20 -81.5 20c-29.333 0 -56.166 -6.66699 -80.499 -20
s-43.833 -31.166 -58.5 -53.499s-22 -46.5 -22 -72.5z" />
    <glyph glyph-name="uni020F" unicode="&#x20f;" horiz-adv-x="652" 
d="M327 -12c52.667 0 100.665 12.1689 143.998 36.502s78 58 104 101s39 91.833 39 146.5s-12.833 103.334 -38.5 146.001s-60.167 76.334 -103.5 101.001s-91.666 37 -144.999 37c-54 0 -102.667 -12.333 -146 -37s-77.833 -58.334 -103.5 -101.001
s-38.5 -91.334 -38.5 -146.001s12.833 -103.334 38.5 -146.001s60.334 -76.334 104.001 -101.001s92.167 -37 145.5 -37zM326.998 108.002c-29.333 0 -55.5 7 -78.5 21s-41 33.5 -54 58.5s-19.5 53.167 -19.5 84.5s6.5 59.333 19.5 84s31 44.167 54 58.5
s49.167 21.5 78.5 21.5s55.166 -7.16699 77.499 -21.5s40 -33.833 53 -58.5s19.5 -52.667 19.5 -84s-6.5 -59.5 -19.5 -84.5s-30.667 -44.5 -53 -58.5s-48.166 -21 -77.499 -21zM165.998 640.002h102.998c0 15.333 5.5 28.166 16.5 38.499s24.833 15.5 41.5 15.5
s30.5 -5.16699 41.5 -15.5s16.5 -23.166 16.5 -38.499h103c0 26 -7.16699 50.167 -21.5 72.5s-33.666 40.166 -57.999 53.499s-51.5 20 -81.5 20c-29.333 0 -56.166 -6.66699 -80.499 -20s-43.833 -31.166 -58.5 -53.499s-22 -46.5 -22 -72.5z" />
    <glyph glyph-name="uni0210" unicode="&#x210;" horiz-adv-x="661" 
d="M72 0l136.001 -0.000976562v275h128l154 -275h154l-171 299c41.333 17.333 74.166 44 98.499 80s36.5 79.667 36.5 131c0 50.667 -11 93.334 -33 128.001s-52.5 61.167 -91.5 79.5s-83.833 27.5 -134.5 27.5h-277v-745zM208.001 394.999v230h143
c36.667 0 66 -10.333 88 -31s33 -48.667 33 -84c0 -34.667 -11 -62.5 -33 -83.5s-51.333 -31.5 -88 -31.5h-143zM366.001 841.999h114l-63 144h-147zM179.001 841.999h115l-63 144h-147z" />
    <glyph glyph-name="uni0211" unicode="&#x211;" horiz-adv-x="374" 
d="M61 0h130.999v303c0 41.333 11.5 73.5 34.5 96.5s52.833 34.5 89.5 34.5h47v116h-32c-33.333 0 -62.666 -6 -87.999 -18s-45 -33.667 -59 -65v77h-123v-544zM247.999 640h114l-63 144h-147zM60.999 640h115l-63 144h-147z" />
    <glyph glyph-name="uni0212" unicode="&#x212;" horiz-adv-x="661" 
d="M72 0l136.001 -0.000976562v275h128l154 -275h154l-171 299c41.333 17.333 74.166 44 98.499 80s36.5 79.667 36.5 131c0 50.667 -11 93.334 -33 128.001s-52.5 61.167 -91.5 79.5s-83.833 27.5 -134.5 27.5h-277v-745zM208.001 394.999v230h143
c36.667 0 66 -10.333 88 -31s33 -48.667 33 -84c0 -34.667 -11 -62.5 -33 -83.5s-51.333 -31.5 -88 -31.5h-143zM169.001 841.999h102.998c0 15.333 5.5 28.166 16.5 38.499s24.833 15.5 41.5 15.5s30.5 -5.16699 41.5 -15.5s16.5 -23.166 16.5 -38.499h103
c0 26 -7.16699 50.167 -21.5 72.5s-33.666 40.166 -57.999 53.499s-51.5 20 -81.5 20c-29.333 0 -56.166 -6.66699 -80.499 -20s-43.833 -31.166 -58.5 -53.499s-22 -46.5 -22 -72.5z" />
    <glyph glyph-name="uni0213" unicode="&#x213;" horiz-adv-x="374" 
d="M61 0h130.999v303c0 41.333 11.5 73.5 34.5 96.5s52.833 34.5 89.5 34.5h47v116h-32c-33.333 0 -62.666 -6 -87.999 -18s-45 -33.667 -59 -65v77h-123v-544zM50.999 640h102.998c0 15.333 5.5 28.166 16.5 38.499s24.833 15.5 41.5 15.5s30.5 -5.16699 41.5 -15.5
s16.5 -23.166 16.5 -38.499h103c0 26 -7.16699 50.167 -21.5 72.5s-33.666 40.166 -57.999 53.499s-51.5 20 -81.5 20c-29.333 0 -56.166 -6.66699 -80.499 -20s-43.833 -31.166 -58.5 -53.499s-22 -46.5 -22 -72.5z" />
    <glyph glyph-name="uni0214" unicode="&#x214;" horiz-adv-x="718" 
d="M359 -12c57.333 0 108.171 12 152.504 36s79.166 57 104.499 99s38 89.667 38 143v479h-136v-472c0 -31.333 -6.83301 -59.166 -20.5 -83.499s-32.334 -43.333 -56.001 -57s-51.167 -20.5 -82.5 -20.5c-30.667 0 -58 6.83301 -82 20.5s-42.833 32.667 -56.5 57
s-20.5 52.166 -20.5 83.499v472h-136v-479c0 -53.333 12.667 -101 38 -143s60.166 -75 104.499 -99s95.166 -36 152.499 -36zM395.005 842h114l-63 144h-147zM208.005 842h115l-63 144h-147z" />
    <glyph glyph-name="uni0215" unicode="&#x215;" 
d="M255 -12c34 0 64.168 6.49902 90.501 19.499s47.166 32.167 62.499 57.5v-65h124v544h-131v-319c0 -36 -10.333 -64.5 -31 -85.5s-47 -31.5 -79 -31.5c-32.667 0 -59.167 10.333 -79.5 31s-30.5 48.334 -30.5 83.001v322h-131v-333c0 -66.667 18.167 -120.5 54.5 -161.5
s86.5 -61.5 150.5 -61.5zM333.001 639.999h114l-63 144h-147zM146.001 639.999h115l-63 144h-147z" />
    <glyph glyph-name="uni0216" unicode="&#x216;" horiz-adv-x="718" 
d="M359 -12c57.333 0 108.171 12 152.504 36s79.166 57 104.499 99s38 89.667 38 143v479h-136v-472c0 -31.333 -6.83301 -59.166 -20.5 -83.499s-32.334 -43.333 -56.001 -57s-51.167 -20.5 -82.5 -20.5c-30.667 0 -58 6.83301 -82 20.5s-42.833 32.667 -56.5 57
s-20.5 52.166 -20.5 83.499v472h-136v-479c0 -53.333 12.667 -101 38 -143s60.166 -75 104.499 -99s95.166 -36 152.499 -36zM198.005 842h102.998c0 15.333 5.5 28.166 16.5 38.499s24.833 15.5 41.5 15.5s30.5 -5.16699 41.5 -15.5s16.5 -23.166 16.5 -38.499h103
c0 26 -7.16699 50.167 -21.5 72.5s-33.666 40.166 -57.999 53.499s-51.5 20 -81.5 20c-29.333 0 -56.166 -6.66699 -80.499 -20s-43.833 -31.166 -58.5 -53.499s-22 -46.5 -22 -72.5z" />
    <glyph glyph-name="uni0217" unicode="&#x217;" 
d="M255 -12c34 0 64.168 6.49902 90.501 19.499s47.166 32.167 62.499 57.5v-65h124v544h-131v-319c0 -36 -10.333 -64.5 -31 -85.5s-47 -31.5 -79 -31.5c-32.667 0 -59.167 10.333 -79.5 31s-30.5 48.334 -30.5 83.001v322h-131v-333c0 -66.667 18.167 -120.5 54.5 -161.5
s86.5 -61.5 150.5 -61.5zM136.001 639.999h102.998c0 15.333 5.5 28.166 16.5 38.499s24.833 15.5 41.5 15.5s30.5 -5.16699 41.5 -15.5s16.5 -23.166 16.5 -38.499h103c0 26 -7.16699 50.167 -21.5 72.5s-33.666 40.166 -57.999 53.499s-51.5 20 -81.5 20
c-29.333 0 -56.166 -6.66699 -80.499 -20s-43.833 -31.166 -58.5 -53.499s-22 -46.5 -22 -72.5z" />
    <glyph glyph-name="uni0218" unicode="&#x218;" horiz-adv-x="647" 
d="M338 -12c51.333 0 96.3359 9.33105 135.003 27.998s69 44.334 91 77.001s33 70.334 33 113.001c0 99.333 -59.333 168 -178 206l-137 43c-26.667 8.66699 -46.834 20.834 -60.501 36.501s-20.5 33.834 -20.5 54.501c0 27.333 10.5 49.5 31.5 66.5s48.833 25.5 83.5 25.5
c38.667 0 72.667 -10.167 102 -30.5s51.333 -49.166 66 -86.499l112 50c-20 56 -54.833 101 -104.5 135s-108.167 51 -175.5 51c-48.667 0 -91.834 -9.16699 -129.501 -27.5s-67 -43.833 -88 -76.5s-31.5 -70.334 -31.5 -113.001c0 -48.667 14.667 -90.834 44 -126.501
s73 -62.834 131 -81.501l143 -46c26 -8.66699 45.5 -20 58.5 -34s19.5 -32 19.5 -54c0 -27.333 -10.833 -49.333 -32.5 -66s-50.167 -25 -85.5 -25c-42.667 0 -81 12.167 -115 36.5s-60 57.833 -78 100.5l-113 -49c13.333 -41.333 34.5 -77.5 63.5 -108.5
s63.667 -55.167 104 -72.5s84.166 -26 131.499 -26zM248.003 -376.002c101.333 21.333 152 91.333 152 210v86h-132v-140h61c-8 -50 -35 -80.667 -81 -92v-64z" />
    <glyph glyph-name="uni0219" unicode="&#x219;" horiz-adv-x="514" 
d="M268 -12c41.333 0 77.334 6.99902 108.001 20.999s54.667 33.5 72 58.5s26 53.833 26 86.5c0 38 -12 70.667 -36 98s-58.667 47.333 -104 60l-87 26c-18.667 5.33301 -34 12.333 -46 21s-18 20.667 -18 36c0 16 6.33301 29 19 39s30 15 52 15
c27.333 0 52.166 -7.33301 74.499 -22s37.833 -34.334 46.5 -59.001l100 47c-16.667 44 -44.667 78.5 -84 103.5s-84.666 37.5 -135.999 37.5c-39.333 0 -74.166 -7 -104.499 -21s-54 -33.5 -71 -58.5s-25.5 -54.167 -25.5 -87.5c0 -37.333 11.833 -69.666 35.5 -96.999
s58.5 -47.666 104.5 -60.999l89 -25c17.333 -4.66699 32.166 -11.5 44.499 -20.5s18.5 -21.167 18.5 -36.5c0 -18 -7.16699 -32.167 -21.5 -42.5s-33.166 -15.5 -56.499 -15.5c-30.667 0 -58.334 8.66699 -83.001 26s-44.334 41.333 -59.001 72l-98 -47
c16 -46.667 45.5 -84 88.5 -112s93.5 -42 151.5 -42zM182.001 -376.001c101.333 21.333 152 91.333 152 210v86h-132v-140h61c-8 -50 -35 -80.667 -81 -92v-64z" />
    <glyph glyph-name="uni021A" unicode="&#x21a;" horiz-adv-x="542" 
d="M204 0h137v625h190v120h-520v-120h193v-625zM195 -376c101.333 21.333 152 91.333 152 210v86h-132v-140h61c-8 -50 -35 -80.667 -81 -92v-64z" />
    <glyph glyph-name="uni021B" unicode="&#x21b;" horiz-adv-x="413" 
d="M309 -6c22 0 43.6689 1.66699 65.002 5v113c-12.667 -2 -24.334 -3 -35.001 -3c-32 0 -55.333 7.33301 -70 22s-22 35.667 -22 63v233h125v117h-125v124h-131v-42c0 -26.667 -7.33301 -47 -22 -61s-35.334 -21 -62.001 -21h-10v-117h94v-240
c0 -60.667 16.833 -108 50.5 -142s81.167 -51 142.5 -51zM226.002 -376c101.333 21.333 152 91.333 152 210v86h-132v-140h61c-8 -50 -35 -80.667 -81 -92v-64z" />
    <glyph glyph-name="uni022A" unicode="&#x22a;" horiz-adv-x="878" 
d="M439 -12c55.333 0 106.666 9.66699 153.999 29s88.666 46.333 123.999 81s62.833 75.5 82.5 122.5s29.5 97.833 29.5 152.5c0 55.333 -9.83301 106.333 -29.5 153s-47.167 87.167 -82.5 121.5s-76.666 61.166 -123.999 80.499s-98.666 29 -153.999 29
s-106.666 -9.66699 -153.999 -29s-88.5 -46.166 -123.5 -80.499s-62.333 -74.833 -82 -121.5s-29.5 -97.667 -29.5 -153c0 -54.667 9.83301 -105.5 29.5 -152.5s47.167 -87.833 82.5 -122.5s76.666 -61.667 123.999 -81s98.333 -29 153 -29zM439 112
c-48 0 -91.167 11.333 -129.5 34s-68.5 53.667 -90.5 93s-33 84 -33 134s11 94.5 33 133.5s52.167 69.833 90.5 92.5s81.5 34 129.5 34c48.667 0 92 -11.333 130 -34s68 -53.5 90 -92.5s33 -83.5 33 -133.5s-11 -94.667 -33 -134s-52 -70.333 -90 -93s-81.333 -34 -130 -34z
M301 1022h278v97h-278v-97zM343 847c19.333 0 36.166 7 50.499 21s21.5 31.333 21.5 52c0 20 -7.16699 37 -21.5 51s-31.166 21 -50.499 21c-20.667 0 -38 -7 -52 -21s-21 -31 -21 -51s7 -37.167 21 -51.5s31.333 -21.5 52 -21.5zM538 847c19.333 0 36.166 7 50.499 21
s21.5 31.333 21.5 52c0 20 -7.16699 37 -21.5 51s-31.166 21 -50.499 21c-20.667 0 -38 -7 -52 -21s-21 -31 -21 -51s7 -37.167 21 -51.5s31.333 -21.5 52 -21.5z" />
    <glyph glyph-name="uni022B" unicode="&#x22b;" horiz-adv-x="652" 
d="M327 -12c52.667 0 100.665 12.1689 143.998 36.502s78 58 104 101s39 91.833 39 146.5s-12.833 103.334 -38.5 146.001s-60.167 76.334 -103.5 101.001s-91.666 37 -144.999 37c-54 0 -102.667 -12.333 -146 -37s-77.833 -58.334 -103.5 -101.001
s-38.5 -91.334 -38.5 -146.001s12.833 -103.334 38.5 -146.001s60.334 -76.334 104.001 -101.001s92.167 -37 145.5 -37zM326.998 108.002c-29.333 0 -55.5 7 -78.5 21s-41 33.5 -54 58.5s-19.5 53.167 -19.5 84.5s6.5 59.333 19.5 84s31 44.167 54 58.5
s49.167 21.5 78.5 21.5s55.166 -7.16699 77.499 -21.5s40 -33.833 53 -58.5s19.5 -52.667 19.5 -84s-6.5 -59.5 -19.5 -84.5s-30.667 -44.5 -53 -58.5s-48.166 -21 -77.499 -21zM187.998 820.002h278v97h-278v-97zM229.998 645.002c19.333 0 36.166 7 50.499 21
s21.5 31.333 21.5 52c0 20 -7.16699 37 -21.5 51s-31.166 21 -50.499 21c-20.667 0 -38 -7 -52 -21s-21 -31 -21 -51s7 -37.167 21 -51.5s31.333 -21.5 52 -21.5zM424.998 645.002c19.333 0 36.166 7 50.499 21s21.5 31.333 21.5 52c0 20 -7.16699 37 -21.5 51
s-31.166 21 -50.499 21c-20.667 0 -38 -7 -52 -21s-21 -31 -21 -51s7 -37.167 21 -51.5s31.333 -21.5 52 -21.5z" />
    <glyph glyph-name="uni022C" unicode="&#x22c;" horiz-adv-x="878" 
d="M439 -12c55.333 0 106.666 9.66699 153.999 29s88.666 46.333 123.999 81s62.833 75.5 82.5 122.5s29.5 97.833 29.5 152.5c0 55.333 -9.83301 106.333 -29.5 153s-47.167 87.167 -82.5 121.5s-76.666 61.166 -123.999 80.499s-98.666 29 -153.999 29
s-106.666 -9.66699 -153.999 -29s-88.5 -46.166 -123.5 -80.499s-62.333 -74.833 -82 -121.5s-29.5 -97.667 -29.5 -153c0 -54.667 9.83301 -105.5 29.5 -152.5s47.167 -87.833 82.5 -122.5s76.666 -61.667 123.999 -81s98.333 -29 153 -29zM439 112
c-48 0 -91.167 11.333 -129.5 34s-68.5 53.667 -90.5 93s-33 84 -33 134s11 94.5 33 133.5s52.167 69.833 90.5 92.5s81.5 34 129.5 34c48.667 0 92 -11.333 130 -34s68 -53.5 90 -92.5s33 -83.5 33 -133.5s-11 -94.667 -33 -134s-52 -70.333 -90 -93s-81.333 -34 -130 -34z
M300 1037h279v97h-279v-97zM512 854c28 0 49.832 10.168 65.499 30.501s23.5 54.166 23.5 101.499h-84c0 -11.333 -2.5 -21.333 -7.5 -30s-12.5 -13 -22.5 -13c-12 0 -22.5 4 -31.5 12s-19.5 16 -31.5 24s-28.333 12 -49 12c-26.667 0 -49.334 -10.167 -68.001 -30.5
s-28 -54.5 -28 -102.5h83c1.33301 12.667 4.33301 23.167 9 31.5s12.334 12.5 23.001 12.5c12 0 22.833 -4 32.5 -12s20.834 -16 33.501 -24s30 -12 52 -12z" />
    <glyph glyph-name="uni022D" unicode="&#x22d;" horiz-adv-x="652" 
d="M327 -12c52.667 0 100.665 12.1689 143.998 36.502s78 58 104 101s39 91.833 39 146.5s-12.833 103.334 -38.5 146.001s-60.167 76.334 -103.5 101.001s-91.666 37 -144.999 37c-54 0 -102.667 -12.333 -146 -37s-77.833 -58.334 -103.5 -101.001
s-38.5 -91.334 -38.5 -146.001s12.833 -103.334 38.5 -146.001s60.334 -76.334 104.001 -101.001s92.167 -37 145.5 -37zM326.998 108.002c-29.333 0 -55.5 7 -78.5 21s-41 33.5 -54 58.5s-19.5 53.167 -19.5 84.5s6.5 59.333 19.5 84s31 44.167 54 58.5
s49.167 21.5 78.5 21.5s55.166 -7.16699 77.499 -21.5s40 -33.833 53 -58.5s19.5 -52.667 19.5 -84s-6.5 -59.5 -19.5 -84.5s-30.667 -44.5 -53 -58.5s-48.166 -21 -77.499 -21zM187.998 835.002h279v97h-279v-97zM399.998 652.002c28 0 49.832 10.168 65.499 30.501
s23.5 54.166 23.5 101.499h-84c0 -11.333 -2.5 -21.333 -7.5 -30s-12.5 -13 -22.5 -13c-12 0 -22.5 4 -31.5 12s-19.5 16 -31.5 24s-28.333 12 -49 12c-26.667 0 -49.334 -10.167 -68.001 -30.5s-28 -54.5 -28 -102.5h83c1.33301 12.667 4.33301 23.167 9 31.5
s12.334 12.5 23.001 12.5c12 0 22.833 -4 32.5 -12s20.834 -16 33.501 -24s30 -12 52 -12z" />
    <glyph glyph-name="uni0230" unicode="&#x230;" horiz-adv-x="878" 
d="M439 -12c55.333 0 106.666 9.66699 153.999 29s88.666 46.333 123.999 81s62.833 75.5 82.5 122.5s29.5 97.833 29.5 152.5c0 55.333 -9.83301 106.333 -29.5 153s-47.167 87.167 -82.5 121.5s-76.666 61.166 -123.999 80.499s-98.666 29 -153.999 29
s-106.666 -9.66699 -153.999 -29s-88.5 -46.166 -123.5 -80.499s-62.333 -74.833 -82 -121.5s-29.5 -97.667 -29.5 -153c0 -54.667 9.83301 -105.5 29.5 -152.5s47.167 -87.833 82.5 -122.5s76.666 -61.667 123.999 -81s98.333 -29 153 -29zM439 112
c-48 0 -91.167 11.333 -129.5 34s-68.5 53.667 -90.5 93s-33 84 -33 134s11 94.5 33 133.5s52.167 69.833 90.5 92.5s81.5 34 129.5 34c48.667 0 92 -11.333 130 -34s68 -53.5 90 -92.5s33 -83.5 33 -133.5s-11 -94.667 -33 -134s-52 -70.333 -90 -93s-81.333 -34 -130 -34z
M300 1022h278v97h-278v-97zM440 847c19.333 0 36.166 7 50.499 21s21.5 31.333 21.5 52c0 20 -7.16699 37 -21.5 51s-31.166 21 -50.499 21c-20.667 0 -38 -7 -52 -21s-21 -31 -21 -51s7 -37.167 21 -51.5s31.333 -21.5 52 -21.5z" />
    <glyph glyph-name="uni0231" unicode="&#x231;" horiz-adv-x="652" 
d="M327 -12c52.667 0 100.665 12.1689 143.998 36.502s78 58 104 101s39 91.833 39 146.5s-12.833 103.334 -38.5 146.001s-60.167 76.334 -103.5 101.001s-91.666 37 -144.999 37c-54 0 -102.667 -12.333 -146 -37s-77.833 -58.334 -103.5 -101.001
s-38.5 -91.334 -38.5 -146.001s12.833 -103.334 38.5 -146.001s60.334 -76.334 104.001 -101.001s92.167 -37 145.5 -37zM326.998 108.002c-29.333 0 -55.5 7 -78.5 21s-41 33.5 -54 58.5s-19.5 53.167 -19.5 84.5s6.5 59.333 19.5 84s31 44.167 54 58.5
s49.167 21.5 78.5 21.5s55.166 -7.16699 77.499 -21.5s40 -33.833 53 -58.5s19.5 -52.667 19.5 -84s-6.5 -59.5 -19.5 -84.5s-30.667 -44.5 -53 -58.5s-48.166 -21 -77.499 -21zM187.998 820.002h278v97h-278v-97zM327.998 645.002c19.333 0 36.166 7 50.499 21
s21.5 31.333 21.5 52c0 20 -7.16699 37 -21.5 51s-31.166 21 -50.499 21c-20.667 0 -38 -7 -52 -21s-21 -31 -21 -51s7 -37.167 21 -51.5s31.333 -21.5 52 -21.5z" />
    <glyph glyph-name="uni0232" unicode="&#x232;" horiz-adv-x="660" 
d="M262 0h137v331l250 414h-155l-164 -277l-164 277h-155l251 -415v-330zM190 861h281v97h-281v-97z" />
    <glyph glyph-name="uni0233" unicode="&#x233;" horiz-adv-x="586" 
d="M127 -221c51.333 0 94.168 14.498 128.501 43.498s61.833 69.833 82.5 122.5l237 599h-142l-140 -375l-141 375h-141l215 -544l-12 -29c-10.667 -22.667 -22.834 -41 -36.501 -55s-35.5 -21 -65.5 -21c-10.667 0 -22 0.833008 -34 2.5s-22.667 3.83398 -32 6.50098v-110
c11.333 -5.33301 24 -9.16602 38 -11.499s28.333 -3.5 43 -3.5zM153.002 658.998h281v97h-281v-97z" />
    <glyph glyph-name="uni0237" unicode="&#x237;" horiz-adv-x="252" 
d="M-14 -221c63.333 0 113.5 16.667 150.5 50s55.5 81 55.5 143v572h-131v-572c0 -26 -7.83301 -45.5 -23.5 -58.5s-37.5 -19.5 -65.5 -19.5c-12.667 0 -24.667 1 -36 3v-114c6 -1.33301 13.667 -2.33301 23 -3s18.333 -1 27 -1z" />
    <glyph glyph-name="uni0259" unicode="&#x259;" horiz-adv-x="612" 
d="M303 -12c51.333 0 97.502 12.332 138.502 36.999s73.333 58.334 97 101.001s35.5 91 35.5 145c0 53.333 -11.667 101.5 -35 144.5s-56.166 77.167 -98.499 102.5s-91.5 38 -147.5 38c-55.333 0 -103.833 -12.5 -145.5 -37.5s-70.834 -57.167 -87.501 -96.5l106 -51
c12 21.333 28.667 38.333 50 51s46.666 19 75.999 19c39.333 0 72.333 -12 99 -36s42 -56 46 -96h-392c-2.66699 -7.33301 -4.33398 -16 -5.00098 -26s-1 -19.667 -1 -29c0 -48.667 10.333 -93.167 31 -133.5s50.667 -72.5 90 -96.5s87 -36 143 -36zM303.002 95.999
c-34.667 0 -63.499 10.5 -86.499 31.5s-35.833 48.167 -38.5 81.5h256c-7.33301 -36.667 -22.833 -64.667 -46.5 -84s-51.834 -29 -84.501 -29z" />
    <glyph glyph-name="uni02BB" unicode="&#x2bb;" horiz-adv-x="398" 
d="M275 757c-101.333 -21.333 -152 -91.333 -152 -210v-86h132v140h-61c8 50 35 80.667 81 92v64z" />
    <glyph glyph-name="uni02BC" unicode="&#x2bc;" horiz-adv-x="363" 
d="M139 462h85l16 283h-118z" />
    <glyph glyph-name="uni02BE" unicode="&#x2be;" horiz-adv-x="374" 
d="M123 583c24 0 45.667 5.50098 65 16.501s34.666 26 45.999 45s17 40.167 17 63.5c0 24 -5.66699 45.5 -17 64.5s-26.666 34 -45.999 45s-41 16.5 -65 16.5v-71c16 0 29.167 -5.33301 39.5 -16s15.5 -23.667 15.5 -39c0 -14.667 -5.16699 -27.334 -15.5 -38.001
s-23.5 -16 -39.5 -16v-71z" />
    <glyph glyph-name="uni02BF" unicode="&#x2bf;" horiz-adv-x="374" 
d="M251 583l0.000976562 70.998c-16 0 -29.167 5.33301 -39.5 16s-15.5 23.334 -15.5 38.001c0 15.333 5.16699 28.333 15.5 39s23.5 16 39.5 16v71c-36.667 0 -67.167 -12.167 -91.5 -36.5s-36.5 -54.166 -36.5 -89.499c0 -23.333 5.66699 -44.5 17 -63.5
s26.666 -34 45.999 -45s41 -16.5 65 -16.5z" />
    <glyph glyph-name="circumflex" unicode="&#x2c6;" horiz-adv-x="621" 
d="M123 640h122l66 79l68 -79h119l-120 144h-136z" />
    <glyph glyph-name="caron" unicode="&#x2c7;" horiz-adv-x="621" 
d="M242 640h136l120 144h-119l-68 -79l-66 79h-122z" />
    <glyph glyph-name="uni02C8" unicode="&#x2c8;" horiz-adv-x="363" 
d="M123 550h117v195h-117v-195z" />
    </font>
</defs>
</svg>
